<svg width="35" height="35" viewBox="0 0 35 35" fill="none" xmlns="http://www.w3.org/2000/svg">
<g clip-path="url(#clip0_54_107)">
<path d="M0 18.9337V15.9927C0.109575 15.9562 0.0639186 15.8648 0.0730498 15.7918C0.1461 15.2255 0.21915 14.6683 0.328724 14.1021C1.77146 6.61249 8.13593 0.812647 15.7696 0.0819584C19.486 -0.274252 22.9833 0.474704 26.234 2.32883C32.3428 5.81787 35.8218 12.869 34.8448 19.8197C34.3517 23.327 32.9546 26.4324 30.5988 29.072C27.7772 32.2323 24.2617 34.1503 20.0613 34.7988C19.6413 34.8627 19.2121 34.8445 18.8012 34.9906H16.071C16.0162 34.881 15.9157 34.9267 15.8336 34.9175C13.8977 34.7166 12.0258 34.2599 10.2726 33.4196C4.6204 30.6887 1.25098 26.2406 0.191756 20.048C0.127837 19.6736 0.155231 19.2899 0.00913123 18.9246L0 18.9337ZM29.5852 12.321C29.5852 11.1336 29.0647 10.2842 28.1881 9.93713C27.2659 9.57178 26.3984 9.70879 25.6588 10.3938C24.3439 11.5994 23.0381 12.8233 21.7323 14.0381C19.2304 16.3763 16.7284 18.7145 14.2265 21.0619C14.0347 21.2354 13.9434 21.2537 13.7516 21.0527C12.2267 19.3995 10.6744 17.7555 9.14036 16.1023C8.47378 15.3808 7.67023 15.0885 6.71145 15.3534C4.99478 15.8374 4.44691 17.8742 5.68876 19.2169C8.30029 22.0392 10.9392 24.8432 13.5599 27.6563C13.7242 27.8299 13.8064 27.8116 13.9616 27.6563C15.3496 26.3594 16.7467 25.0624 18.1346 23.7745C20.0157 22.0209 21.8967 20.2672 23.7777 18.5045C25.467 16.9243 27.1563 15.3442 28.8364 13.7641C29.3295 13.3074 29.5761 12.7411 29.5852 12.3027V12.321Z" fill="#FAE200"/>
</g>
<defs>
<clipPath id="clip0_54_107">
<rect width="35" height="35" fill="white"/>
</clipPath>
</defs>
</svg>
