<svg width="98" height="97" viewBox="0 0 98 97" fill="none" xmlns="http://www.w3.org/2000/svg">
<path d="M52.088 77.476C40.4185 77.476 30.3992 70.4384 26.0242 60.3793L59.5731 45.7768L59.2076 44.9727L19.1992 62.1558L19.6046 63.0773C19.6112 63.0928 19.6179 63.1061 19.6245 63.1194L19.6334 63.1416C24.6818 73.677 35.6447 80.9805 48.3621 80.9805C62.7121 80.9805 75.9123 71.2735 79.7158 58.1397C75.7041 68.9631 64.307 77.4738 52.0858 77.4738L52.088 77.476Z" fill="#006073"/>
<path d="M55.9181 73.1852C46.1048 73.1852 37.6761 67.2662 33.9966 58.8064L63.6934 45.8631L63.3855 45.1875L28.2549 60.3017L28.596 61.077C28.6027 61.0903 28.6071 61.1014 28.6137 61.1125L28.6226 61.1324C32.8691 69.9931 42.0887 76.1358 52.7836 76.1358C64.8519 76.1358 76.0164 68.1634 79.3016 57.4419C75.9278 66.5441 66.1943 73.1874 55.9181 73.1874V73.1852Z" fill="#006073"/>
<path d="M79.1993 56.0596C76.3794 65.2637 67.6316 71.9735 57.2712 71.9735C48.0893 71.9735 40.407 67.1931 36.7608 59.5884L36.7542 59.5729C36.7498 59.5618 36.7431 59.553 36.7387 59.5441L36.4463 58.8773L68.5687 45.0347L68.6683 45.223C69.4038 46.6783 71.0142 47.7173 73.1009 47.7881C76.6452 47.9078 78.2047 45.7701 78.2047 45.7701C78.2047 45.7701 80.8563 48.7606 79.1993 56.0618V56.0596Z" fill="#006073"/>
<mask id="mask0_31_315" style="mask-type:luminance" maskUnits="userSpaceOnUse" x="16" y="16" width="62" height="46">
<path d="M77.3431 35.8659C72.565 24.3669 61.2299 16.2793 48.0008 16.2793C30.4588 16.2793 16.2373 30.5008 16.2373 48.0428C16.2373 52.7988 16.4145 57.3067 18.2863 61.3583L77.3431 35.8659Z" fill="white"/>
</mask>
<g mask="url(#mask0_31_315)">
<mask id="mask1_31_315" style="mask-type:luminance" maskUnits="userSpaceOnUse" x="16" y="16" width="66" height="66">
<path d="M48.7163 81.2373C66.654 81.2373 81.1953 66.696 81.1953 48.7583C81.1953 30.8206 66.654 16.2793 48.7163 16.2793C30.7787 16.2793 16.2373 30.8206 16.2373 48.7583C16.2373 66.696 30.7787 81.2373 48.7163 81.2373Z" fill="white"/>
</mask>
<g mask="url(#mask1_31_315)">
<path d="M45.5331 69.4016C45.5021 68.943 45.4356 67.5209 45.3448 65.4453L44.5053 31.4909H44.5008C44.5186 30.514 44.5141 30.5074 44.4499 30.4409L44.3967 30.3856H44.3724L43.6502 29.8185V28.7153L41.3974 27.2998H36.0676V28.5824L35.2192 29.0077V30.3302L35.5227 30.7555V31.739L28.1218 32.1444V31.3713L27.2113 30.946V29.927L26.4825 29.5017V28.7375L25.6674 27.991L23.2927 27.178L16.5984 27.302L14.8551 28.2878L14.9149 29.6833L13.949 30.2261V31.728H14.3721L13.5769 68.006L13.2158 68.2342L13.2712 69.4415L23.9152 70.1503V70.0683L23.7557 70.1259V68.7282L23.5031 68.6728L23.6227 56.5247C23.6227 56.5247 23.8841 49.0374 29.431 46.1931C29.431 46.1931 29.4952 46.2441 29.5993 46.326C29.5063 46.3792 29.4132 46.4323 29.3224 46.4877C24.8012 49.2501 24.5775 55.5545 24.5775 55.5545L24.4689 66.5617L24.6993 66.6127V67.8797L28.8749 66.3668L28.8329 65.1351L29.1784 64.9136V67.0203L28.9015 67.2196L28.937 68.2519L28.9215 67.8022L34.0851 64.0962L34.1449 64.1095L34.1892 64.0209L35.6091 63.0019L35.6401 69.5278H35.217V70.8902L42.0353 72.2658L45.8942 70.4316V69.406H45.5309L45.5331 69.4016ZM23.2595 43.4684V36.5637C23.2772 36.4662 23.6648 34.4128 24.7614 34.0207L24.7857 34.0118L24.8101 34.0229C24.8234 34.0295 26.1724 34.7495 26.456 36.6058L26.611 43.4684H23.2595ZM27.6344 43.4684L27.6167 36.5836V36.577C27.6411 36.4795 28.2015 34.1824 29.298 33.7925L29.3246 33.7837L29.349 33.7992C29.3645 33.808 30.8221 34.7074 31.1056 36.5593V43.4729H27.6344V43.4684ZM28.8218 64.8538L28.5205 56.0905C28.5183 56.0396 28.2746 51.0067 31.2031 47.7083C35.3832 51.875 35.5803 56.9722 35.5825 57.0276L35.598 60.4434L35.5847 60.4677L33.7151 61.6817L33.662 61.6706L33.6221 61.7437L31.4778 63.1348L31.4224 63.1237L31.3803 63.1969L28.8196 64.8582L28.8218 64.8538ZM29.5439 64.6744L31.13 63.6465L29.5439 66.4864V64.6766V64.6744ZM29.9892 66.4354L31.449 63.8193L31.5664 65.3013L29.987 66.4354H29.9892ZM31.768 63.2323L33.3718 62.1912L31.8965 64.8449L31.768 63.2301V63.2323ZM32.386 64.7165L33.6863 62.3772L33.7838 63.713L32.386 64.7165ZM34.1227 63.3541L34.0097 61.7791L35.3721 60.8953L34.1227 63.3541ZM34.6721 63.075L35.6069 61.2364L35.6135 62.4016L34.6743 63.075H34.6721ZM32.2509 43.4662V36.5615C32.2642 36.4662 32.5854 34.4128 33.9521 33.6131L33.9787 33.5976L34.0075 33.6109C34.023 33.6175 35.5028 34.2909 35.8439 36.4507L35.968 43.4662H32.2531H32.2509ZM45.2008 61.9962L45.316 64.6987C45.2806 63.8769 45.2429 62.9709 45.2008 61.9962Z" fill="#006073"/>
</g>
</g>
<path d="M48.7163 16.2793C41.26 16.2793 34.3952 18.798 28.9126 23.0245C29.555 22.7366 45.1056 15.9227 55.291 27.6853C55.5812 26.1967 56.2524 24.7767 56.2524 24.7767C56.3078 25.2153 55.9976 25.9907 56.1793 27.1514C56.4717 29.0055 57.3533 30.1552 58.0555 31.2384C58.2615 31.5574 58.4897 31.8609 58.7356 32.1511L60.634 34.4061C60.634 34.4061 60.634 34.4061 60.6362 34.4084C60.6805 31.7723 61.5112 30.8043 61.5112 30.8043C61.4824 31.7014 61.6907 32.8334 61.9498 33.859C62.3751 35.547 63.3432 37.0489 64.6878 38.1542L64.9846 38.3979C65.0932 38.4865 65.2039 38.5685 65.3191 38.646C65.3612 38.6748 65.4144 38.7125 65.4653 38.7523C66.358 39.3637 67.1998 39.8267 67.9928 40.1678C66.7523 38.1077 68.4868 36.3178 68.4868 36.3178C67.7735 39.3704 69.7938 40.8124 70.64 40.9055C73.3514 41.2289 75.252 40.046 76.364 39.0071C76.364 39.0071 71.2248 28.2657 65.091 24.4865C65.091 24.4865 72.6181 28.2679 77.7817 40.6685C78.9735 43.2403 79.2017 46.6561 79.2017 46.6561C79.7798 48.0805 80.1763 48.2909 81.1975 48.7627C81.1975 30.8242 66.6571 16.2837 48.7185 16.2837L48.7163 16.2793Z" fill="#006073"/>
<path d="M12.5184 24.8786C12.412 24.8653 12.3145 24.872 12.2237 24.9008C12.1329 24.9296 12.0509 24.9761 11.9777 25.0404C11.9046 25.1046 11.8404 25.18 11.7872 25.2642C11.7185 25.375 11.6653 25.4946 11.6277 25.6187C11.59 25.7428 11.5723 25.8646 11.5723 25.9843C11.7495 25.9156 11.9312 25.8912 12.1218 25.9067C12.3123 25.9223 12.494 25.9865 12.6691 26.0973L13.1587 26.4009L13.695 25.5345L12.8485 25.0116C12.7333 24.9407 12.6225 24.8964 12.5162 24.8831L12.5184 24.8786Z" fill="#006073"/>
<path d="M12.064 26.839C12.0241 26.8301 11.9865 26.8301 11.9488 26.8368C11.9111 26.8434 11.8779 26.8567 11.8469 26.8789C11.8159 26.8988 11.7893 26.9254 11.7693 26.9586C11.7295 27.0251 11.7206 27.096 11.745 27.1736C11.7693 27.2511 11.8225 27.3132 11.9001 27.3619L12.3765 27.6566L12.6667 27.1891L12.177 26.8855C12.1394 26.8634 12.1017 26.8478 12.0618 26.839H12.064Z" fill="#006073"/>
<path d="M24.3343 14.2085L23.8934 13.6013C23.8357 13.5238 23.7671 13.4595 23.6851 13.4086C23.6031 13.3576 23.5167 13.3244 23.4236 13.3089C23.3306 13.2911 23.2397 13.2934 23.1489 13.3111C23.058 13.3288 22.9716 13.3687 22.894 13.4241C22.8165 13.4817 22.7545 13.5504 22.7079 13.6324C22.6614 13.7144 22.6326 13.8008 22.6193 13.8916C22.606 13.9825 22.6104 14.0755 22.6326 14.1686C22.6547 14.2616 22.6968 14.3503 22.7567 14.4323L23.1976 15.0349C23.2574 15.1169 23.3283 15.1834 23.4103 15.2344C23.4923 15.2853 23.5787 15.3186 23.6696 15.3341C23.7604 15.3496 23.8513 15.3474 23.9421 15.3296C24.0329 15.3119 24.1194 15.272 24.1969 15.2166C24.2745 15.159 24.3365 15.0903 24.383 15.0084C24.4296 14.9264 24.4584 14.84 24.4694 14.7469C24.4805 14.6538 24.4761 14.5608 24.4539 14.4699C24.4318 14.3791 24.3919 14.2904 24.3321 14.2107L24.3343 14.2085Z" fill="#006073"/>
<path d="M16.2133 22.1409C16.1668 22.059 16.1048 21.9858 16.0272 21.9238L15.4378 21.4585C15.3625 21.3987 15.2783 21.3544 15.1852 21.3278C15.0922 21.3012 15.0013 21.2923 14.9083 21.3012C14.8152 21.31 14.7266 21.3366 14.6424 21.3787C14.5582 21.423 14.4873 21.4829 14.4252 21.5582C14.3654 21.6335 14.3233 21.7177 14.3011 21.8086C14.279 21.8994 14.2745 21.9903 14.2856 22.0811C14.2967 22.172 14.3255 22.2606 14.3743 22.3426C14.4208 22.4268 14.485 22.4999 14.5648 22.5619L15.1498 23.025C15.2295 23.0893 15.3159 23.1336 15.409 23.1602C15.5021 23.1868 15.5951 23.1956 15.686 23.1868C15.7768 23.1779 15.8655 23.1513 15.9474 23.107C16.0316 23.0649 16.1025 23.0051 16.1624 22.9298C16.2222 22.8544 16.2643 22.7702 16.2864 22.6772C16.3086 22.5863 16.3153 22.4933 16.2997 22.4002C16.2864 22.3071 16.2576 22.2207 16.2111 22.1365L16.2133 22.1409Z" fill="#006073"/>
<path d="M49.9614 2.23516C49.7887 2.07345 49.5893 1.94718 49.3611 1.85857C49.133 1.76997 48.8871 1.72566 48.6235 1.72566C48.3111 1.72566 48.032 1.77661 47.7906 1.87408C47.5491 1.97376 47.3453 2.11332 47.1792 2.29497C47.013 2.47661 46.8868 2.6937 46.7982 2.94401C46.7096 3.19654 46.6653 3.47566 46.6653 3.78135C46.6653 3.97186 46.7051 4.15572 46.7804 4.33293C46.8292 4.44812 46.8956 4.55445 46.971 4.65635L45.1479 6.08071C45.0017 5.89685 44.8687 5.70413 44.7668 5.4959C44.4744 4.90667 44.3282 4.26648 44.326 3.57091C44.326 2.95066 44.4479 2.39243 44.6915 1.89402C44.9374 1.3956 45.263 0.974716 45.6706 0.626933C45.9675 0.374402 46.2998 0.163959 46.663 -0.00439453C24.0748 0.855096 4.40401 17.531 0.633765 40.6841C0.589462 40.9543 0.551803 41.2268 0.51193 41.4971C0.454335 44.3502 2.49673 46.8932 5.38976 47.3629C8.34925 47.8458 11.1581 45.9917 11.9378 43.1607C11.9689 42.9546 11.9977 42.7464 12.0309 42.5404C14.7799 25.6629 28.6182 13.3022 44.882 11.694C44.8466 11.6718 44.8111 11.6497 44.7779 11.6253C44.6029 11.4968 44.4612 11.3307 44.3526 11.1291C44.2441 10.9275 44.1909 10.6816 44.1909 10.3915C44.1909 10.201 44.2175 10.0326 44.2684 9.88418C44.3194 9.73798 44.3925 9.60285 44.4833 9.48323C44.5741 9.36361 44.6805 9.25286 44.8001 9.15096C44.9197 9.04906 45.046 8.94938 45.1811 8.85191L45.3649 8.71457H45.3561L49.4032 5.52027C49.5494 5.40287 49.689 5.26996 49.8219 5.11932C49.9526 4.96869 50.0722 4.8092 50.1763 4.63863C50.2804 4.47028 50.3624 4.29306 50.4244 4.1092C50.4864 3.92534 50.5152 3.73705 50.5152 3.54654C50.5152 3.28294 50.4643 3.03927 50.3668 2.81553C50.2671 2.5918 50.132 2.39908 49.9614 2.23516ZM9.7138 42.1616C9.40146 44.0777 7.59165 45.3825 5.67774 45.0701C3.76382 44.7578 2.46129 42.948 2.77363 41.0319C3.08597 39.1157 4.89578 37.811 6.80969 38.1233C8.72361 38.4357 10.0261 40.2455 9.7138 42.1616ZM11.4594 34.5813C11.3132 34.7629 11.1426 34.9091 10.9499 35.0177C10.7571 35.1284 10.5423 35.1926 10.3097 35.2148C10.0771 35.237 9.8312 35.1949 9.56981 35.093L7.12204 34.1249L7.46539 33.2588L9.91316 34.2268C10.0284 34.2733 10.1391 34.2889 10.2432 34.2733C10.3473 34.2578 10.4448 34.2224 10.5356 34.1648C10.6242 34.1072 10.704 34.0341 10.7749 33.9411C10.8458 33.8502 10.9011 33.7506 10.9432 33.6442C10.9853 33.5357 11.0141 33.4249 11.0252 33.3075C11.0363 33.1923 11.0296 33.0838 11.003 32.9797C10.9765 32.8756 10.9299 32.7825 10.8613 32.6984C10.7948 32.6142 10.7018 32.5499 10.5866 32.5034C10.4803 32.4613 10.3872 32.448 10.3053 32.4658C10.2255 32.4813 10.1679 32.53 10.1369 32.612L9.69608 33.7306L8.17203 33.1281C8.01697 33.0661 7.88184 32.9797 7.76665 32.8645C7.65146 32.7493 7.56507 32.623 7.50083 32.479C7.43881 32.3373 7.40336 32.1844 7.39893 32.0227C7.3945 31.861 7.42108 31.7037 7.48311 31.5465L7.8464 30.6294L8.71254 30.9727L8.34925 31.8898C8.32045 31.9651 8.32045 32.0382 8.34925 32.1091C8.38026 32.1822 8.43342 32.2332 8.50874 32.262L9.16886 32.5234L9.26855 32.2686C9.34165 32.0847 9.43468 31.9363 9.54766 31.8211C9.66063 31.7059 9.78911 31.6218 9.93532 31.5708C10.0793 31.5199 10.2366 31.4999 10.4027 31.511C10.5711 31.5221 10.7439 31.5642 10.9255 31.6351C11.1847 31.737 11.3929 31.8765 11.5502 32.0537C11.7052 32.2309 11.8182 32.4259 11.8825 32.6385C11.9489 32.8512 11.9733 33.0749 11.9578 33.3075C11.9401 33.5401 11.8891 33.7661 11.8049 33.9832C11.7208 34.198 11.6056 34.3952 11.4594 34.5768V34.5813ZM12.8062 34.9933C12.7818 35.0553 12.7486 35.1063 12.7043 35.1506C12.66 35.1949 12.6113 35.2281 12.5559 35.2525C12.5005 35.2768 12.4429 35.2901 12.3787 35.2923C12.3166 35.2945 12.2546 35.2835 12.1926 35.2613C12.1306 35.2369 12.0796 35.2037 12.0353 35.1572C11.991 35.1129 11.9578 35.062 11.9334 35.0066C11.909 34.9512 11.8958 34.8936 11.8958 34.8316C11.8958 34.7696 11.9046 34.7075 11.929 34.6477C11.9533 34.5879 11.9866 34.5347 12.0309 34.4904C12.0752 34.4461 12.1239 34.4129 12.1793 34.3885C12.2347 34.3642 12.2923 34.3509 12.3565 34.3487C12.4185 34.3464 12.4806 34.3575 12.5426 34.3797C12.6046 34.4018 12.6556 34.4373 12.6999 34.4838C12.7442 34.5303 12.7774 34.579 12.8018 34.6344C12.8261 34.6898 12.8394 34.7474 12.8394 34.8094C12.8394 34.8714 12.8306 34.9335 12.8062 34.9933ZM13.2182 33.9499C13.1938 34.012 13.1606 34.0629 13.1163 34.1072C13.072 34.1515 13.0233 34.1847 12.9679 34.2091C12.9125 34.2335 12.8549 34.2468 12.7907 34.249C12.7287 34.2512 12.6666 34.2401 12.6046 34.218C12.5426 34.1936 12.4916 34.1604 12.4473 34.1139C12.403 34.0673 12.3698 34.0186 12.3454 33.9632C12.3211 33.9078 12.3078 33.8502 12.3078 33.7882C12.3078 33.7262 12.3166 33.6642 12.341 33.6044C12.3654 33.5446 12.3986 33.4914 12.4429 33.4471C12.4872 33.4028 12.5359 33.3696 12.5913 33.3452C12.6467 33.3208 12.7043 33.3075 12.7663 33.3075C12.8283 33.3075 12.8904 33.3164 12.9502 33.3408C13.01 33.3651 13.0632 33.3983 13.1075 33.4427C13.1518 33.487 13.185 33.5357 13.2094 33.5911C13.2337 33.6465 13.247 33.704 13.247 33.7661C13.247 33.8281 13.2382 33.8901 13.2138 33.9499H13.2182ZM17.1856 22.925C17.1324 23.1354 17.0372 23.3303 16.8976 23.5076C16.6163 23.8642 16.2641 24.0614 15.8432 24.1034L15.5065 24.5288C15.4068 24.655 15.316 24.7857 15.2296 24.9208L12.7198 28.9636C12.6312 29.1075 12.5492 29.2537 12.4739 29.4066L12.2568 29.8452C12.3321 29.9161 12.4097 30.0047 12.4872 30.1088C12.5647 30.2129 12.6334 30.3436 12.6954 30.4987C12.7552 30.6515 12.8018 30.831 12.8328 31.037C12.8638 31.243 12.8704 31.4778 12.8527 31.7414L11.9268 31.6816C11.9334 31.5531 11.9334 31.4357 11.9246 31.3294C11.9157 31.223 11.9024 31.13 11.8825 31.0458C11.8625 30.9639 11.8382 30.8908 11.8116 30.8287C11.785 30.7667 11.7562 30.7113 11.7252 30.6648C11.6543 30.5563 11.5723 30.4765 11.4793 30.4256L8.63057 29.0145L9.04481 28.1794L11.4571 29.3734L11.7562 28.7686L11.8891 28.4496L11.4128 28.155C11.2888 28.0775 11.1825 27.9867 11.0961 27.8825C11.0097 27.7762 10.941 27.6632 10.8923 27.5436C10.8435 27.4218 10.8147 27.2977 10.8059 27.167C10.797 27.0363 10.8103 26.9079 10.8458 26.7816C10.7682 26.6398 10.7151 26.4825 10.6863 26.312C10.6575 26.1414 10.6508 25.9686 10.6663 25.7914C10.6818 25.6142 10.7173 25.4392 10.7749 25.2642C10.8325 25.0892 10.9078 24.9253 11.0008 24.7724C11.116 24.5841 11.2556 24.4202 11.4173 24.2784C11.579 24.1367 11.7584 24.0348 11.9578 23.9727C12.1571 23.9107 12.372 23.8952 12.6046 23.9284C12.8372 23.9617 13.0831 24.0569 13.3401 24.2164L14.1863 24.7392L14.5252 24.274L14.8109 23.9107C14.7666 23.8886 14.7268 23.8642 14.6913 23.8376C14.6559 23.811 14.6182 23.7822 14.5806 23.7512L13.9957 23.2883C13.8163 23.1465 13.6745 22.9803 13.5682 22.7876C13.4619 22.5971 13.3954 22.3955 13.3688 22.1851C13.3423 21.9746 13.3556 21.7664 13.4087 21.556C13.4619 21.3478 13.5594 21.155 13.6989 20.9778C13.8385 20.8006 14.0068 20.6633 14.1995 20.5636C14.3923 20.4639 14.5961 20.4041 14.8087 20.3841C15.0214 20.3642 15.2318 20.3797 15.4423 20.4373C15.6527 20.4949 15.8432 20.5924 16.016 20.7297L16.6052 21.1949C16.7802 21.3345 16.9198 21.4984 17.0239 21.6889C17.128 21.8794 17.1945 22.081 17.2233 22.2914C17.2521 22.5019 17.2388 22.7123 17.1878 22.925H17.1856ZM22.1964 19.0506C22.1698 19.106 22.1299 19.1547 22.0812 19.199C22.0324 19.2411 21.977 19.2721 21.9172 19.2921C21.8574 19.3098 21.7976 19.3186 21.7378 19.3142C21.678 19.3098 21.6204 19.2943 21.565 19.2655C21.5096 19.2367 21.4609 19.199 21.4166 19.1503C21.3745 19.1016 21.3435 19.0462 21.3236 18.9864C21.3036 18.9266 21.297 18.8667 21.3014 18.8069C21.3058 18.7471 21.3214 18.6895 21.3502 18.6342C21.379 18.5788 21.4166 18.53 21.4653 18.4857C21.5141 18.4436 21.5695 18.4126 21.6293 18.3927C21.6891 18.3728 21.7489 18.3661 21.8087 18.3705C21.8685 18.375 21.9261 18.3905 21.9837 18.4171C22.0413 18.4436 22.09 18.4813 22.1321 18.5323C22.1742 18.581 22.2052 18.6364 22.2229 18.6962C22.2407 18.756 22.2473 18.8158 22.2429 18.8756C22.2384 18.9354 22.2229 18.993 22.1941 19.0484L22.1964 19.0506ZM23.047 18.3196C23.0204 18.375 22.9805 18.4237 22.9318 18.468C22.8831 18.5101 22.8277 18.5411 22.7679 18.5611C22.7081 18.581 22.6483 18.5876 22.5884 18.5832C22.5286 18.5788 22.471 18.5633 22.4157 18.5345C22.3603 18.5079 22.3115 18.468 22.2672 18.4193C22.2251 18.3705 22.1941 18.3152 22.1742 18.2554C22.1565 18.1955 22.1476 18.1357 22.152 18.0759C22.1565 18.0161 22.172 17.9585 22.2008 17.9031C22.2296 17.8478 22.2672 17.799 22.316 17.7547C22.3647 17.7126 22.4201 17.6816 22.4799 17.6617C22.5397 17.644 22.5995 17.6351 22.6593 17.6395C22.7191 17.644 22.7767 17.6595 22.8321 17.6883C22.8875 17.7149 22.9362 17.7547 22.9805 17.8035C23.0226 17.8522 23.0536 17.9076 23.0736 17.9674C23.0913 18.0272 23.1001 18.087 23.0957 18.1468C23.0913 18.2066 23.0758 18.2642 23.047 18.3196ZM30.5299 11.55C30.4789 11.6962 30.4014 11.8313 30.2973 11.9532C30.1932 12.075 30.0669 12.1725 29.9163 12.2456L29.5109 12.4449L26.5824 14.1019C26.4229 14.1927 26.2679 14.2924 26.1217 14.3987L25.3884 14.9348C25.3552 15.1408 25.2843 15.3313 25.178 15.5063C25.0717 15.6835 24.9299 15.8364 24.7505 15.9649C24.3872 16.2285 23.9951 16.3259 23.5742 16.255L22.9606 16.7291L21.3081 18.1069C21.2062 18.1933 21.1065 18.2819 21.0112 18.3772L18.7606 20.6123L18.1071 19.9544L19.3631 18.7073L18.6609 17.9984C18.5745 17.9098 18.4748 17.8544 18.3663 17.8278C18.2578 17.8035 18.1359 17.8123 17.9986 17.8566C17.8612 17.9009 17.7128 17.9807 17.5467 18.0981C17.3805 18.2155 17.1967 18.3728 16.9973 18.5721L16.3438 17.9142C16.6606 17.5997 16.9574 17.356 17.2366 17.1854C17.5135 17.0149 17.7748 16.9085 18.0207 16.8664C18.2666 16.8243 18.4948 16.8465 18.7097 16.9285C18.9245 17.0126 19.1283 17.15 19.321 17.3449L20.0233 18.0538L20.5017 17.5797L21.1087 17.0215L19.3853 15.0345L20.0897 14.4297L21.8441 16.4699L22.3581 16.0291L22.635 15.7965C22.6017 15.7633 22.5707 15.73 22.5419 15.6924C22.5131 15.6569 22.4843 15.6193 22.4555 15.5794L22.0147 14.9769C21.8796 14.793 21.7888 14.5937 21.7378 14.381C21.6869 14.1683 21.678 13.9579 21.709 13.7475C21.74 13.537 21.8087 13.3399 21.915 13.1538C22.0236 12.9677 22.1676 12.8082 22.3492 12.6753C22.5286 12.5446 22.728 12.456 22.9407 12.4117C23.1555 12.3674 23.3682 12.3652 23.5764 12.4006C23.7869 12.4361 23.984 12.5114 24.1701 12.6221C24.3562 12.7329 24.5156 12.8791 24.6463 13.0585L25.0894 13.6655C25.1204 13.7054 25.1492 13.743 25.1736 13.7807C25.1979 13.8183 25.2179 13.8582 25.2378 13.9003L25.6343 13.6101C25.7429 13.5304 25.8558 13.4573 25.971 13.3908L27.9846 12.2345L27.4818 11.3728C27.4065 11.2421 27.3245 11.1446 27.2381 11.0804C27.1517 11.0161 27.0653 10.9741 26.9767 10.9585C26.8881 10.943 26.8017 10.9453 26.7175 10.9696C26.6334 10.9918 26.5514 11.0272 26.4739 11.0715C26.3897 11.1203 26.3055 11.1823 26.2236 11.2554C26.1394 11.3285 26.0618 11.406 25.9843 11.4858C25.909 11.5655 25.8403 11.643 25.7805 11.7206C25.7207 11.7981 25.672 11.8646 25.6365 11.9177L24.8723 11.3949C24.9188 11.3263 24.9831 11.2399 25.0628 11.1402C25.1425 11.0405 25.2334 10.9364 25.3353 10.8301C25.4372 10.7237 25.5435 10.6196 25.6587 10.5199C25.7739 10.4203 25.8891 10.3361 26.0065 10.2674C26.1837 10.1633 26.372 10.0835 26.5669 10.026C26.7618 9.97057 26.9568 9.95728 27.1561 9.99051C27.3533 10.0237 27.5482 10.1101 27.7387 10.2519C27.9292 10.3937 28.1109 10.6108 28.2815 10.9032L28.7843 11.7649L29.1033 11.612L29.5087 11.4127C29.5796 11.3772 29.6283 11.3241 29.6549 11.2509C29.6815 11.1801 29.677 11.1092 29.6416 11.0383L28.0068 7.70666L28.8397 7.29685L30.4745 10.6285C30.5476 10.7769 30.5875 10.9297 30.5963 11.0892C30.6052 11.2487 30.583 11.4016 30.5321 11.5478L30.5299 11.55ZM31.6463 11.4149L29.6704 6.91362L30.521 6.54147L32.4969 11.0427L31.6463 11.4149ZM38.9719 9.94842C38.9631 10.0104 38.9431 10.0658 38.9121 10.1168C38.8811 10.1677 38.8412 10.2142 38.7925 10.2519C38.7438 10.2896 38.6862 10.3184 38.6241 10.3339C38.5599 10.3494 38.4979 10.3538 38.4359 10.3427C38.3738 10.3316 38.3185 10.3117 38.2653 10.2807C38.2121 10.2497 38.17 10.2098 38.1324 10.1611C38.0947 10.1123 38.0681 10.0548 38.0526 9.99273C38.0371 9.92849 38.0327 9.86646 38.0438 9.80665C38.0548 9.74684 38.0748 9.69146 38.1036 9.6383C38.1346 9.58735 38.1745 9.54304 38.2232 9.50539C38.2719 9.46773 38.3295 9.44114 38.3915 9.42564C38.4558 9.41013 38.5178 9.4057 38.5798 9.41678C38.6419 9.42564 38.6972 9.44558 38.7482 9.47659C38.7991 9.5076 38.8434 9.54747 38.8811 9.59399C38.9188 9.64273 38.9453 9.69811 38.9609 9.76235C38.9764 9.82659 38.9808 9.88861 38.9697 9.94842H38.9719ZM39.7029 8.73007C39.6764 8.7345 39.6498 8.74115 39.6254 8.74558L37.459 9.26172C37.4147 9.27279 37.3681 9.28608 37.326 9.29937L34.1938 10.3427L33.9014 9.46108L35.5805 8.90286L35.2659 7.95697C35.2261 7.83957 35.164 7.74432 35.0776 7.67343C34.9912 7.60254 34.8783 7.55603 34.7365 7.53609C34.5947 7.51615 34.4242 7.52058 34.2226 7.55159C34.021 7.58261 33.7884 7.64242 33.5204 7.73102L33.228 6.84938C33.6511 6.70761 34.0254 6.62343 34.3511 6.59242C34.6767 6.56141 34.958 6.58356 35.195 6.65445C35.4321 6.72533 35.6292 6.84717 35.7843 7.01774C35.9393 7.1883 36.0612 7.40318 36.1476 7.66235L36.4621 8.60824L37.1023 8.39558L37.871 8.18292L37.2219 5.62439L38.1213 5.39622L38.7748 7.97248L39.4393 7.83735L39.776 7.76425L39.5922 6.7209C39.5523 6.50824 39.5523 6.30445 39.5922 6.10951C39.632 5.91457 39.7052 5.73736 39.8048 5.57565C39.9067 5.41394 40.033 5.27439 40.1858 5.15477C40.3387 5.03515 40.5048 4.94432 40.6865 4.88451C40.8681 4.82249 41.0608 4.79369 41.2624 4.79591C41.464 4.79812 41.6678 4.84021 41.8694 4.92439L41.6545 5.81932C41.5017 5.75065 41.3532 5.71964 41.207 5.7285C41.0608 5.73736 40.9346 5.77502 40.8238 5.84369C40.7131 5.91236 40.6289 6.00761 40.5691 6.13166C40.5093 6.25571 40.4893 6.39748 40.507 6.55698L40.6909 7.60033L42.5982 7.26362L42.7599 8.17849L39.7029 8.72564V8.73007Z" fill="#006073"/>
<path d="M86.6184 30.5698C86.7159 30.5765 86.8112 30.5743 86.9087 30.5632C87.0549 30.5477 87.179 30.5144 87.2809 30.4635C87.3341 30.4391 87.3784 30.4036 87.4117 30.3593C87.4471 30.315 87.4693 30.2596 87.4804 30.1954C87.4914 30.1289 87.487 30.0513 87.4693 29.9605C87.4516 29.8696 87.4139 29.7655 87.3563 29.6481C87.3009 29.5329 87.2433 29.4398 87.1857 29.3689C87.1281 29.298 87.0704 29.247 87.0128 29.2138C86.9574 29.1805 86.8998 29.165 86.8467 29.165C86.7913 29.165 86.7381 29.1783 86.6893 29.2027C86.6339 29.2293 86.5786 29.2647 86.5187 29.3068C86.4589 29.3489 86.4079 29.3977 86.3592 29.4509C86.2905 29.5218 86.2307 29.5971 86.1775 29.6791C86.1243 29.7589 86.0778 29.8408 86.0357 29.925C85.9936 30.0092 85.9581 30.0912 85.9271 30.171C85.8961 30.2508 85.8717 30.3239 85.854 30.3904C85.9183 30.4169 85.9914 30.4413 86.0734 30.4679C86.1553 30.4945 86.244 30.5166 86.3348 30.5344C86.4279 30.5521 86.5209 30.5654 86.6184 30.572V30.5698Z" fill="#006073"/>
<path d="M79.2487 18.107C79.18 18.0383 79.1047 17.9851 79.0183 17.9497C78.9319 17.9142 78.8455 17.8965 78.7546 17.8943C78.6638 17.8943 78.5773 17.9076 78.4909 17.943C78.4045 17.9763 78.327 18.0294 78.2561 18.0981L77.5005 18.8426L78.2871 19.6425C78.3425 19.7001 78.4089 19.7289 78.4843 19.7311C78.5596 19.7334 78.6283 19.7046 78.6904 19.6425L79.2532 19.0886C79.3218 19.0243 79.375 18.949 79.4083 18.8648C79.4415 18.7806 79.4592 18.692 79.457 18.6033C79.4548 18.5147 79.4371 18.4261 79.4016 18.3397C79.3662 18.2532 79.3152 18.1757 79.2465 18.107H79.2487Z" fill="#006073"/>
<path d="M68.124 9.94848C68.0686 9.89087 68.0044 9.84213 67.9313 9.80667C67.836 9.76014 67.7318 9.72026 67.6211 9.69145C67.5103 9.66265 67.3973 9.64271 67.2843 9.63384C67.1713 9.62498 67.0605 9.62498 66.9519 9.63384C66.8433 9.64271 66.7436 9.66043 66.6506 9.68702C66.5575 9.71361 66.4777 9.75128 66.4112 9.79781C66.3426 9.84434 66.2938 9.89974 66.2606 9.96621L65.8706 10.7528L67.7053 11.6635L68.1484 10.7727C68.2104 10.6464 68.2481 10.5334 68.2636 10.4315C68.2769 10.3296 68.2725 10.2387 68.2481 10.159C68.2237 10.0792 68.1839 10.0105 68.1285 9.9507L68.124 9.94848Z" fill="#006073"/>
<path d="M87.1411 34.7365C87.2076 34.8052 87.2829 34.8561 87.3694 34.8938C87.4558 34.9315 87.5444 34.9514 87.6397 34.9558C87.735 34.9603 87.828 34.9448 87.9211 34.9115L88.6257 34.6567C88.7165 34.6235 88.7985 34.5747 88.8694 34.5105C88.9403 34.4462 88.9957 34.3709 89.04 34.2889C89.0821 34.2047 89.1065 34.1161 89.1131 34.023C89.1198 33.9277 89.1065 33.8369 89.0733 33.7438C89.04 33.653 88.9913 33.5732 88.9248 33.5067C88.8606 33.4403 88.7852 33.3871 88.701 33.3494C88.6168 33.3118 88.5282 33.2896 88.4329 33.2852C88.3376 33.2807 88.2424 33.2962 88.1449 33.3317L87.4425 33.5865C87.3472 33.622 87.263 33.6707 87.1899 33.735C87.1168 33.7992 87.0614 33.8746 87.0215 33.9565C86.9816 34.0385 86.9572 34.1271 86.9506 34.2202C86.9439 34.3133 86.955 34.4063 86.9882 34.4972C87.0215 34.588 87.0702 34.6678 87.1367 34.7365H87.1411Z" fill="#006073"/>
<path d="M56.308 0.597938C54.4406 0.294458 52.5798 0.106168 50.7346 0.0197754C51.0757 0.199205 51.3814 0.418508 51.6539 0.6799C52.0238 1.03433 52.314 1.45743 52.5267 1.94477C52.7393 2.43211 52.8457 2.95932 52.8479 3.52419C52.8479 4.04698 52.7748 4.51438 52.6241 4.92862C52.4735 5.34286 52.2697 5.72166 52.0127 6.06722C51.7558 6.41279 51.4589 6.734 51.1267 7.03083C50.7922 7.32988 50.4422 7.62228 50.0745 7.91247L47.6909 9.77544L52.8036 9.76658V11.7647C53.3551 11.8289 53.9045 11.9042 54.4539 11.9928C72.3791 14.9102 85.2095 30.3412 85.4753 47.901C87.3538 46.5807 89.724 45.9627 92.1629 46.3592C94.068 46.6693 95.736 47.5554 97.0252 48.8092C97.2002 25.315 80.2032 4.48558 56.308 0.595723V0.597938ZM85.3402 22.145C85.4 22.1539 85.4553 22.176 85.5107 22.2071C85.5661 22.2381 85.6104 22.2802 85.6481 22.3333C85.6857 22.3865 85.7123 22.4441 85.7234 22.5039C85.7345 22.5637 85.7367 22.6235 85.7256 22.6833C85.7167 22.7431 85.6946 22.7985 85.6614 22.8517C85.6281 22.9048 85.586 22.9491 85.5329 22.989C85.4797 23.0267 85.4221 23.0532 85.3623 23.0665C85.3025 23.0798 85.2427 23.082 85.1829 23.071C85.1231 23.0621 85.0677 23.04 85.0167 23.0089C84.9636 22.9779 84.9193 22.9358 84.8816 22.8827C84.844 22.8295 84.8174 22.7719 84.8041 22.7121C84.7908 22.6523 84.7886 22.5925 84.7974 22.5327C84.8063 22.4729 84.8284 22.4175 84.8595 22.3621C84.8905 22.3089 84.9326 22.2624 84.9857 22.2248C85.0389 22.1871 85.0965 22.1605 85.1585 22.1495C85.2205 22.1384 85.2803 22.1362 85.3402 22.145ZM84.1462 21.6222C84.155 21.5624 84.1772 21.5071 84.2104 21.4539C84.2414 21.4007 84.2857 21.3564 84.3389 21.3165C84.3921 21.2789 84.4497 21.2523 84.5095 21.239C84.5693 21.2257 84.6291 21.2235 84.6889 21.2346C84.7487 21.2434 84.8041 21.2656 84.8595 21.2966C84.9148 21.3276 84.9591 21.3697 84.9968 21.4229C85.0345 21.476 85.061 21.5336 85.0721 21.5957C85.0854 21.6577 85.0854 21.7175 85.0765 21.7773C85.0677 21.8371 85.0455 21.8925 85.0123 21.9457C84.9791 21.9988 84.937 22.0431 84.8838 22.083C84.8307 22.1207 84.7731 22.1472 84.7133 22.1605C84.6535 22.1738 84.5936 22.176 84.5338 22.1672C84.474 22.1583 84.4186 22.1362 84.3655 22.1052C84.3123 22.0741 84.268 22.0298 84.2281 21.9767C84.1905 21.9235 84.1639 21.8659 84.1506 21.8061C84.1373 21.7463 84.1351 21.6865 84.144 21.6267L84.1462 21.6222ZM79.6715 16.3036C79.6937 16.246 79.7291 16.1928 79.7756 16.1463C79.8221 16.0998 79.8753 16.0666 79.9329 16.0444C79.9905 16.0223 80.0503 16.0112 80.1101 16.0134C80.1699 16.0156 80.2297 16.0245 80.2873 16.0488C80.3449 16.071 80.3981 16.1064 80.4446 16.153C80.4911 16.1995 80.5243 16.2526 80.5465 16.3102C80.5687 16.3678 80.5797 16.4276 80.5775 16.4874C80.5775 16.5473 80.5642 16.6071 80.5421 16.6624C80.5177 16.72 80.4823 16.771 80.4357 16.8175C80.3892 16.864 80.3361 16.8973 80.2785 16.9194C80.2209 16.9416 80.1611 16.9526 80.1013 16.9526C80.0414 16.9526 79.9816 16.9393 79.9263 16.9172C79.8687 16.8928 79.8177 16.8574 79.7712 16.8109C79.7247 16.7643 79.6914 16.7112 79.6693 16.6536C79.6471 16.596 79.6361 16.5362 79.6361 16.4764C79.6361 16.4166 79.6471 16.3568 79.6715 16.2992V16.3036ZM71.3313 9.89506C71.3402 9.83304 71.3624 9.77544 71.3956 9.72006C71.4288 9.66468 71.4731 9.61816 71.5219 9.58272C71.5728 9.54728 71.626 9.52069 71.6858 9.5074C71.7434 9.49411 71.8054 9.48968 71.8652 9.49854C71.9272 9.5074 71.987 9.52734 72.0424 9.56278C72.0978 9.59601 72.1443 9.64032 72.1798 9.69127C72.2152 9.74221 72.2396 9.79759 72.2529 9.85519C72.2662 9.91278 72.2684 9.97259 72.2595 10.0346C72.2506 10.0966 72.2285 10.1542 72.1953 10.2096C72.162 10.265 72.1177 10.3115 72.069 10.347C72.0181 10.3824 71.9649 10.409 71.9051 10.4223C71.8475 10.4356 71.7877 10.4378 71.7256 10.4289C71.6636 10.4201 71.606 10.3979 71.5506 10.3647C71.4953 10.3315 71.4488 10.2871 71.4133 10.2384C71.3779 10.1875 71.3513 10.1343 71.338 10.0745C71.3247 10.0169 71.3203 9.95709 71.3313 9.89506ZM60.2576 4.97514C60.2754 4.91311 60.3042 4.85552 60.344 4.809C60.3839 4.76027 60.4282 4.72261 60.4814 4.69381C60.5345 4.66501 60.5921 4.64508 60.6519 4.63622C60.714 4.62736 60.776 4.63179 60.8402 4.64951C60.9045 4.66723 60.9576 4.69603 61.0064 4.7359C61.0551 4.77577 61.0928 4.82229 61.1216 4.87546C61.1504 4.92862 61.1681 4.984 61.177 5.04603C61.1836 5.10805 61.1792 5.17008 61.1614 5.2321C61.1437 5.29413 61.1149 5.35172 61.075 5.39824C61.0352 5.44697 60.9909 5.48463 60.9377 5.51343C60.8845 5.54223 60.8292 5.56216 60.7671 5.56881C60.7051 5.57545 60.6431 5.57102 60.5811 5.5533C60.519 5.53558 60.4614 5.50678 60.4149 5.46691C60.3662 5.42704 60.3285 5.38273 60.2997 5.32957C60.2709 5.2764 60.2532 5.22103 60.2444 5.159C60.2377 5.09698 60.2421 5.03495 60.2599 4.97292L60.2576 4.97514ZM57.2827 4.27293C57.2959 4.20869 57.3203 4.15109 57.3558 4.10014C57.3912 4.04919 57.4355 4.00711 57.4842 3.97388C57.533 3.94065 57.5906 3.91628 57.6504 3.90299C57.7102 3.8897 57.7744 3.8897 57.8387 3.90299C57.9029 3.91628 57.9605 3.94065 58.0092 3.97609C58.0602 4.01154 58.1001 4.05584 58.1333 4.10457C58.1665 4.15552 58.1887 4.2109 58.202 4.27071C58.2152 4.33052 58.2152 4.39476 58.202 4.459C58.1887 4.52324 58.1643 4.58084 58.1289 4.63179C58.0934 4.68274 58.0513 4.72482 58.0004 4.75805C57.9494 4.79128 57.8963 4.81343 57.8365 4.82672C57.7766 4.84001 57.7146 4.84001 57.6504 4.82672C57.5861 4.81343 57.5285 4.78906 57.4776 4.75584C57.4266 4.72261 57.3846 4.67831 57.3513 4.62736C57.3181 4.57641 57.2937 4.52103 57.2804 4.46122C57.2671 4.40141 57.2671 4.33717 57.2804 4.27293H57.2827ZM56.1861 4.05362C56.1994 3.98938 56.2238 3.93179 56.257 3.88084C56.2925 3.82989 56.3346 3.7878 56.3855 3.75457C56.4365 3.72135 56.4918 3.69698 56.5516 3.68369C56.6115 3.6704 56.6757 3.6704 56.7399 3.68369C56.8042 3.69698 56.8618 3.72135 56.9127 3.75679C56.9637 3.79223 57.0058 3.83654 57.039 3.88527C57.0722 3.93622 57.0944 3.9916 57.1077 4.05141C57.1209 4.11122 57.1209 4.17546 57.1077 4.2397C57.0944 4.30394 57.07 4.36153 57.0368 4.41248C57.0013 4.46343 56.9592 4.50552 56.9083 4.53875C56.8573 4.57198 56.802 4.59413 56.7422 4.60742C56.6823 4.62071 56.6181 4.62071 56.5539 4.60742C56.4896 4.59413 56.432 4.56976 56.3811 4.53653C56.3301 4.50331 56.288 4.459 56.2548 4.40805C56.2216 4.3571 56.1994 4.30172 56.1861 4.24191C56.1729 4.1821 56.1729 4.11786 56.1861 4.05362ZM61.0839 10.739C61.0618 10.8011 61.0307 10.8542 60.9864 10.9008C60.9421 10.9473 60.8956 10.9827 60.8402 11.0071C60.7849 11.0315 60.7273 11.0492 60.6652 11.0514C60.6032 11.0536 60.5412 11.047 60.4792 11.0248C60.4171 11.0027 60.364 10.9716 60.3175 10.9296C60.2709 10.8875 60.2355 10.8387 60.2089 10.7856C60.1823 10.7324 60.169 10.6726 60.1646 10.6106C60.1602 10.5485 60.169 10.4865 60.1912 10.4245C60.2133 10.3625 60.2444 10.3093 60.2864 10.2628C60.3285 10.2163 60.3773 10.1808 60.4304 10.1542C60.4836 10.1277 60.5434 10.1121 60.6054 10.1099C60.6675 10.1055 60.7295 10.1144 60.7915 10.1365C60.8535 10.1587 60.9067 10.1897 60.9532 10.2318C60.9997 10.2739 61.0352 10.3204 61.0618 10.3758C61.0883 10.4289 61.1038 10.4887 61.1083 10.5508C61.1127 10.6128 61.1061 10.6748 61.0839 10.7368V10.739ZM62.1383 11.109C62.1162 11.171 62.0852 11.2242 62.0431 11.2707C62.001 11.3172 61.9523 11.3527 61.8991 11.3792C61.8459 11.4058 61.7861 11.4213 61.7241 11.4235C61.6621 11.4258 61.6 11.4191 61.538 11.397C61.476 11.3748 61.4228 11.3438 61.3763 11.3017C61.3298 11.2596 61.2944 11.2109 61.2678 11.1577C61.2412 11.1046 61.2257 11.0447 61.2235 10.9827C61.2213 10.9207 61.2279 10.8587 61.2501 10.7966C61.2722 10.7346 61.3032 10.6815 61.3453 10.6349C61.3874 10.5884 61.4339 10.553 61.4893 10.5264C61.5425 10.4998 61.6023 10.4843 61.6643 10.4821C61.7263 10.4777 61.7883 10.4865 61.8504 10.5087C61.9124 10.5308 61.9656 10.5618 62.0121 10.6039C62.0586 10.646 62.094 10.6925 62.1206 10.7479C62.1472 10.8011 62.1627 10.8609 62.1649 10.9229C62.1671 10.9849 62.1605 11.047 62.1383 11.109ZM80.2607 19.2188C80.181 19.4181 80.0614 19.5954 79.9019 19.7504L79.3392 20.3042C79.2085 20.4327 79.069 20.5257 78.9161 20.5855C78.7655 20.6453 78.6126 20.6741 78.4598 20.6697C78.307 20.6653 78.1585 20.6298 78.0145 20.5678C77.8706 20.5036 77.7399 20.4128 77.6225 20.2931L75.713 18.3526L74.9111 17.6083C74.869 17.5707 74.8269 17.5352 74.7826 17.502L70.6712 14.4827L68.8503 13.2865C68.7706 13.2333 68.6864 13.1868 68.5978 13.1447L64.3602 11.0979L63.0621 10.553L60.8336 9.76215L58.645 9.11532C58.6184 9.10867 58.5918 9.09981 58.5653 9.09538L57.0346 8.75646L57.42 6.84032C57.4399 6.74286 57.4399 6.6476 57.42 6.55235C57.4001 6.4571 57.3646 6.37071 57.3137 6.29317C57.2627 6.21564 57.1985 6.14697 57.1209 6.09159C57.0434 6.03621 56.9548 5.99855 56.8573 5.97862C56.7599 5.95868 56.6646 5.95868 56.5716 5.97862C56.4785 5.99855 56.3944 6.03621 56.3168 6.09159C56.2393 6.14476 56.1751 6.21343 56.1197 6.2976C56.0643 6.38178 56.0267 6.4726 56.0067 6.5745L55.8627 7.29665C55.8472 7.36975 55.8627 7.43842 55.9026 7.50045C55.9425 7.56247 56.0023 7.60013 56.0776 7.61564L56.6137 7.72418L56.4298 8.63462L55.8937 8.52608C55.732 8.49285 55.5858 8.43304 55.4551 8.34222C55.3244 8.2514 55.2159 8.14285 55.1317 8.01437C55.0453 7.88811 54.9855 7.74633 54.9523 7.59127C54.9191 7.43621 54.9191 7.27671 54.9523 7.11501L55.0963 6.39286C55.1428 6.16469 55.227 5.95868 55.351 5.77482C55.4751 5.59096 55.6257 5.44033 55.8029 5.32071C55.9801 5.20109 56.1751 5.11913 56.3877 5.07039C56.6004 5.02166 56.8197 5.02166 57.0412 5.06596C57.2627 5.11027 57.4621 5.19666 57.6437 5.32514C57.8232 5.45362 57.9716 5.60647 58.089 5.78368C58.2064 5.9609 58.2861 6.15805 58.3304 6.37292C58.3747 6.58779 58.3747 6.80488 58.3282 7.02197L58.1266 8.02545L58.6295 8.16279L59.5466 8.42418L60.2842 5.83685L61.177 6.09159L60.4393 8.67893L61.0839 8.88937L61.8548 9.14411L62.7431 6.6033L63.6203 6.90899L62.732 9.44981L63.3722 9.67354L64.7102 10.2008L65.0402 10.3359L66.8124 6.76501L67.6453 7.17703L66.8678 8.74538C67.1203 8.71658 67.3772 8.72101 67.6342 8.75646C67.8934 8.7919 68.1304 8.865 68.3475 8.97355C68.5336 9.06658 68.6997 9.18177 68.8393 9.31911C68.981 9.45646 69.0852 9.61816 69.1516 9.80202C69.2181 9.98588 69.2424 10.1919 69.2203 10.4223C69.1981 10.6504 69.1184 10.9052 68.981 11.1843L68.538 12.0748L69.1405 12.3739L69.8361 12.7637L71.1874 10.5552L71.9804 11.0403L70.5959 13.3064L71.1541 13.6897L71.9006 14.177L73.5155 12.0239L74.2554 12.5799L72.6405 14.733L73.0924 15.0719L74.7073 12.9188L75.4494 13.477L73.8345 15.6302L74.2886 15.9713L75.9035 13.8182L76.6456 14.3764L75.0307 16.5295L75.3829 16.7931C75.4073 16.8109 75.4294 16.8308 75.4516 16.8507L76.3753 17.7058L76.8494 18.1887L77.6047 17.4444C77.7709 17.2805 77.9547 17.1586 78.1563 17.0811C78.3579 17.0014 78.5617 16.9637 78.7699 16.9681C78.9782 16.9704 79.1797 17.0147 79.3769 17.0966C79.574 17.1786 79.7513 17.3004 79.9085 17.4621C80.068 17.6238 80.1854 17.8033 80.2652 18.0026C80.3449 18.202 80.3826 18.4058 80.3848 18.614C80.3848 18.8223 80.3449 19.0238 80.263 19.2232L80.2607 19.2188ZM80.5576 17.615C80.5111 17.5685 80.4778 17.5153 80.4557 17.4577C80.4335 17.4001 80.4225 17.3403 80.4225 17.2805C80.4225 17.2207 80.4335 17.1609 80.4579 17.1033C80.48 17.0457 80.5155 16.9925 80.562 16.946C80.6085 16.8995 80.6617 16.8662 80.7193 16.8441C80.7769 16.8219 80.8367 16.8109 80.8965 16.8131C80.9563 16.8153 81.0161 16.8242 81.0737 16.8485C81.1313 16.8707 81.1845 16.9061 81.231 16.9526C81.2775 16.9992 81.3107 17.0523 81.3329 17.1099C81.355 17.1675 81.3661 17.2273 81.3639 17.2871C81.3639 17.3469 81.3506 17.4067 81.3285 17.4643C81.3041 17.5219 81.2687 17.5729 81.2221 17.6194C81.1756 17.6659 81.1225 17.6992 81.0649 17.7235C81.0073 17.7457 80.9474 17.7567 80.8876 17.7567C80.8278 17.7567 80.768 17.7435 80.7126 17.7213C80.655 17.6969 80.6041 17.6615 80.5576 17.615ZM86.1155 34.8159C85.9604 34.3883 85.9781 33.9852 86.1642 33.6042L85.781 32.5453C85.7677 32.5099 85.7544 32.4744 85.7367 32.4412L83.9136 28.7064L83.4927 27.889C83.4573 27.8203 83.4174 27.7539 83.3753 27.6896L82.6753 26.6374L81.7427 25.3349L83.3332 24.1963C83.4152 24.1387 83.4794 24.0678 83.5303 23.9858C83.5813 23.9039 83.6145 23.8175 83.63 23.7244C83.6455 23.6314 83.6455 23.5384 83.6256 23.4453C83.6057 23.3523 83.568 23.2637 83.5104 23.1839C83.4528 23.102 83.3819 23.0377 83.3 22.989C83.218 22.9403 83.1294 22.9093 83.0364 22.8982C82.9433 22.8849 82.8481 22.8915 82.7528 22.9137C82.6554 22.9358 82.5645 22.9779 82.4804 23.04L81.8823 23.4675C81.8202 23.5118 81.7848 23.5694 81.7715 23.6425C81.7604 23.7156 81.7759 23.7843 81.8224 23.8463L82.1414 24.2893L81.3861 24.8298L81.0671 24.3868C80.9718 24.2517 80.9054 24.1077 80.8721 23.9526C80.8389 23.7976 80.8345 23.6447 80.8588 23.4919C80.8832 23.339 80.9364 23.1972 81.0183 23.0599C81.1003 22.9248 81.2066 22.8074 81.3418 22.7121L81.9399 22.2846C82.1304 22.1495 82.3319 22.0564 82.549 22.0077C82.7661 21.9589 82.9788 21.9501 83.1892 21.9833C83.3997 22.0165 83.599 22.0874 83.7873 22.2004C83.9756 22.3112 84.1351 22.4596 84.268 22.6434C84.3987 22.8273 84.4873 23.0267 84.5316 23.2438C84.5759 23.4608 84.5803 23.6735 84.5427 23.8817C84.5072 24.0922 84.4319 24.2893 84.3167 24.4776C84.2016 24.6659 84.0554 24.8232 83.8715 24.9517L83.0408 25.5475L83.4351 26.0991L84.206 27.3064L84.7531 28.3077L85.2759 29.3931C85.3335 29.2868 85.3978 29.1849 85.4686 29.0874C85.5395 28.9899 85.6215 28.8925 85.7123 28.795H85.7101C85.7921 28.7108 85.8829 28.6311 85.9804 28.5602C86.0778 28.4893 86.1797 28.4251 86.286 28.3741C86.45 28.2944 86.6161 28.2456 86.7867 28.2235C86.9572 28.2013 87.1256 28.2235 87.2917 28.2833C87.4579 28.3431 87.6174 28.4539 87.7702 28.6089C87.9231 28.764 88.0648 28.9789 88.1977 29.2513C88.3307 29.526 88.4104 29.7741 88.437 29.9934C88.4636 30.2127 88.4481 30.4054 88.3927 30.576C88.3373 30.7444 88.2465 30.8884 88.1224 31.0102C87.9984 31.1298 87.8544 31.2317 87.6883 31.3115C87.5864 31.3602 87.4778 31.4001 87.3648 31.4311C87.2519 31.4599 87.1389 31.4842 87.0259 31.4975C86.8974 31.5152 86.769 31.5197 86.6427 31.5152C86.5164 31.5086 86.3968 31.4975 86.2816 31.4776L86.605 32.12C86.6272 32.1643 86.6471 32.2086 86.6626 32.2551L86.8731 32.8399C86.9152 32.8133 86.9572 32.7934 86.9993 32.7757C87.0414 32.758 87.0857 32.7425 87.13 32.727L87.8322 32.4722C88.0471 32.3947 88.2642 32.3615 88.4813 32.3725C88.7006 32.3836 88.9044 32.4323 89.0993 32.5209C89.292 32.6096 89.4626 32.7292 89.6132 32.8842C89.7617 33.0393 89.8746 33.2232 89.9522 33.4358C90.0297 33.6485 90.0585 33.8633 90.0408 34.0804C90.0231 34.2975 89.9677 34.5013 89.8724 34.6918C89.7794 34.8823 89.6531 35.0529 89.4936 35.2013C89.3341 35.3497 89.1503 35.4605 88.942 35.5358L88.2376 35.7906C88.0272 35.8659 87.8145 35.8991 87.5974 35.888C87.3803 35.8769 87.1743 35.826 86.9794 35.7396C86.7845 35.6532 86.6117 35.5314 86.461 35.3763C86.3104 35.2212 86.1952 35.0374 86.1177 34.8247L86.1155 34.8159ZM87.7525 40.4203C87.7392 40.4801 87.717 40.5355 87.6838 40.5864C87.6506 40.6374 87.6085 40.6795 87.5598 40.7149C87.5088 40.7503 87.4534 40.7747 87.3892 40.788C87.325 40.8013 87.2629 40.8013 87.2009 40.788C87.1411 40.7747 87.0835 40.7526 87.0348 40.7193C86.9838 40.6861 86.9417 40.644 86.9041 40.5931C86.8686 40.5421 86.8421 40.4845 86.8288 40.4203C86.8155 40.356 86.8155 40.294 86.8288 40.232C86.8421 40.17 86.8664 40.1146 86.8974 40.0659C86.9307 40.0149 86.9727 39.9728 87.0237 39.9374C87.0746 39.9019 87.1322 39.8776 87.1965 39.8643C87.2607 39.851 87.3227 39.851 87.3826 39.8643C87.4424 39.8776 87.4977 39.8997 87.5465 39.9329C87.5974 39.9662 87.6395 40.0083 87.675 40.0592C87.7104 40.1102 87.7348 40.1678 87.7481 40.232C87.7614 40.2962 87.7614 40.3583 87.7481 40.4203H87.7525ZM88.4924 37.7643L88.6142 38.1985L89.0905 40.3804C89.106 40.4579 89.1458 40.52 89.2079 40.5643C89.2699 40.6086 89.3386 40.6219 89.4117 40.6086L90.125 40.4624C90.2712 40.4314 90.3908 40.3871 90.4794 40.325C90.568 40.2652 90.6344 40.1943 90.6787 40.1168C90.7231 40.0393 90.7474 39.9551 90.7518 39.8665C90.7563 39.7779 90.7518 39.6915 90.7319 39.6029C90.712 39.5076 90.681 39.4079 90.6367 39.306C90.5924 39.2042 90.5458 39.1045 90.4949 39.007C90.4439 38.9095 90.3908 38.8209 90.3376 38.7412C90.2844 38.6592 90.2357 38.5928 90.1958 38.5374L90.9357 37.9792C90.9867 38.0478 91.0465 38.1364 91.1174 38.245C91.186 38.3535 91.2547 38.4709 91.3234 38.5994C91.392 38.7279 91.4541 38.863 91.5117 39.0026C91.5692 39.1421 91.6113 39.2795 91.6401 39.4124C91.6822 39.614 91.6977 39.8178 91.6889 40.0193C91.68 40.2231 91.6291 40.4114 91.5338 40.5886C91.4408 40.7659 91.2946 40.9209 91.0996 41.0583C90.9025 41.1934 90.6389 41.2953 90.3088 41.364L89.5955 41.5102C89.4338 41.5434 89.2743 41.5434 89.1193 41.5102C88.9642 41.4769 88.8224 41.4193 88.6939 41.3329C88.5655 41.2465 88.4569 41.138 88.3639 41.0073C88.2731 40.8766 88.2088 40.7282 88.1756 40.5643L87.7148 38.4466L87.593 38.0124C87.5487 37.8507 87.5354 37.6912 87.5576 37.5339C87.5775 37.3744 87.6262 37.2282 87.7015 37.0931C87.7769 36.958 87.8765 36.8405 88.0006 36.7387C88.1246 36.6368 88.2664 36.5637 88.4259 36.5193L91.9968 35.5137L92.2493 36.4108L88.6784 37.4165C88.6031 37.4386 88.5477 37.4807 88.5123 37.5494C88.4746 37.6159 88.468 37.6867 88.4879 37.7621L88.4924 37.7643Z" fill="#006073"/>
<path d="M71.9468 82.6131L72.9062 84.235L73.1677 84.0533L71.9933 82.582L71.9468 82.6131Z" fill="#006073"/>
<path d="M61.6817 87.2736C61.6662 87.2293 61.6396 87.1983 61.5975 87.1762C61.5577 87.1562 61.5133 87.1518 61.4712 87.1673L61.2607 87.2382L62.3265 90.4355L62.537 90.3646C62.5813 90.3491 62.6124 90.3225 62.6345 90.2804C62.6567 90.2383 62.6589 90.1962 62.6434 90.1541L61.684 87.2736H61.6817Z" fill="#006073"/>
<path d="M78.3712 76.5102C78.3379 76.4791 78.298 76.4636 78.2515 76.4636C78.205 76.4636 78.1673 76.4814 78.1363 76.5146L77.9834 76.6763L80.4274 78.9962L80.5803 78.8345C80.6113 78.8012 80.6268 78.7614 80.6268 78.7148C80.6268 78.6683 80.6091 78.6306 80.5736 78.5974L78.3712 76.5079V76.5102Z" fill="#006073"/>
<path d="M59.0436 89.0662C59.068 89.0263 59.0724 88.9842 59.0614 88.9399L58.8531 88.12C58.842 88.0757 58.8154 88.0403 58.7778 88.0181C58.7379 87.9937 58.6958 87.9893 58.6515 88.0004L58.4365 88.0558L58.7268 89.1991L58.9417 89.1437C58.986 89.1326 59.0215 89.106 59.0436 89.0684V89.0662Z" fill="#006073"/>
<path d="M59.3296 89.9962C59.3186 89.9519 59.292 89.9165 59.2543 89.8943C59.2144 89.8722 59.1723 89.8655 59.128 89.8766L58.9131 89.932L59.2654 91.3235L59.4803 91.2681C59.5246 91.257 59.5601 91.2304 59.5822 91.1928C59.6066 91.1529 59.611 91.1108 59.6 91.0665L59.3296 89.9985V89.9962Z" fill="#006073"/>
<path d="M55.8071 89.2386L56.0065 91.1109L56.3212 91.0555L55.8625 89.2297L55.8071 89.2386Z" fill="#006073"/>
<path d="M86.986 65.3678L86.0177 64.9357C85.9756 64.918 85.9335 64.9158 85.8914 64.9313C85.8493 64.9468 85.8183 64.9778 85.7984 65.0199L85.7075 65.2237L86.9816 65.791L87.0724 65.5871C87.0902 65.545 87.0924 65.5029 87.0769 65.4608C87.0613 65.4187 87.0303 65.3877 86.9882 65.3678H86.986Z" fill="#006073"/>
<path d="M91.6357 49.5935C88.6762 49.1106 85.8674 50.9647 85.0876 53.7957C85.0566 54.0017 85.0278 54.2099 84.9946 54.416C82.1702 71.7653 67.6276 84.3409 50.7745 85.3731C51.0979 85.5481 51.3925 85.7586 51.6539 86.0111C52.0238 86.3655 52.314 86.7886 52.5267 87.276C52.7393 87.7633 52.8457 88.2905 52.8479 88.8554C52.8479 89.3782 52.7748 89.8456 52.6241 90.2598C52.4735 90.6741 52.2697 91.0529 52.0127 91.3984C51.7558 91.744 51.4589 92.0652 51.1267 92.362C50.7922 92.6611 50.4422 92.9535 50.0745 93.2437L47.6909 95.1066L52.8036 95.0978V96.8013C74.3573 94.8851 92.761 78.5858 96.3939 56.2723C96.4382 56.002 96.4759 55.7296 96.5158 55.4593C96.5734 52.6061 94.531 50.0631 91.6379 49.5935H91.6357ZM57.4399 92.5038L56.8197 92.6146C56.7599 92.6256 56.72 92.5991 56.7001 92.537L56.514 91.8105L56.0909 91.8858L56.1684 92.6323C56.1684 92.6987 56.1418 92.7364 56.082 92.7453L55.4618 92.856C55.3975 92.8671 55.3643 92.8405 55.3621 92.7741L55.0564 88.0978C55.0542 88.0336 55.0852 87.9937 55.1494 87.9826L56.051 87.8231C56.1153 87.812 56.1573 87.8364 56.1773 87.8984L57.5064 92.393C57.5263 92.4551 57.5064 92.4927 57.4422 92.5038H57.4399ZM60.4127 91.2434C60.395 91.3586 60.3573 91.4627 60.2997 91.5579C60.2421 91.6532 60.169 91.7374 60.076 91.8082C59.9852 91.8791 59.8811 91.9301 59.7637 91.9589L58.7558 92.2136C58.6937 92.2291 58.6539 92.207 58.6383 92.1427L57.4931 87.6282C57.4776 87.5662 57.4997 87.5263 57.564 87.5108L58.5719 87.256C58.6893 87.2272 58.8045 87.2206 58.9175 87.2405C59.0327 87.2582 59.1368 87.2959 59.232 87.3535C59.3273 87.4111 59.4114 87.4842 59.4823 87.5772C59.5532 87.6681 59.6042 87.7722 59.633 87.8896L59.8035 88.5608C59.8567 88.7668 59.8368 88.9551 59.7459 89.1257C59.6972 89.2143 59.6308 89.294 59.5488 89.3627C59.6573 89.3738 59.7504 89.4025 59.8279 89.4491C59.9076 89.4956 59.9719 89.5576 60.0251 89.6351C60.0782 89.7127 60.1181 89.8035 60.1447 89.9054L60.3972 90.9C60.426 91.0174 60.4326 91.1326 60.4127 91.2456V91.2434ZM63.3766 90.5965C63.3257 90.6962 63.2592 90.7848 63.1728 90.8624C63.0864 90.9399 62.9868 90.9975 62.8716 91.0351L61.8858 91.363C61.8238 91.3829 61.7839 91.363 61.764 91.301L60.2931 86.8817C60.2732 86.8196 60.2931 86.7798 60.3551 86.7598L61.3409 86.432C61.4538 86.3943 61.569 86.381 61.6842 86.3899C61.7994 86.401 61.908 86.4298 62.0076 86.4807C62.1073 86.5317 62.1959 86.5981 62.2735 86.6845C62.351 86.7709 62.4086 86.8706 62.4462 86.9858L63.4276 89.932C63.4652 90.045 63.4785 90.1601 63.4697 90.2753C63.4586 90.3905 63.4298 90.4991 63.3788 90.5965H63.3766ZM66.356 89.7016L64.9649 90.2753C64.9051 90.2997 64.863 90.282 64.8386 90.2222L63.0599 85.9159C63.0355 85.856 63.0532 85.814 63.113 85.7896L64.5042 85.2159C64.564 85.1915 64.6061 85.2092 64.6304 85.269L64.8652 85.8383C64.8896 85.8981 64.8719 85.9402 64.8121 85.9646L64.0811 86.2659L64.4621 87.1896L65.0956 86.9282C65.1554 86.9038 65.1975 86.9215 65.2219 86.9814L65.4567 87.5507C65.481 87.6105 65.4633 87.6526 65.4035 87.6769L64.77 87.9383L65.3127 89.2519L66.0437 88.9506C66.1035 88.9263 66.1456 88.944 66.17 89.0038L66.4048 89.5731C66.4291 89.6329 66.4114 89.675 66.3516 89.6994L66.356 89.7016ZM69.1427 88.3791L68.3032 88.7934L68.2899 88.8H68.2833L67.7295 89.0769C67.6719 89.1057 67.6276 89.0902 67.5988 89.0326L65.5364 84.8548C65.5076 84.7972 65.5231 84.7529 65.5807 84.7241L66.1345 84.4516C66.1921 84.4228 66.2364 84.4383 66.2652 84.4959L68.0108 88.0336L68.7817 87.6526C68.8393 87.6238 68.8836 87.6393 68.9124 87.6969L69.1848 88.2507C69.2136 88.3083 69.1981 88.3526 69.1405 88.3814L69.1427 88.3791ZM71.9893 86.7709L71.4576 87.0833C71.4022 87.1165 71.3579 87.1054 71.3247 87.0478L70.3234 85.3377L69.9291 85.5681L70.9304 87.2782C70.9636 87.3336 70.9526 87.3779 70.895 87.4111L70.3633 87.7234C70.3079 87.7567 70.2636 87.7456 70.2304 87.688L67.8757 83.6697C67.8424 83.6143 67.8535 83.57 67.9111 83.5367L68.4427 83.2244C68.4981 83.1912 68.5424 83.2022 68.5757 83.2598L69.5193 84.8681L69.9136 84.6377L68.97 83.0295C68.9367 82.9741 68.9478 82.9298 69.0054 82.8966L69.5371 82.5842C69.5924 82.551 69.6367 82.5621 69.67 82.6197L72.0247 86.638C72.0579 86.6934 72.0469 86.7377 71.9893 86.7709ZM74.7848 84.9057L74.2665 85.2646C74.2177 85.2978 74.169 85.2912 74.1247 85.2447L73.6551 84.6598L73.3006 84.9035L73.6794 85.5504C73.7082 85.6079 73.6994 85.6545 73.6484 85.6899L73.1301 86.0488C73.0769 86.0864 73.0348 86.0753 73.006 86.0155L70.7908 81.8842C70.762 81.8266 70.7731 81.7779 70.8263 81.7425L71.5794 81.2241C71.6326 81.1864 71.6813 81.1931 71.7257 81.2418L74.7981 84.7817C74.8424 84.8304 74.838 84.8725 74.7848 84.9079V84.9057ZM77.8329 82.5045L77.3168 82.9254C77.2658 82.9652 77.2215 82.9608 77.1794 82.9121L75.7949 81.2152L76.5703 82.8899C76.5769 82.9143 76.5769 82.9298 76.5658 82.9386C76.5548 82.9475 76.5392 82.9453 76.5171 82.9342L75.0329 81.8377L76.4174 83.5345C76.4573 83.5855 76.4529 83.6298 76.4041 83.6719L75.888 84.0928C75.837 84.1326 75.7927 84.1282 75.7506 84.0795L72.8067 80.4687C72.7668 80.4178 72.7712 80.3735 72.82 80.3314L73.2763 79.9592C73.2984 79.9415 73.3228 79.9349 73.3516 79.9371C73.3804 79.9393 73.407 79.9481 73.4291 79.9592L75.4228 81.5364L74.2798 79.2681C74.2731 79.2437 74.2709 79.2171 74.2731 79.1883C74.2753 79.1595 74.2886 79.1352 74.3108 79.1175L74.7671 78.7453C74.818 78.7054 74.8624 78.7099 74.9044 78.7586L77.8484 82.3693C77.8883 82.4203 77.8839 82.4646 77.8351 82.5067L77.8329 82.5045ZM79.4035 81.0602L78.9538 81.4811C78.9073 81.5254 78.8608 81.5231 78.8164 81.4766L75.6332 78.0763C75.5889 78.0298 75.5911 77.9833 75.6377 77.939L76.0873 77.5181C76.1339 77.4738 76.1804 77.476 76.2247 77.5225L79.4079 80.9228C79.4522 80.9693 79.45 81.0159 79.4035 81.0602ZM81.3728 78.9713C81.3329 79.0798 81.2709 79.1773 81.1889 79.2659L80.4734 80.0212C80.4291 80.0678 80.3826 80.07 80.3361 80.0257L76.9579 76.8203C76.9114 76.776 76.9092 76.7295 76.9535 76.683L77.669 75.9276C77.7509 75.8412 77.8462 75.7747 77.9525 75.7282C78.0589 75.6839 78.1674 75.6596 78.2782 75.6551C78.3889 75.6507 78.4997 75.6706 78.6082 75.7105C78.7168 75.7504 78.8142 75.8124 78.9028 75.8944L81.1557 78.032C81.2421 78.114 81.3085 78.2092 81.355 78.3156C81.3994 78.4219 81.4237 78.5304 81.4281 78.6412C81.4326 78.752 81.4126 78.8627 81.3728 78.9713ZM85.1762 74.4191L84.7775 74.9507C84.7376 75.0016 84.6933 75.0083 84.6424 74.9706L82.8902 73.6548L84.0465 75.0947C84.0598 75.1168 84.062 75.1323 84.0531 75.1434C84.0443 75.1545 84.0288 75.1567 84.0044 75.1501L82.2987 74.4412L84.0509 75.757C84.1019 75.7969 84.1085 75.8412 84.0709 75.8922L83.6721 76.4238C83.6323 76.4747 83.5879 76.4814 83.537 76.4437L79.8111 73.646C79.7601 73.6061 79.7535 73.5618 79.7911 73.5108L80.1456 73.039C80.1633 73.0168 80.1854 73.0036 80.2142 72.9991C80.243 72.9947 80.2696 72.9969 80.294 73.0036L82.6066 74.0558L80.9497 72.1286C80.9364 72.1064 80.9275 72.082 80.9231 72.0532C80.9187 72.0244 80.9231 71.9979 80.9408 71.9757L81.2952 71.5039C81.3329 71.4529 81.3794 71.4463 81.4304 71.4839L85.1563 74.2817C85.2073 74.3216 85.2139 74.3659 85.1762 74.4168V74.4191ZM86.8443 71.8672L86.0379 73.1365C86.0025 73.1918 85.9582 73.2007 85.905 73.1675L81.9709 70.671C81.9155 70.6355 81.9066 70.5912 81.9399 70.5381L82.7462 69.2688C82.7816 69.2134 82.8259 69.2045 82.8791 69.2377L83.3997 69.5678C83.455 69.6032 83.4639 69.6475 83.4307 69.7007L83.0076 70.3675L83.8493 70.9013L84.2171 70.321C84.2525 70.2656 84.2968 70.2567 84.35 70.29L84.8705 70.62C84.9259 70.6555 84.9348 70.6998 84.9016 70.7529L84.5338 71.3333L85.7345 72.0953L86.1576 71.4286C86.193 71.3732 86.2373 71.3643 86.2927 71.3975L86.8133 71.7276C86.8686 71.763 86.8775 71.8074 86.8443 71.8605V71.8672ZM88.4968 68.9232L88.2044 69.4659C88.1734 69.5235 88.1291 69.5368 88.0737 69.5058L86.3281 68.5665L86.111 68.9697L87.8566 69.9089C87.9142 69.94 87.9275 69.9843 87.8965 70.0396L87.6041 70.5824C87.5731 70.64 87.5288 70.6532 87.4734 70.6222L83.3731 68.4137C83.3155 68.3827 83.3022 68.3384 83.3332 68.283L83.6256 67.7403C83.6566 67.6827 83.7009 67.6694 83.7563 67.7004L85.3978 68.5843L85.6148 68.1811L83.9734 67.2972C83.9158 67.2662 83.9025 67.2219 83.9335 67.1665L84.2259 66.6238C84.2569 66.5662 84.3012 66.5529 84.3566 66.584L88.4569 68.7925C88.5145 68.8235 88.5278 68.8678 88.4968 68.9232ZM89.9788 65.7311L89.7218 66.3071C89.7107 66.3314 89.6908 66.3536 89.6642 66.3691C89.6376 66.3846 89.6088 66.3912 89.58 66.389L87.8234 66.1609L89.4648 66.8896L89.3984 66.8675C89.436 66.8941 89.4449 66.9317 89.425 66.9783L89.1746 67.5409C89.1481 67.6007 89.106 67.6162 89.0462 67.5896L84.7908 65.6979C84.731 65.6713 84.7155 65.6292 84.7421 65.5694L85.1652 64.6191C85.2139 64.5083 85.2803 64.4153 85.3667 64.3378C85.4531 64.2602 85.5462 64.2004 85.6503 64.1605C85.7544 64.1207 85.8629 64.1007 85.9804 64.1029C86.0955 64.1029 86.2085 64.1295 86.3193 64.1783L87.3515 64.6368C87.5088 64.7055 87.6307 64.8096 87.7193 64.9447C87.8079 65.0798 87.8566 65.2283 87.8677 65.39L89.9234 65.6292C89.9876 65.6425 90.0075 65.6779 89.9832 65.7311H89.9788ZM90.6655 63.9412L90.4484 64.5194C90.4262 64.5792 90.3841 64.5991 90.3243 64.577L85.9604 62.9444C85.9006 62.9223 85.8807 62.8802 85.9028 62.8204L86.1199 62.2422C86.1421 62.1824 86.1841 62.1624 86.244 62.1846L90.6079 63.8172C90.6677 63.8393 90.6876 63.8814 90.6655 63.9412ZM94.1699 55.909C93.8575 57.8251 92.0477 59.1299 90.1338 58.8175C88.2199 58.5052 86.9174 56.6954 87.2297 54.7792C87.5421 52.8631 89.3519 51.5584 91.2658 51.8707C93.1797 52.183 94.4822 53.9929 94.1699 55.909Z" fill="#006073"/>
<path d="M21.7116 79.1684C21.6762 79.1374 21.6363 79.1241 21.592 79.1285C21.5454 79.1307 21.5078 79.1507 21.479 79.1839L19.4294 81.5282C19.3984 81.5636 19.3851 81.6035 19.3895 81.6478C19.3917 81.6921 19.4117 81.732 19.4449 81.7608L19.487 81.7963C19.5224 81.8273 19.5623 81.8406 19.6066 81.8362C19.651 81.834 19.6908 81.814 19.7196 81.7808L21.7692 79.4365C21.8002 79.4011 21.8135 79.3612 21.8091 79.3169C21.8069 79.2725 21.7869 79.2327 21.7537 79.2039L21.7116 79.1684Z" fill="#006073"/>
<path d="M11.1713 67.9664C11.2134 67.9797 11.2577 67.9774 11.2976 67.9553L12.2349 67.4722C12.2748 67.4501 12.3036 67.4191 12.3169 67.3747C12.3302 67.3304 12.3279 67.2883 12.3058 67.2484L12.2039 67.0535L10.9741 67.6894L11.076 67.8844C11.0982 67.9243 11.1292 67.9531 11.1735 67.9664H11.1713Z" fill="#006073"/>
<path d="M49.9613 87.5662C49.7885 87.4045 49.5892 87.2782 49.361 87.1896C49.1329 87.101 48.887 87.0567 48.6234 87.0567C48.311 87.0567 48.0319 87.1077 47.7905 87.2051C47.549 87.3048 47.3452 87.4444 47.1791 87.626C47.0129 87.8077 46.8867 88.0247 46.798 88.2751C46.7094 88.5276 46.6651 88.8067 46.6651 89.1124C46.6651 89.3029 46.705 89.4868 46.7803 89.664C46.8291 89.7792 46.8955 89.8855 46.9708 89.9874L45.1477 91.4118C45.0015 91.2279 44.8686 91.0352 44.7667 90.827C44.4743 90.2377 44.3281 89.5975 44.3259 88.902C44.3259 88.2817 44.4477 87.7235 44.6914 87.2251C44.9373 86.7267 45.2629 86.3058 45.6705 85.958C45.9363 85.732 46.231 85.5437 46.5499 85.3843C45.2319 85.3134 43.905 85.1738 42.5737 84.9567C24.6484 82.0393 11.8181 66.6084 11.5523 49.0486C9.6738 50.3689 7.30356 50.9869 4.86464 50.5904C2.95958 50.2802 1.29155 49.3942 0.00231548 48.1404C-0.172684 71.6346 16.8244 92.464 40.7196 96.3538C42.0288 96.5665 43.3357 96.7238 44.636 96.8279C44.5253 96.7216 44.43 96.5975 44.3547 96.4535C44.2462 96.2519 44.193 96.0061 44.193 95.7159C44.193 95.5254 44.2196 95.357 44.2705 95.2086C44.3215 95.0624 44.3946 94.9273 44.4854 94.8076C44.5762 94.688 44.6825 94.5773 44.8022 94.4754C44.9218 94.3735 45.0481 94.2738 45.1832 94.1763L45.367 94.039H45.3582L49.4053 90.8447C49.5515 90.7273 49.6911 90.5944 49.824 90.4437C49.9547 90.2931 50.0743 90.1336 50.1784 89.963C50.2825 89.7947 50.3645 89.6175 50.4265 89.4336C50.4885 89.2497 50.5173 89.0615 50.5173 88.871C50.5173 88.6073 50.4664 88.3637 50.3689 88.1399C50.2692 87.9162 50.1341 87.7235 49.9635 87.5596L49.9613 87.5662ZM4.43711 56.6954C4.37287 56.6002 4.333 56.4916 4.31085 56.3742L4.26654 56.1173C4.24661 55.9998 4.24882 55.8847 4.27762 55.7739C4.30642 55.6631 4.35072 55.5612 4.41274 55.4704C4.47698 55.3796 4.55673 55.3043 4.65198 55.24C4.74724 55.1758 4.85578 55.1359 4.97319 55.1138L8.82096 54.447C8.8852 54.4359 8.92064 54.4625 8.93172 54.5268L9.03583 55.1315C9.04691 55.1957 9.02032 55.2312 8.9583 55.2423L5.14597 55.9024C5.10167 55.9112 5.06401 55.9334 5.03964 55.9688C5.01306 56.0065 5.0042 56.0464 5.01306 56.0929L5.02192 56.1483C5.03078 56.1926 5.05293 56.228 5.08837 56.2546C5.12603 56.2812 5.16591 56.29 5.21243 56.2812L9.02475 55.6211C9.08899 55.61 9.12444 55.6366 9.13551 55.7008L9.23963 56.3055C9.2507 56.3698 9.22412 56.4052 9.1621 56.4163L5.31432 57.0831C5.19692 57.103 5.08173 57.1008 4.97097 57.072C4.858 57.0454 4.75831 56.9989 4.66749 56.9347C4.57667 56.8704 4.50135 56.7907 4.43711 56.6954ZM5.20135 60.2109L5.09724 59.7834C5.09059 59.7568 5.0928 59.728 5.1061 59.6992C5.11717 59.6704 5.13489 59.6483 5.15483 59.635L7.19501 58.3834L4.98869 58.9239C4.92667 58.9394 4.88679 58.915 4.87129 58.853L4.72508 58.2571C4.70958 58.1951 4.73395 58.1552 4.79597 58.1397L9.29058 57.0388C9.3526 57.0233 9.39248 57.0476 9.40798 57.1097L9.51652 57.5505C9.52317 57.5771 9.52096 57.6059 9.50766 57.6347C9.49659 57.6634 9.47887 57.6856 9.45893 57.6989L7.48299 58.9195L9.62285 58.3945C9.68488 58.379 9.72475 58.4033 9.74026 58.4653L9.88646 59.0612C9.90197 59.1233 9.8776 59.1631 9.81557 59.1786L5.32097 60.2796C5.25894 60.2951 5.21907 60.2707 5.20356 60.2087L5.20135 60.2109ZM5.71527 61.9388L5.53584 61.3517C5.5159 61.2897 5.53806 61.2498 5.60008 61.2321L10.026 59.8809C10.088 59.8631 10.1279 59.8831 10.1456 59.9451L10.3251 60.5321C10.345 60.5941 10.3229 60.634 10.2608 60.6517L5.83489 62.003C5.77287 62.0207 5.73299 62.0008 5.71527 61.9388ZM6.48616 64.1872L6.27793 63.6179C6.25578 63.5581 6.2735 63.5115 6.33109 63.4805L10.3982 61.1302C10.4558 61.0992 10.4956 61.1147 10.5178 61.1745L10.7725 61.8723C10.7925 61.9277 10.7725 61.972 10.7172 62.003L8.07223 63.2701L8.08109 63.2967L10.921 62.5612C10.9852 62.5479 11.0273 62.5701 11.0472 62.6255L11.302 63.3232C11.3241 63.3831 11.302 63.4207 11.2399 63.434L6.61464 64.258C6.5504 64.2713 6.50831 64.247 6.48616 64.1872ZM7.74438 67.233L7.14406 65.8641C7.11748 65.8042 7.1352 65.7622 7.1928 65.7378L11.4304 63.877C11.4903 63.8505 11.5323 63.8682 11.5567 63.9258L12.157 65.2948C12.1836 65.3546 12.1659 65.3967 12.1083 65.421L11.5478 65.6669C11.488 65.6935 11.4459 65.6758 11.4216 65.6182L11.107 64.9005L10.1988 65.2992L10.4735 65.9239C10.5001 65.9837 10.4823 66.0258 10.4248 66.0501L9.86431 66.296C9.8045 66.3226 9.76241 66.3049 9.73804 66.2473L9.46336 65.6226L8.17191 66.1897L8.48647 66.9096C8.51305 66.9694 8.49533 67.0115 8.43773 67.0359L7.87729 67.2818C7.81748 67.3084 7.77539 67.2906 7.75102 67.233H7.74438ZM9.15102 70.0441L8.86305 69.4881C8.84975 69.4637 8.84532 69.4349 8.85197 69.4039C8.8564 69.3729 8.86969 69.3463 8.88963 69.3264L10.1567 68.1058L8.57286 68.9254L8.63045 68.8878C8.58615 68.9011 8.5507 68.8856 8.52855 68.8391L8.24722 68.2941C8.21843 68.2365 8.23172 68.1944 8.28931 68.1634L12.4007 66.0391C12.4583 66.0103 12.5004 66.0236 12.5314 66.0811L13.0054 66.9982C13.0608 67.1046 13.0918 67.2153 13.0985 67.3305C13.1051 67.4457 13.094 67.5542 13.0608 67.6606C13.0276 67.7647 12.9744 67.8622 12.9013 67.953C12.8282 68.0416 12.7396 68.1147 12.6333 68.1701L11.6365 68.6862C11.4858 68.7637 11.3308 68.7947 11.1691 68.7792C11.0096 68.7637 10.8634 68.7106 10.7327 68.6175L9.27064 70.064C9.21969 70.1061 9.17982 70.0995 9.15323 70.0463L9.15102 70.0441ZM10.6285 72.1463C10.5222 72.1197 10.4203 72.0732 10.3273 72.0068C10.2342 71.9403 10.1567 71.8561 10.0947 71.7542L9.95956 71.5305C9.89754 71.4286 9.85988 71.3201 9.84437 71.2071C9.82887 71.0919 9.83551 70.9834 9.86209 70.8748C9.88868 70.7685 9.93519 70.6666 10.0016 70.5735C10.0681 70.4805 10.1523 70.403 10.2542 70.3409L10.8213 69.9998C10.8766 69.9666 10.9276 69.971 10.9741 70.0131L11.4393 70.465C11.4858 70.5071 11.4814 70.5447 11.426 70.578L10.6994 71.0144C10.6596 71.0387 10.6352 71.072 10.6241 71.1163C10.613 71.1606 10.6197 71.2027 10.6441 71.2403L10.6729 71.2868C10.6972 71.3267 10.7304 71.3511 10.7747 71.3621C10.8191 71.3732 10.8611 71.3666 10.901 71.3422L11.6808 70.8726C11.7295 70.8371 11.7694 70.8039 11.8026 70.7663C11.8358 70.7308 11.8558 70.6865 11.8668 70.6311L11.9931 69.5191C12.013 69.4261 12.0418 69.3508 12.0817 69.2932C12.1216 69.2334 12.1858 69.178 12.2766 69.1226L12.9855 68.6973C13.0874 68.6353 13.1959 68.5976 13.3111 68.5821C13.4263 68.5666 13.5349 68.5732 13.6434 68.5998C13.7497 68.6264 13.8516 68.6729 13.9447 68.7394C14.0377 68.8058 14.1152 68.89 14.1773 68.9919L14.3124 69.2156C14.3744 69.3175 14.4121 69.4261 14.4276 69.5413C14.4431 69.6565 14.4364 69.765 14.4099 69.8735C14.3833 69.9799 14.3368 70.0818 14.2703 70.1748C14.2039 70.2678 14.1197 70.3454 14.0178 70.4074L13.794 70.5425C13.7387 70.5758 13.6877 70.5713 13.6412 70.5292L13.176 70.0773C13.1295 70.0352 13.1339 69.9976 13.1893 69.9644L13.5725 69.734C13.6124 69.7096 13.6368 69.6764 13.6478 69.6321C13.6589 69.5878 13.6523 69.5457 13.6279 69.5058L13.5991 69.4593C13.5747 69.4194 13.5415 69.3951 13.4972 69.384C13.4529 69.3729 13.4108 69.3796 13.3732 69.4039L12.8371 69.7273C12.7972 69.7561 12.764 69.7871 12.7396 69.8182C12.7152 69.8492 12.6975 69.889 12.6842 69.94L12.5713 71.0609C12.5535 71.1561 12.5225 71.2314 12.476 71.2824C12.4295 71.3356 12.3741 71.3865 12.3077 71.4352L11.2931 72.0466C11.1912 72.1087 11.0827 72.1463 10.9675 72.1618C10.8523 72.1773 10.7437 72.1707 10.6352 72.1441L10.6285 72.1463ZM11.4615 73.79L11.1203 73.2805C11.0849 73.2273 11.0937 73.183 11.1469 73.1476L14.9858 70.5647C15.039 70.5292 15.0833 70.5381 15.1187 70.5913L15.4599 71.1008C15.4953 71.1539 15.4864 71.1982 15.4333 71.2337L11.5944 73.8166C11.5412 73.852 11.4969 73.8431 11.4615 73.79ZM12.7596 75.5931L12.3918 75.1014C12.3785 75.0837 12.3719 75.0593 12.3741 75.0327C12.3763 75.0061 12.3896 74.984 12.4096 74.9662L15.5485 72.6204L15.2605 72.2349C15.2228 72.184 15.2295 72.1375 15.2804 72.0998L15.7722 71.7321C15.8231 71.6944 15.8697 71.7011 15.9073 71.752L16.9706 73.1742C17.0083 73.2251 17.0016 73.2716 16.9507 73.3093L16.4589 73.677C16.408 73.7147 16.3614 73.708 16.3238 73.6571L16.0314 73.265L12.8925 75.6109C12.8415 75.6485 12.795 75.6419 12.7573 75.5909L12.7596 75.5931ZM16.3637 76.5191L15.9228 75.9985L14.844 76.909L15.3513 77.5093C15.3934 77.558 15.389 77.6045 15.3402 77.6444L14.8728 78.0387C14.8241 78.0808 14.7776 78.0764 14.7377 78.0276L13.7741 76.8868C13.732 76.8381 13.7364 76.7916 13.7852 76.7517L17.3206 73.7656C17.3693 73.7235 17.4159 73.728 17.4557 73.7767L18.4193 74.9175C18.4614 74.9662 18.457 75.0128 18.4083 75.0526L17.9409 75.4469C17.8921 75.489 17.8456 75.4846 17.8057 75.4359L17.2985 74.8355L16.5409 75.4757L16.9817 75.9963C17.0238 76.045 17.0194 76.0916 16.9706 76.1314L16.5032 76.5257C16.4545 76.5678 16.408 76.5634 16.3681 76.5147L16.3637 76.5191ZM17.9276 80.6681C17.8212 80.7102 17.7127 80.7324 17.6019 80.7324C17.4912 80.7324 17.3826 80.7124 17.2763 80.6703C17.17 80.6283 17.0725 80.5662 16.9883 80.4821L16.8023 80.2982C16.7181 80.214 16.6538 80.1188 16.6118 80.0124C16.5697 79.9061 16.5475 79.7976 16.5475 79.6868C16.5475 79.576 16.5675 79.4675 16.6095 79.3612C16.6516 79.2548 16.7137 79.1574 16.7978 79.0732L19.0396 76.8159C19.1238 76.7317 19.219 76.6675 19.3254 76.6254C19.4317 76.5833 19.5402 76.5612 19.651 76.5612C19.7617 76.5612 19.8703 76.5811 19.9766 76.6232C20.0829 76.6653 20.1804 76.7273 20.2646 76.8115L20.4507 76.9954C20.5348 77.0795 20.5991 77.1748 20.6412 77.2811C20.6833 77.3874 20.7054 77.496 20.7054 77.6067C20.7054 77.7175 20.6855 77.826 20.6434 77.9324C20.6013 78.0387 20.5393 78.1362 20.4551 78.2203L20.0674 78.6102C20.0231 78.6567 19.9722 78.6634 19.9168 78.6346L19.4051 78.2624C19.3497 78.2336 19.3453 78.196 19.3896 78.1495L19.8592 77.6754C19.8924 77.6422 19.9079 77.6045 19.9079 77.558C19.9079 77.5115 19.8924 77.4738 19.8592 77.4406L19.8193 77.4007C19.7861 77.3675 19.7485 77.352 19.7019 77.352C19.6554 77.352 19.6178 77.3697 19.5845 77.4007L17.3915 79.6093C17.3583 79.6425 17.3428 79.6802 17.3428 79.7267C17.3428 79.7732 17.3583 79.8109 17.3915 79.8441L17.4314 79.884C17.4646 79.9172 17.5023 79.9327 17.5488 79.9327C17.5931 79.9327 17.633 79.9172 17.6662 79.884L18.3462 79.1995C18.3905 79.1529 18.4282 79.1596 18.4592 79.2128L18.8447 79.7134C18.8735 79.7688 18.8668 79.8197 18.8203 79.864L18.2133 80.4754C18.1292 80.5596 18.0339 80.6238 17.9276 80.6659V80.6681ZM20.0231 82.5422C19.919 82.5909 19.8127 82.6197 19.7019 82.6264C19.5912 82.633 19.4826 82.6197 19.3719 82.5843C19.2611 82.5488 19.1614 82.4934 19.0728 82.4137L18.8757 82.2409C18.7848 82.1612 18.7162 82.0703 18.6674 81.9662C18.6187 81.8621 18.5899 81.7558 18.5833 81.645C18.5766 81.5343 18.5899 81.4257 18.6254 81.315C18.6608 81.2064 18.7162 81.1067 18.7959 81.0159L20.8915 78.6213C20.969 78.5327 21.0621 78.4618 21.1662 78.4131C21.2703 78.3643 21.3766 78.3355 21.4874 78.3289C21.5981 78.3223 21.7067 78.3355 21.8174 78.371C21.926 78.4064 22.0279 78.4618 22.1165 78.5416L22.3136 78.7143C22.4045 78.7919 22.4731 78.8849 22.5219 78.989C22.5706 79.0931 22.5994 79.1995 22.606 79.3102C22.6127 79.421 22.5994 79.5295 22.564 79.6403C22.5285 79.751 22.4731 79.8507 22.3934 79.9393L20.2978 82.3339C20.2181 82.4248 20.1273 82.4934 20.0231 82.5422ZM22.1785 84.8393L21.8285 84.5713C21.8064 84.5536 21.7909 84.5314 21.782 84.5004C21.7731 84.4716 21.7709 84.4428 21.7776 84.4207L22.5772 82.1656L21.2016 83.9732C21.1617 84.0241 21.1174 84.0308 21.0665 83.9909L20.5791 83.6188C20.5282 83.5789 20.5216 83.5346 20.5614 83.4836L23.3636 79.802C23.4035 79.751 23.4478 79.7444 23.4988 79.7843L23.8598 80.059C23.882 80.0767 23.8975 80.0988 23.9064 80.1276C23.9152 80.1586 23.9174 80.1852 23.9108 80.2074L23.1421 82.4004L24.4779 80.6482C24.5177 80.5972 24.562 80.5906 24.613 80.6305L25.1003 81.0026C25.1513 81.0425 25.1579 81.0868 25.1181 81.1377L22.3159 84.8194C22.276 84.8703 22.2317 84.877 22.1807 84.8371L22.1785 84.8393ZM24.8832 86.0887C24.7858 86.1507 24.6839 86.195 24.5753 86.215C24.4668 86.2371 24.356 86.2393 24.2431 86.2194C24.1301 86.1994 24.0238 86.1574 23.9241 86.0909L23.7048 85.9469C23.6051 85.8805 23.5231 85.8007 23.4611 85.7032C23.3991 85.6058 23.3548 85.5039 23.3326 85.3953C23.3105 85.2868 23.3083 85.176 23.3282 85.063C23.3481 84.9501 23.3902 84.8437 23.4567 84.7441L23.82 84.1925C23.8554 84.1393 23.9019 84.1216 23.9639 84.1393L24.5776 84.3475C24.6374 84.3653 24.6507 84.4007 24.6152 84.4539L24.1478 85.1605C24.1234 85.1982 24.1146 85.2403 24.1234 85.2846C24.1323 85.3289 24.1567 85.3643 24.1943 85.3887L24.2408 85.4197C24.2785 85.4441 24.3206 85.4529 24.3649 85.4441C24.4092 85.4352 24.4446 85.4108 24.469 85.3732L24.9696 84.6156C24.9984 84.5624 25.0206 84.5137 25.0339 84.4672C25.0472 84.4206 25.0472 84.3719 25.0339 84.3188L24.6684 83.2599C24.6462 83.1691 24.6396 83.0871 24.6507 83.0184C24.6617 82.9475 24.695 82.87 24.7526 82.7814L25.2089 82.0925C25.2753 81.9928 25.3551 81.9108 25.4525 81.8488C25.55 81.7868 25.6519 81.7425 25.7605 81.7226C25.869 81.7004 25.9798 81.6982 26.0927 81.7181C26.2057 81.7381 26.312 81.7802 26.4117 81.8466L26.631 81.9906C26.7307 82.057 26.8127 82.1368 26.8747 82.2343C26.9367 82.3317 26.9788 82.4336 27.001 82.5422C27.0231 82.6507 27.0253 82.7615 27.0054 82.8745C26.9855 82.9874 26.9434 83.0938 26.8769 83.1934L26.7329 83.4127C26.6975 83.4659 26.6487 83.4836 26.5889 83.4659L25.9753 83.2577C25.9155 83.24 25.9022 83.2045 25.9377 83.1513L26.1836 82.777C26.2079 82.7393 26.2168 82.6972 26.2079 82.6529C26.1991 82.6086 26.1747 82.5732 26.137 82.5488L26.0905 82.5178C26.0529 82.4934 26.0108 82.4846 25.9665 82.4934C25.9222 82.5023 25.8867 82.5267 25.8624 82.5643L25.5168 83.0871C25.4924 83.1314 25.4769 83.1735 25.4681 83.2112C25.4592 83.2488 25.4592 83.2931 25.4703 83.3441L25.8513 84.4051C25.8779 84.4982 25.8801 84.5801 25.8601 84.6466C25.8402 84.7131 25.8114 84.7839 25.7738 84.857L25.1203 85.845C25.0538 85.9447 24.9741 86.0267 24.8766 86.0887H24.8832ZM26.3497 87.5197L25.8203 87.2118C25.8003 87.2007 25.787 87.1808 25.7782 87.1542C25.7693 87.1276 25.7715 87.1032 25.7848 87.0789L27.7475 83.6874L27.331 83.446C27.2756 83.4127 27.2646 83.3706 27.2956 83.3153L27.6035 82.7858C27.6367 82.7305 27.6788 82.7194 27.7342 82.7504L29.2715 83.6409C29.3269 83.6741 29.338 83.7162 29.307 83.7716L28.9991 84.301C28.9658 84.3564 28.9237 84.3675 28.8684 84.3365L28.4453 84.0906L26.4826 87.482C26.4494 87.5374 26.4073 87.5485 26.3519 87.5175L26.3497 87.5197ZM29.2272 89.0349L28.6668 88.7513C28.6136 88.7247 28.5981 88.6804 28.618 88.6184L28.9038 87.9295L28.5228 87.7368L28.1374 88.3748C28.0997 88.4279 28.0554 88.4412 28.0022 88.4146L27.4418 88.1311C27.3842 88.1023 27.3753 88.0602 27.4108 88.007L29.9582 84.1083C29.9959 84.0551 30.0424 84.0419 30.1 84.0729L30.9108 84.4827C30.9684 84.5115 30.9861 84.5558 30.9661 84.6178L29.3424 88.9817C29.3225 89.0437 29.2826 89.0592 29.225 89.0304L29.2272 89.0349ZM32.0316 90.2577L31.6263 90.0871C31.6019 90.076 31.5797 90.0583 31.5642 90.0317C31.5487 90.0051 31.5399 89.9785 31.5399 89.9542L31.7525 87.5706L30.8687 89.664C30.8443 89.7238 30.8022 89.7393 30.7424 89.7149L30.1775 89.4757C30.1177 89.4513 30.1022 89.4092 30.1266 89.3494L31.9253 85.0852C31.9497 85.0254 31.9918 85.0099 32.0516 85.0343L32.4702 85.2115C32.4946 85.2225 32.5168 85.2403 32.5323 85.2668C32.5478 85.2934 32.5566 85.32 32.5566 85.3444L32.3573 87.6592L33.2146 85.6301C33.2389 85.5703 33.281 85.5548 33.3408 85.5792L33.9057 85.8184C33.9655 85.8428 33.981 85.8849 33.9566 85.9447L32.1579 90.2089C32.1335 90.2687 32.0915 90.2842 32.0316 90.2599V90.2577ZM34.2889 90.9687C34.269 91.0285 34.2269 91.0485 34.1671 91.0285L33.5889 90.8292C33.5668 90.8225 33.549 90.8048 33.5358 90.7827C33.5225 90.7583 33.5202 90.7339 33.5291 90.7073L34.8073 87.0036L34.3509 86.8463C34.2911 86.8241 34.2712 86.7842 34.2911 86.7244L34.4905 86.1463C34.5104 86.0865 34.5525 86.0665 34.6123 86.0865L36.2914 86.6668C36.3512 86.6868 36.3712 86.7289 36.3512 86.7887L36.1519 87.3691C36.1319 87.4289 36.0899 87.4488 36.03 87.4289L35.5671 87.2694L34.2889 90.9732V90.9687ZM36.3003 91.6909L35.7111 91.5203C35.649 91.5026 35.6269 91.4627 35.6446 91.4007L36.9338 86.957C36.9516 86.895 36.9914 86.8729 37.0535 86.8906L37.6427 87.0611C37.7047 87.0789 37.7269 87.1187 37.7092 87.1808L36.4199 91.6244C36.4022 91.6864 36.3623 91.7086 36.3003 91.6909ZM39.4016 92.4595L38.9718 92.3599C38.9452 92.3532 38.9209 92.3399 38.9009 92.3156C38.881 92.2912 38.8677 92.269 38.8655 92.2425L38.6661 89.8567L38.1566 92.0719C38.1433 92.1339 38.1035 92.1583 38.0414 92.145L37.4433 92.0077C37.3813 91.9921 37.3569 91.9545 37.3702 91.8925L38.4092 87.3823C38.4224 87.3203 38.4623 87.296 38.5243 87.3092L38.9674 87.4111C38.994 87.4178 39.0183 87.4333 39.0383 87.4554C39.0582 87.4798 39.0715 87.502 39.0737 87.5285L39.2753 89.8434L39.7693 87.6969C39.7848 87.6349 39.8224 87.6105 39.8845 87.6238L40.4826 87.7611C40.5446 87.7766 40.569 87.8143 40.5557 87.8763L39.5167 92.3864C39.5035 92.4485 39.4636 92.4728 39.4016 92.4595ZM42.9237 88.2751L42.8262 88.8798C42.8152 88.9441 42.7797 88.9706 42.7155 88.9596L41.9402 88.8333L41.7829 89.8124L42.4563 89.9209C42.5205 89.932 42.5471 89.9675 42.536 90.0317L42.4386 90.6365C42.4275 90.7007 42.3921 90.7273 42.3278 90.7162L41.6544 90.6077L41.4284 92.001L42.2038 92.1273C42.268 92.1383 42.2946 92.1738 42.2835 92.238L42.186 92.8428C42.175 92.907 42.1395 92.9336 42.0753 92.9225L40.6 92.6833C40.5357 92.6722 40.5091 92.6368 40.5202 92.5725L41.2579 88.0048C41.269 87.9406 41.3044 87.914 41.3686 87.9251L42.8439 88.1643C42.9082 88.1754 42.9348 88.2108 42.9237 88.2751Z" fill="#006073"/>
<path d="M28.9258 87.0791L29.2094 87.2209L29.9339 85.4948L29.883 85.4705L28.9258 87.0791Z" fill="#006073"/>
</svg>
