<svg width="104" height="94" viewBox="0 0 104 94" fill="none" xmlns="http://www.w3.org/2000/svg">
<path d="M79.8001 43.8201C78.5389 43.8201 78.0803 42.8341 77.1861 42.3755C77.4154 42.2838 77.6217 42.2838 77.8281 42.2838C82.0015 42.2838 86.1748 42.2838 90.3482 42.2838C94.3839 42.2838 98.4426 42.2838 102.478 42.2838C103.052 42.2838 103.212 42.1003 103.143 41.5729C103.075 41.0685 103.075 40.564 103.052 40.0595C102.914 37.0327 102.341 34.0747 101.401 31.1854C99.0847 24.1687 94.9343 18.3902 89.4309 13.506C89.0641 13.1849 88.6972 12.8869 88.1927 12.4512C87.6882 13.7582 87.2525 14.9506 86.8169 16.0513C86.2436 15.5239 85.5786 14.9277 84.9366 14.3085C84.6614 14.0563 84.455 14.0563 84.1799 14.3085C82.9875 15.4321 81.7263 16.4869 80.5798 17.6335C76.9109 21.3711 74.0446 25.6362 72.5312 30.7039C71.7286 33.4097 71.2929 36.1843 71.5681 39.0506C71.6369 39.7614 71.7286 40.4952 71.7974 41.2978C70.0088 40.6786 68.3119 40.1054 66.5921 39.5092C66.5463 39.555 66.5004 39.578 66.4546 39.6238C67.0966 40.9997 67.7157 42.3526 68.3578 43.7284H57.6951C58.4518 42.1233 59.1397 40.5869 59.8506 39.0735C59.8276 39.0506 59.8047 39.0047 59.7818 38.9589C58.406 39.6238 57.0072 40.3118 55.6314 40.9767C55.6084 40.9309 55.5626 40.885 55.5167 40.8392C59.6901 29.1446 67.7387 20.8667 78.4014 14.9047C76.2 15.157 73.9987 15.4321 71.7744 15.6844C71.7744 15.6156 71.7515 15.5468 71.7286 15.5009C75.4892 12.5888 79.7543 10.7543 84.4092 9.7683C84.3862 9.72244 84.3862 9.67658 84.3633 9.65365C84.2257 9.56193 84.0881 9.44728 83.9506 9.35555C74.3656 3.02673 63.6341 0.160415 52.1688 -9.88417e-05C49.3025 -0.0459599 46.4133 0.229206 43.5699 0.527303C39.1672 0.985913 34.9022 2.06365 30.7288 3.55413C22.8866 6.39752 15.9845 10.6397 10.2977 16.785C6.26194 21.1648 3.28097 26.1407 1.53825 31.8275C0.643964 34.7626 0.208284 37.7435 0.0248398 40.7933C0.00190926 41.1831 0.0248398 41.5729 0.0248398 41.9857H0.735686C5.29886 41.9857 9.8391 41.9857 14.4023 41.9857C15.0673 41.9857 15.4342 41.8481 15.7093 41.1602C17.5208 36.7805 19.9744 32.7905 22.8866 29.0758C26.693 24.2145 31.1645 20.11 36.6907 17.2437C36.7825 17.1978 36.8742 17.129 36.943 17.0831C36.943 17.0373 36.9201 16.9914 36.8971 16.9456C35.2691 17.1749 33.6639 17.4271 32.0359 17.6564C32.1505 17.4271 32.2881 17.2666 32.4715 17.1519C33.4117 16.5099 34.306 15.8449 35.292 15.2716C38.9609 13.1162 42.8361 11.6715 47.1929 11.832C47.4681 11.832 47.7203 11.8779 48.1331 11.9238C46.505 13.7124 44.6935 15.2487 44.6706 17.8857C43.8451 17.1061 43.0884 16.3952 42.3546 15.7073C42.217 15.822 42.1253 15.8678 42.0565 15.9366C38.6857 18.9864 35.7506 22.3801 33.641 26.4617C31.7607 30.0847 30.6829 33.9141 30.9581 38.0646C31.004 38.8671 31.1416 39.6468 31.2562 40.5181C29.2154 39.899 27.2204 39.3028 25.2255 38.7066C25.1796 38.7525 25.1338 38.7983 25.0879 38.8442C25.5465 39.6926 25.9593 40.564 26.5096 41.3666C27.0599 42.1921 27.702 42.9258 28.3899 43.7743H0.0707008V56.5236H103.098V43.7743H102.387C94.8655 43.7743 87.3213 43.7513 79.8001 43.7972V43.8201ZM35.4754 40.0137C36.7137 35.267 39.1443 31.1854 42.3087 27.5165C46.4133 22.7928 51.3204 19.0781 56.8008 16.0513C56.9155 15.9825 57.0531 15.9137 57.1677 15.8449C57.1448 15.7761 57.1218 15.6844 57.0989 15.6156C55.3333 15.9595 53.5905 16.2806 51.8478 16.6245C51.802 16.6016 51.779 16.5557 51.7332 16.5099C52.3752 15.8908 52.9714 15.2258 53.6593 14.6525C55.9524 12.7493 58.6353 11.7174 61.5245 11.2129C63.2672 10.8919 65.0558 10.8002 66.8444 10.6397C67.2113 10.6167 67.5782 10.6397 68.1056 10.6397C66.0647 12.2907 65.4915 14.5608 64.5284 16.7621C63.8634 16.0283 63.2443 15.3404 62.5564 14.5837C54.9893 21.5087 50.2198 29.5803 51.3434 40.3118C49.142 39.7385 46.9636 39.1652 44.6476 38.569C45.4731 40.5181 46.5967 42.1462 47.9267 43.7743H36.8054C37.5162 42.2379 38.1812 40.7704 38.915 39.1882C37.6997 39.7844 36.5761 40.3576 35.292 40.9767C35.3837 40.5869 35.4296 40.3118 35.4984 40.0595L35.4754 40.0137ZM5.11542 50.6305C5.11542 51.9375 5.11542 53.2675 5.11542 54.5745C5.11542 55.3312 4.74853 55.7211 3.99182 55.744C3.39563 55.744 2.79943 55.744 2.18031 55.744C1.35481 55.744 0.964991 55.3312 0.964991 54.5287V46.6864C0.964991 45.8839 1.28602 45.494 2.08859 45.4482C2.73064 45.4023 3.3727 45.4023 3.99182 45.4482C4.79439 45.494 5.09249 45.8839 5.09249 46.6864C5.09249 47.5578 5.09249 48.4292 5.09249 49.3234V50.6305H5.11542ZM9.6098 54.5287C9.6098 55.3083 9.21998 55.7211 8.44034 55.7211C7.82122 55.7211 7.20209 55.7211 6.58297 55.7211C5.84919 55.6981 5.4823 55.3083 5.4823 54.5975C5.4823 51.9146 5.4823 49.2547 5.4823 46.5718C5.4823 45.8839 5.73454 45.517 6.42246 45.4711C7.15623 45.4023 7.93587 45.4023 8.66965 45.4711C9.35756 45.5399 9.63273 45.9297 9.63273 46.6406C9.63273 47.9476 9.63273 49.2776 9.63273 50.5846C9.63273 51.8917 9.63273 53.2216 9.63273 54.5287H9.6098ZM14.2418 50.5617C14.2418 51.8687 14.2418 53.1987 14.2418 54.5057C14.2418 55.3083 13.8519 55.7211 13.0264 55.7211C12.4303 55.7211 11.8341 55.7211 11.2379 55.7211C10.5041 55.7211 10.0913 55.3542 10.0684 54.6204C10.0684 51.9146 10.0684 49.2088 10.0684 46.503C10.0684 45.838 10.3894 45.494 11.0774 45.4482C11.7882 45.3794 12.499 45.3794 13.2099 45.4482C13.9437 45.517 14.2418 45.9068 14.2418 46.6635V50.5617ZM18.7361 50.5846C18.7361 51.8687 18.7361 53.1758 18.7361 54.4828C18.7361 55.3312 18.3463 55.7211 17.4979 55.744C16.9246 55.744 16.3284 55.744 15.7552 55.744C14.9755 55.744 14.5399 55.3542 14.5399 54.5745C14.5399 51.9375 14.5399 49.2776 14.5399 46.6406C14.5399 45.9297 14.9067 45.517 15.6405 45.4711C16.3055 45.4253 16.9476 45.4253 17.6126 45.4711C18.3922 45.517 18.7361 45.9297 18.7361 46.7323C18.7361 48.0164 18.7361 49.3234 18.7361 50.6305V50.5846ZM23.2305 54.4599C23.2305 55.3312 22.8178 55.7211 21.9464 55.7211C21.3961 55.7211 20.8228 55.7211 20.2496 55.7211C19.447 55.7211 19.0342 55.3083 19.0342 54.5057C19.0342 53.1987 19.0342 51.8687 19.0342 50.5617C19.0342 49.2547 19.0342 47.9935 19.0342 46.7323C19.0342 45.8839 19.3553 45.4941 20.1808 45.4253C20.8228 45.3794 21.4649 45.3794 22.1069 45.4253C22.8866 45.4711 23.2535 45.8839 23.2535 46.6864C23.2535 49.2776 23.2535 51.8687 23.2535 54.4599H23.2305ZM27.6791 54.5287C27.6791 55.3083 27.3122 55.6981 26.5096 55.7211C25.8905 55.7211 25.2713 55.7211 24.6522 55.7211C23.9414 55.6981 23.5516 55.2854 23.5516 54.5745C23.5516 51.9146 23.5516 49.2317 23.5516 46.5489C23.5516 45.9068 23.8267 45.517 24.4688 45.4711C25.2255 45.4023 26.0051 45.4023 26.7618 45.4711C27.4268 45.517 27.6791 45.8839 27.6791 46.5718C27.6791 47.9018 27.6791 49.2317 27.6791 50.5846C27.6791 51.9375 27.6791 53.2216 27.6791 54.5287ZM32.2193 48.4979C32.1276 49.3234 32.2193 50.1489 32.2193 50.9744C32.2193 52.1668 32.2193 53.3363 32.2193 54.5287C32.2193 55.3083 31.8295 55.6981 31.0498 55.7211C30.4307 55.7211 29.8116 55.7211 29.1925 55.7211C28.4587 55.6981 28.0918 55.3083 28.0918 54.5975C28.0918 51.9375 28.0918 49.2547 28.0918 46.5947C28.0918 45.9068 28.344 45.5858 29.009 45.4711C29.6969 45.3565 30.3161 45.4711 30.9581 45.8839C32.0129 46.5259 32.3798 47.3285 32.2422 48.5209L32.2193 48.4979ZM36.8283 54.6892C36.8283 55.2854 36.4156 55.6981 35.7735 55.7211C35.0856 55.744 34.3748 55.744 33.6869 55.7211C33.0448 55.6981 32.6779 55.3083 32.6779 54.6663C32.6779 52.3044 32.6779 49.9196 32.6779 47.5578C32.6779 45.196 32.6779 47.4202 32.7238 47.2138C33.6639 47.7642 34.5123 48.2686 35.3837 48.7731C35.613 47.6725 35.8423 46.6406 36.0716 45.5628C36.6678 45.7004 36.8283 46.0215 36.8283 46.4571C36.8283 49.2088 36.8283 51.9375 36.8283 54.6892ZM41.4603 50.5846C41.4603 51.8687 41.4603 53.1758 41.4603 54.4828C41.4603 55.3312 41.0705 55.7211 40.222 55.744C39.6488 55.744 39.0526 55.744 38.4793 55.744C37.7226 55.744 37.2869 55.3771 37.2869 54.6204C37.264 51.9375 37.2869 49.2547 37.2869 46.5718C37.2869 45.9068 37.608 45.5399 38.273 45.494C39.0067 45.4253 39.7405 45.4253 40.4514 45.494C41.1622 45.5628 41.4603 45.9527 41.4603 46.6635C41.4603 47.9705 41.4603 49.3005 41.4603 50.6076V50.5846ZM46.2069 54.4828C46.2069 55.3083 45.7942 55.7211 44.9457 55.7211C44.3495 55.7211 43.7533 55.7211 43.1342 55.7211C42.4234 55.6981 42.0106 55.3083 41.9877 54.5975C41.9877 51.9146 41.9877 49.2317 41.9877 46.5259C41.9877 45.8839 42.3087 45.517 42.9279 45.4711C43.6616 45.4023 44.4413 45.4023 45.175 45.4711C45.8859 45.5399 46.184 45.9297 46.184 46.6635C46.184 47.9705 46.184 49.3005 46.184 50.6076C46.184 51.9146 46.184 53.1987 46.184 54.5057L46.2069 54.4828ZM50.816 54.3911C50.816 55.3542 50.4261 55.7211 49.486 55.744C48.9127 55.744 48.3624 55.744 47.7891 55.744C47.0095 55.744 46.6197 55.3312 46.5967 54.5516C46.5967 53.2446 46.5967 51.9146 46.5967 50.6076C46.5967 49.3005 46.5967 48.0393 46.5967 46.7782C46.5967 45.9068 46.9636 45.494 47.8579 45.4482C48.3165 45.4253 48.7522 45.4253 49.2108 45.4482C49.8987 45.4711 50.816 46.4571 50.816 47.1451C50.816 49.5757 50.816 52.0063 50.816 54.414V54.3911ZM55.425 54.5516C55.425 55.3312 55.0122 55.7211 54.2097 55.7211C53.5905 55.7211 52.9714 55.7211 52.3523 55.7211C51.6873 55.6981 51.2516 55.3083 51.2287 54.6892C51.2287 52.1898 51.2287 49.6903 51.2287 47.1909C51.2287 47.1451 51.2516 47.0763 51.2746 47.0304C52.6045 47.8559 53.8886 48.6355 55.1727 49.461C55.3103 49.5528 55.4021 49.805 55.4021 49.9884C55.4021 51.5018 55.425 53.0382 55.4021 54.5516H55.425ZM60.034 54.3911C60.034 55.4 59.6671 55.7211 58.6582 55.744C58.1079 55.744 57.5346 55.744 56.9613 55.744C56.2505 55.7211 55.8607 55.3083 55.8607 54.5975C55.8607 53.1987 55.8607 51.777 55.8607 50.3783C55.8607 50.1948 56.0441 50.0343 56.1129 49.8738C56.1817 49.6674 56.2505 49.461 56.2963 49.2317C56.5486 48.1311 56.8237 47.0075 57.0531 45.9068C57.1218 45.5858 57.3053 45.4253 57.6263 45.4482C58.0161 45.4482 58.4059 45.4482 58.8187 45.4482C59.6442 45.494 60.0111 45.8609 60.0111 46.6864C60.0111 47.2597 60.0111 47.833 60.0111 48.3833C60.0111 48.9336 60.0111 49.8738 60.0111 50.6305C60.0111 51.3413 60.0111 52.0751 60.0111 52.786C60.0111 53.4968 60.0111 53.8637 60.0111 54.3911H60.034ZM64.6201 50.6305C64.6201 51.9375 64.6201 53.2675 64.6201 54.5745C64.6201 55.3083 64.2532 55.6981 63.5195 55.7211C62.8774 55.7211 62.2353 55.7211 61.5933 55.7211C60.8595 55.6981 60.4697 55.2854 60.4697 54.5287C60.4697 51.8917 60.4697 49.2547 60.4697 46.6176C60.4697 45.8609 60.8137 45.4711 61.5933 45.4253C62.2353 45.3794 62.8774 45.3794 63.5195 45.4253C64.322 45.4711 64.6201 45.8609 64.6201 46.6864V50.6305ZM69.1374 50.5388C69.1374 51.8687 69.1374 53.1987 69.1374 54.5516C69.1374 55.2854 68.7476 55.6981 68.0138 55.7211C67.3718 55.7211 66.7297 55.7211 66.0877 55.7211C65.3768 55.6981 64.987 55.3083 64.987 54.5745C64.987 51.9146 64.987 49.2317 64.987 46.5718C64.987 45.8839 65.2392 45.517 65.9042 45.4482C66.638 45.3794 67.4176 45.3794 68.1514 45.4482C68.8393 45.494 69.1145 45.9068 69.1145 46.5947C69.1145 47.9018 69.1145 49.2317 69.1145 50.5388H69.1374ZM73.7694 50.3553C73.7006 51.7082 73.7694 53.0611 73.7694 54.414C73.7694 55.3312 73.3796 55.6981 72.4624 55.6981C71.912 55.6981 71.3388 55.6981 70.7655 55.6981C70.0317 55.6981 69.596 55.3312 69.596 54.6204C69.5731 51.9146 69.596 49.2088 69.596 46.503C69.596 46.2737 69.7107 46.0215 69.7795 45.7921C70.9031 46.824 71.8662 47.833 72.9439 48.7043C73.5401 49.1859 73.8153 49.5986 73.7694 50.3783V50.3553ZM78.2409 54.5745C78.2409 55.2625 77.8281 55.6752 77.1631 55.6981C76.4752 55.7211 75.8102 55.7211 75.1223 55.6981C74.5949 55.6752 74.1134 55.4 74.0904 54.8497C74.0446 53.1299 74.0904 51.4101 74.0904 49.5757C74.6637 49.8508 75.1452 50.0802 75.535 50.2636C75.7414 49.3234 75.879 48.4292 76.1771 47.5807C76.4064 46.9387 76.865 46.3883 77.209 45.7921C77.4383 45.4253 77.7135 45.4941 77.9198 45.7692C78.0803 45.9985 78.2179 46.2966 78.2179 46.5947C78.2409 49.2547 78.2409 51.9375 78.2179 54.5975L78.2409 54.5745ZM82.8499 50.5388C82.8499 51.8229 82.8499 53.0841 82.8499 54.3682C82.8499 55.3083 82.4601 55.6981 81.5199 55.6981C80.9925 55.6981 80.4651 55.6981 79.9377 55.6981C79.0434 55.6981 78.6536 55.3083 78.6536 54.437C78.6536 51.8458 78.6536 49.2547 78.6536 46.6635C78.6536 45.8839 78.9746 45.4711 79.7313 45.4253C80.3963 45.3794 81.0842 45.3794 81.7492 45.4253C82.5059 45.4941 82.827 45.8839 82.8499 46.6635C82.8499 47.9476 82.8499 49.2547 82.8499 50.5617V50.5388ZM87.4589 54.437C87.4589 55.3312 87.0691 55.6981 86.1748 55.6981C85.6016 55.6981 85.0512 55.6981 84.478 55.6981C83.6754 55.6981 83.2626 55.2854 83.2626 54.4828C83.2626 53.1758 83.2626 51.8458 83.2626 50.5388C83.2626 49.2317 83.2626 47.9935 83.2626 46.7094C83.2626 45.838 83.6066 45.4482 84.455 45.4023C85.0512 45.3565 85.6703 45.3565 86.2665 45.4023C87.092 45.4482 87.4589 45.838 87.4589 46.6635C87.4589 49.2547 87.4589 51.8458 87.4589 54.437ZM92.045 50.5388C92.045 51.2038 92.045 51.8458 92.045 52.5108C92.045 53.1758 92.045 53.8178 92.045 54.4828C92.045 55.3312 91.6781 55.6981 90.8068 55.7211C90.2564 55.7211 89.729 55.7211 89.1787 55.7211C88.2844 55.7211 87.8946 55.3312 87.8946 54.4599V46.6864C87.8946 45.8839 88.2156 45.4941 89.0182 45.4253C89.6603 45.3794 90.3023 45.3794 90.9444 45.4253C91.7469 45.4711 92.068 45.8609 92.068 46.6635C92.068 47.5349 92.068 48.4062 92.068 49.2547V50.5388H92.045ZM96.7687 50.6076C96.7687 51.9146 96.7687 53.2446 96.7687 54.5516C96.7687 55.3083 96.3789 55.6752 95.6222 55.6981C95.0031 55.6981 94.3839 55.6981 93.7648 55.6981C93.031 55.6981 92.6183 55.2854 92.6183 54.5287C92.6183 51.8687 92.6183 49.2317 92.6183 46.5947C92.6183 45.8839 92.9164 45.4941 93.6272 45.4253C94.3381 45.3794 95.0489 45.3565 95.7598 45.4253C96.4706 45.4941 96.7458 45.8609 96.7458 46.5947C96.7458 47.9247 96.7458 49.2547 96.7458 50.6076H96.7687ZM101.515 50.6076C101.515 51.9375 101.515 53.2675 101.515 54.6204C101.515 55.2854 101.148 55.6752 100.483 55.7211C99.7955 55.744 99.0847 55.744 98.3968 55.7211C97.7547 55.6981 97.3649 55.2625 97.3649 54.6204C97.3649 51.9375 97.3649 49.2317 97.3649 46.5489C97.3649 45.9297 97.6171 45.5399 98.2363 45.494C99.0388 45.4253 99.8414 45.4253 100.644 45.494C101.263 45.5399 101.492 45.9068 101.492 46.5489C101.492 47.9018 101.492 49.2547 101.492 50.6076H101.515Z" fill="#006073"/>
<path d="M95.691 86.6545C95.3012 86.471 94.9114 86.3105 94.4298 86.1271C94.8655 85.8748 95.2553 85.6685 95.6451 85.4392C97.4108 84.3385 97.1815 81.8391 95.4158 81.0365C94.705 80.7155 93.9253 80.4174 93.1686 80.3944C90.8297 80.2798 88.4679 80.2798 86.129 80.2798C85.9684 80.2798 85.785 80.5091 85.6016 80.6237C85.7621 80.7384 85.9226 80.9448 86.106 80.9677C86.8857 81.0824 87.0691 81.2199 87.2067 81.9996C87.2526 82.2977 87.2755 82.5958 87.2755 82.8939C87.2755 86.0124 87.2755 89.131 87.2755 92.2495C87.2755 95.3681 87.2984 92.6852 87.3214 92.9374C89.0641 92.9374 90.738 93.0062 92.389 92.9145C93.4209 92.8457 94.4757 92.6164 95.4617 92.3183C96.6999 91.9285 97.4337 91.0342 97.5025 89.6813C97.5713 88.3055 96.9522 87.2965 95.7139 86.7003L95.691 86.6545ZM90.3023 81.2429C91.0361 81.2887 91.7469 81.2887 92.4349 81.4263C93.375 81.6098 93.7648 82.1142 93.8795 83.1232C93.9941 84.1092 93.6272 84.9117 92.8705 85.3245C92.068 85.7372 91.1966 85.6914 90.3023 85.6455V81.2658V81.2429ZM94.4757 89.8418C94.2922 90.8049 93.7648 91.424 92.7788 91.5157C91.9762 91.6075 91.1507 91.6304 90.3023 91.6762V86.7233C91.403 86.7003 92.4807 86.5398 93.5126 87.1131C94.361 87.5717 94.705 88.6724 94.4757 89.8418Z" fill="#006073"/>
<path d="M68.2662 92.8913H65.3082C65.3082 92.6391 65.2853 92.4327 65.2853 92.2034C65.2853 89.2913 65.2853 86.3791 65.2853 83.444C65.2853 83.1 65.2394 82.7331 65.1706 82.3892C65.056 81.9076 64.7579 81.6325 64.2534 81.4949C64.0241 81.449 63.8406 81.2656 63.6113 81.128C63.8177 80.9904 64.0241 80.784 64.2534 80.7382C65.5604 80.4859 66.8675 80.2566 68.2433 80.0044V85.7141H72.6918V80.2796H75.6499V92.8684H72.7377V86.8606H68.2433V92.8913H68.2662Z" fill="#006073"/>
<path d="M97.8925 70.0755C97.3651 69.9838 97.2045 70.2589 97.1358 70.7175C96.9523 71.7035 96.7459 72.6666 96.5625 73.6297C96.379 74.5928 96.081 74.8221 95.0949 74.6616C94.7281 74.6157 94.5675 74.4552 94.6593 74.0654C94.8656 73.1023 95.0491 72.1622 95.2096 71.1991C95.2784 70.8551 95.3242 70.5112 95.3701 70.1443C95.1408 70.1443 95.0032 70.1443 94.8427 70.1213C94.2465 70.0067 94.0172 70.2589 93.9255 70.8322C93.765 71.887 93.4898 72.9189 93.3064 73.9737C93.2146 74.5011 92.9165 74.6845 92.4121 74.6845C91.2197 74.6845 90.0044 74.6845 88.812 74.6845C88.6056 74.6845 88.4222 74.6616 88.1241 74.6387C88.2616 74.4094 88.3763 74.2947 88.4451 74.1342C88.6515 73.6068 88.9037 73.1023 88.9954 72.552C89.133 71.887 88.8808 71.6577 88.1929 71.6577C87.4591 71.6577 86.7253 71.6577 85.9915 71.6577C84.4093 71.6577 84.2029 72.0246 84.845 73.4921C84.9596 73.7444 85.0972 73.9966 85.2348 74.2488C85.2807 74.3635 85.3265 74.4781 85.3953 74.6387C83.6526 74.6387 81.9787 74.6387 80.3048 74.6387C79.9837 74.6387 79.8461 74.4323 79.9379 74.0883C80.0754 73.4921 80.1672 72.9189 80.2818 72.3227C80.4194 71.6118 80.5341 70.8781 80.6946 70.0755C80.3965 70.0755 80.213 70.0984 80.0296 70.0755C79.5022 69.9838 79.3417 70.2589 79.2729 70.6946C79.1353 71.5201 78.9748 72.3227 78.7913 73.1252C78.4244 74.7762 78.6996 74.6157 77.0486 74.6616C76.1085 74.6616 75.1454 74.6616 74.2282 74.6616C74.274 74.0195 74.3657 73.4463 74.3428 72.8959C74.297 71.8411 73.0816 71.222 72.2561 71.8641C71.7517 72.2539 71.316 72.7813 70.9491 73.3316C70.6051 73.8361 70.7198 74.3864 71.2013 74.7992C71.4536 75.0055 71.7517 75.1661 72.0956 75.3954C71.7517 75.7852 71.4077 76.1291 71.0408 76.5419C71.3848 76.7712 71.7058 77.0005 72.0727 77.2757C72.4625 76.8629 72.8065 76.4502 73.2192 76.1062C73.4027 75.9457 73.6778 75.7623 73.9071 75.7623C75.4435 75.7393 77.0028 75.7623 78.5391 75.7623C78.8601 75.7623 79.1812 75.6705 79.571 75.6017C79.7773 75.6476 80.0754 75.7623 80.3506 75.7623C81.887 75.7623 83.4462 75.7623 84.9826 75.7623C85.9227 75.7623 86.8858 75.6935 87.826 75.6935C88.3763 75.6935 88.9496 75.7623 89.5228 75.7623C90.7381 75.7623 91.9764 75.7623 93.1917 75.7623C93.5357 75.7623 93.8796 75.6705 94.2236 75.6247C94.9344 75.7393 95.6453 75.7623 96.3561 75.7623C97.067 75.7623 97.4339 75.51 97.5944 74.7304C97.7778 73.8361 97.9842 72.9418 98.1676 72.0475C98.3052 71.4055 98.4199 70.7863 98.5575 70.0984C98.2594 70.0984 98.0759 70.1213 97.8925 70.0984V70.0755ZM72.623 74.3406C72.3937 74.2718 72.1415 74.0425 72.0956 73.8361C72.0039 73.4692 72.646 72.8271 73.1275 72.8501C73.1963 72.9418 73.3568 73.0794 73.3797 73.2399C73.4256 73.6297 72.8982 74.4323 72.646 74.3406H72.623ZM86.8858 74.3406C86.5648 73.9507 86.0374 73.6297 85.9457 73.194C85.831 72.6437 86.4501 72.8501 86.7941 72.7813C87.0922 72.8959 87.7113 72.5978 87.6196 73.194C87.5737 73.6068 87.138 73.9737 86.8858 74.3635V74.3406Z" fill="#006073"/>
<path d="M16.7872 80.2796C16.7872 81.2427 16.7872 82.137 16.7872 83.0313C16.7872 84.9575 16.7872 86.9066 16.7872 88.8327C16.7872 89.2913 16.7413 89.727 16.6496 90.1627C16.3286 91.8366 15.2508 92.8685 13.531 92.9831C12.4762 93.0519 11.3756 93.0519 10.3437 92.8456C8.4634 92.4787 7.38567 91.057 7.36274 89.1308C7.36274 87.2047 7.36274 85.2556 7.36274 83.3294C7.36274 82.0911 7.22515 81.8848 6.03277 81.472C5.91811 81.4262 5.7576 81.2198 5.78053 81.1739C5.84932 81.0363 5.9869 80.8758 6.12449 80.83C7.13343 80.6236 8.14237 80.4631 9.17425 80.2796C9.54114 80.2108 9.90802 80.165 10.3437 80.0962C10.3437 80.3714 10.3437 80.5548 10.3437 80.7612C10.3437 83.2835 10.3437 85.8059 10.3437 88.3283C10.3437 88.8786 10.3896 89.4518 10.4584 90.0022C10.6418 91.2863 11.7883 91.9513 13.3017 91.6532C14.7234 91.378 15.4343 90.5525 15.4801 89.062C15.526 87.1359 15.526 85.1868 15.5489 83.2606C15.5489 82.481 15.5489 81.7243 15.5489 80.9446C15.5489 80.4249 15.8012 80.1726 16.3056 80.1879C16.4432 80.1879 16.5579 80.1879 16.7642 80.2338L16.7872 80.2796Z" fill="#006073"/>
<path d="M35.0398 80.3714V81.6326C34.4207 81.5408 33.8245 81.4491 33.2283 81.3803C32.7467 81.3345 32.2652 81.2886 31.7607 81.2886C31.2333 81.2886 30.7747 81.5179 30.5225 82.0224C30.2473 82.5727 30.2473 83.146 30.683 83.6046C31.0957 84.0173 31.5773 84.3842 32.0817 84.7053C32.8614 85.1868 33.6869 85.5995 34.4665 86.0811C36.0029 87.0212 36.5532 88.4429 36.2551 90.1856C36.1175 91.0799 35.5443 91.7449 34.7875 92.2265C33.4805 93.052 32.0129 93.2125 30.4995 93.0978C29.7887 93.052 29.1008 92.8685 28.3899 92.7539C27.9772 92.6851 27.8167 92.4787 27.8625 92.066C27.8855 91.7908 27.8625 91.5156 27.8625 91.1946C28.6422 91.3551 29.3759 91.5844 30.1097 91.6532C30.7976 91.722 31.5085 91.722 32.1735 91.6073C33.2741 91.401 33.7557 90.071 33.0219 89.1767C32.655 88.7181 32.1505 88.3741 31.6461 88.0302C30.7518 87.434 29.7887 86.9754 28.9173 86.3333C27.6791 85.439 27.1287 84.2008 27.4039 82.6415C27.6103 81.4491 28.4587 80.83 29.4906 80.3943C30.8664 79.844 32.2881 79.9128 33.7098 80.1192C34.1226 80.1879 34.5124 80.2567 34.9939 80.3255L35.0398 80.3714Z" fill="#006073"/>
<path d="M54.1409 70.0756C53.5905 69.9609 53.3842 70.2361 53.3154 70.7635C53.1549 71.7036 52.9485 72.6438 52.765 73.5839C52.5587 74.6158 52.2606 74.8451 51.2516 74.6617C50.8847 74.5929 50.7472 74.4323 50.8389 74.0425C50.9994 73.4005 51.0911 72.7584 51.2287 72.0934C50.816 71.9559 50.4261 71.8412 50.0134 71.7036C49.8299 72.5291 49.6465 73.3088 49.5318 74.0655C49.463 74.4782 49.2337 74.6617 48.8669 74.6617C47.6057 74.6617 46.3445 74.6617 45.0833 74.6617C44.7164 74.6617 44.5788 74.4553 44.4871 74.1113C44.2808 73.3317 44.0056 72.575 43.7304 71.8183C43.6616 71.589 43.524 71.3826 43.3865 71.0845C43.7075 71.0845 43.9597 71.0386 44.189 71.0386C45.0375 71.0386 45.0833 70.9698 45.0375 70.0526H42.9049C42.0336 70.0526 41.6896 70.6947 42.0794 71.4972C42.4692 72.3227 42.8132 73.1712 43.1572 74.0196C43.2947 74.3636 43.1801 74.5699 42.7903 74.5929C42.1482 74.5929 41.5291 74.6158 40.887 74.5929C40.5201 74.5929 40.4055 74.3865 40.4972 74.0196C40.6348 73.3775 40.7495 72.7355 40.887 72.0476C40.4743 71.91 40.0615 71.7953 39.6488 71.6578C39.4653 72.4833 39.259 73.1941 39.1672 73.9508C39.0985 74.5011 38.8004 74.6387 38.3417 74.6387C37.4016 74.6387 36.4614 74.6387 35.5213 74.6387C35.2691 74.6387 35.0168 74.6158 34.7875 74.5929C34.8334 74.0425 34.9251 73.5381 34.948 73.0336C34.971 72.4833 34.7875 72.0246 34.2601 71.7953C33.6869 71.566 33.1136 71.5202 32.632 72.0017C32.1505 72.4833 31.9441 72.6896 31.669 73.1024C31.1186 73.882 31.325 74.6158 32.1505 75.0744C32.311 75.1661 32.4715 75.2349 32.7238 75.3496C32.334 75.7853 31.99 76.1292 31.6231 76.519C31.9671 76.7713 32.2881 77.0006 32.7238 77.2987C33.0677 76.9088 33.4346 76.519 33.7556 76.1063C33.962 75.8082 34.2143 75.7165 34.5582 75.7394C36.0716 75.7394 37.608 75.7394 39.1214 75.7394C39.4424 75.7394 39.7634 75.6247 40.0615 75.5789C40.3826 75.6247 40.7036 75.7165 41.0475 75.7394C42.4463 75.854 43.8451 75.6477 45.2438 75.7394C46.6655 75.8082 48.1101 75.7623 49.5318 75.7394C49.8529 75.7394 50.1739 75.6247 50.4949 75.5789C51.2058 75.6935 51.9166 75.7394 52.6275 75.7394C53.4071 75.7394 53.7052 75.4872 53.8657 74.7304C54.0721 73.8362 54.2555 72.9419 54.439 72.0246C54.5766 71.3826 54.6912 70.7635 54.8288 70.0526C54.5536 70.0526 54.3931 70.0755 54.2326 70.0526L54.1409 70.0756ZM33.0907 74.3636C32.9072 74.1801 32.632 74.0196 32.5862 73.8132C32.5174 73.4463 33.1594 72.7814 33.5034 72.8501C33.6639 72.8731 33.8015 73.0565 34.0767 73.2629C33.7098 73.6756 33.3888 74.0196 33.0907 74.3636Z" fill="#006073"/>
<path d="M49.2795 81.3116C48.6145 81.3116 48.0641 81.2887 47.5138 81.3116C46.9635 81.3575 46.6195 81.6556 46.5507 82.2289C46.5507 82.3894 46.5507 82.5728 46.459 82.7333C46.4131 82.848 46.2297 82.9626 46.138 82.9626C46.0463 82.9626 45.8857 82.7792 45.8857 82.6875C45.8857 81.9078 45.8857 81.1282 45.8857 80.2798C46.115 80.2798 46.2985 80.2568 46.4819 80.2568C49.3483 80.2568 52.1916 80.2568 55.058 80.2568C55.5624 80.2568 55.7229 80.3944 55.7 80.8989C55.6541 81.4492 55.7 81.9996 55.6771 82.527C55.6771 82.6875 55.4478 82.848 55.3331 83.0085C55.2414 82.848 55.058 82.7104 55.058 82.5499C54.9204 81.6097 54.6681 81.3575 53.728 81.3116C52.7649 81.2811 52.2834 81.7473 52.2834 82.7104C52.2834 85.8748 52.2834 89.0392 52.2834 92.1807V92.8916H49.3253V81.3346L49.2795 81.3116Z" fill="#006073"/>
<path d="M86.5645 60.8347C86.0371 60.8118 85.5097 60.8347 84.9823 60.8347C84.4549 60.8347 84.1339 61.0869 84.0192 61.5914C83.9046 62.0729 83.767 62.5774 83.6982 63.059C83.6294 63.6322 83.3084 63.8157 82.781 63.8157C81.5198 63.8157 80.2586 63.8157 78.9974 63.8157C78.8828 63.8157 78.7681 63.7698 78.5847 63.7239C78.7223 63.5176 78.8369 63.38 78.9057 63.2195C79.1121 62.6462 79.3184 62.05 79.4331 61.4768C79.5248 61.064 79.2497 60.8347 78.8369 60.8347C77.7592 60.8347 76.6585 60.8347 75.5578 60.8347C75.0992 60.8347 74.847 61.1328 74.9617 61.5226C75.1222 62.1417 75.3973 62.7609 75.6266 63.357C75.6725 63.4946 75.7413 63.6093 75.833 63.7927C74.1362 63.7927 72.531 63.7927 70.903 63.7927C70.4443 63.7927 70.3526 63.4717 70.4214 63.0819C70.4902 62.6462 70.6049 62.2105 70.6507 61.7519C70.7195 61.064 70.4902 60.8347 69.8023 60.8118C69.3895 60.8118 68.9768 60.8118 68.564 60.8118C67.8761 60.8118 67.6239 60.9952 67.4404 61.6831C67.2799 62.3252 67.1653 62.9672 67.0277 63.6093C66.8213 64.6641 67.0277 64.9393 68.1284 64.9393C68.9309 64.9393 68.587 64.2972 68.8163 63.8845C68.1971 63.8615 68.243 63.5176 68.3347 63.1277C68.4035 62.8067 68.4494 62.4857 68.5182 62.1876C68.6099 61.7061 68.908 61.4997 69.4583 61.6143C69.3437 62.3252 69.2061 62.9902 69.1602 63.6781C69.0914 64.5494 69.4125 64.9163 70.2838 64.8934C72.3705 64.8934 74.4572 64.8475 76.5439 64.8017C76.8649 64.8017 77.1859 64.687 77.484 64.71C79.2955 64.7558 81.13 64.8475 82.9415 64.9163C83.1937 64.9163 83.4689 64.7558 83.744 64.7787C84.432 64.8017 85.1199 64.9163 85.8078 64.9163C86.2205 64.9163 86.6791 64.7787 86.7938 64.2972C87.0002 63.4029 87.1607 62.5086 87.3212 61.5914C87.39 61.1099 87.0919 60.8576 86.6333 60.8347H86.5645ZM78.149 62.371C77.9197 62.715 77.6904 63.0819 77.4382 63.4258C77.3923 63.4717 77.2547 63.4488 77.1401 63.4488C77.0942 63.4488 77.0483 63.4029 77.0025 63.357C76.6814 63.0131 76.0853 62.6233 76.4063 62.1876C76.6127 61.9124 77.3464 62.0271 77.8509 61.9812C77.9885 61.9812 78.149 62.05 78.3095 62.0959C78.2636 62.1876 78.2178 62.2793 78.1719 62.371H78.149ZM85.7161 63.1736C85.6014 63.7239 85.5097 63.7927 84.7989 63.7239C84.9135 63.1277 84.9594 62.5086 85.1657 61.9354C85.2345 61.729 85.6243 61.6373 85.8536 61.4768C85.8995 61.5455 85.9683 61.6143 86.0142 61.6831C85.9224 62.1876 85.8307 62.6691 85.7161 63.1507V63.1736Z" fill="#006073"/>
<path d="M64.1842 63.8844C64.0925 63.1277 63.932 62.3252 63.6568 61.6143C63.1524 60.3073 63.1065 60.3302 61.7307 60.3761V60.5595C61.5472 60.6512 61.3867 60.7659 61.2033 60.7888C60.8593 60.8347 60.4924 60.7888 60.1255 60.7888C59.6669 60.7888 59.323 60.9952 59.2083 61.4538C59.0707 61.9583 58.9561 62.4627 58.8414 62.9901C58.658 63.8615 58.5433 63.9303 57.649 63.701C57.6949 63.1507 57.7866 62.5774 57.7637 62.0271C57.7178 60.9723 56.5025 60.3531 55.6541 60.9952C55.1496 61.385 54.7139 61.9124 54.347 62.4627C54.0031 62.9672 54.1177 63.5175 54.5993 63.9303C54.8515 64.1367 55.1496 64.2972 55.4936 64.5265C55.1496 64.9163 54.8057 65.2832 54.4388 65.673C54.7827 65.9023 55.1038 66.1316 55.5624 66.4756C55.9063 66.0858 56.2503 65.6959 56.5713 65.2832C56.7777 64.9851 57.007 64.8934 57.3739 64.8934C59.3 64.8934 61.2033 64.8934 63.1294 64.8934C63.8174 64.8934 64.2301 64.5494 64.1613 63.8615L64.1842 63.8844ZM56.0439 63.4946C55.8146 63.4258 55.5624 63.1965 55.4936 62.9901C55.4018 62.6233 56.021 61.9812 56.5025 61.9812C56.5713 62.0729 56.7318 62.2105 56.7547 62.371C56.8235 62.7379 56.2732 63.5634 56.021 63.4946H56.0439ZM60.8593 63.1965C60.7676 63.6781 60.4924 63.8386 59.9421 63.701C60.0567 63.1507 60.1485 62.6233 60.2402 62.1188C60.2631 61.9812 60.3319 61.7978 60.4236 61.729C60.5841 61.6372 60.7905 61.6372 60.9969 61.5914C61.0198 61.7519 61.1115 61.9124 61.0886 62.05C61.0428 62.4398 60.951 62.8296 60.8593 63.1965ZM62.6938 63.6551C62.5103 63.8386 62.0976 63.7927 61.639 63.8615C61.7765 63.0131 61.8912 62.3022 62.0058 61.5914C62.0517 61.5914 62.1205 61.5914 62.1893 61.5914C62.3498 61.9812 62.5791 62.371 62.6938 62.8067C62.7625 63.0819 62.8543 63.5405 62.6938 63.6781V63.6551Z" fill="#006073"/>
<path d="M9.40344 70.0756C9.17413 71.2909 8.94483 72.4374 8.71552 73.6069C8.69259 73.7674 8.66966 73.9509 8.6238 74.1114C8.55501 74.4553 8.66966 74.5929 9.03655 74.6158C10.2519 74.6158 11.4672 74.6617 12.7054 74.6846C13.2099 74.6846 13.5539 74.57 13.6227 73.9509C13.7144 73.2171 13.9208 72.4833 14.0813 71.7037C14.494 71.8412 14.8838 71.9559 15.2966 72.0935C15.159 72.7814 15.0443 73.4235 14.9068 74.0655C14.815 74.4553 14.9526 74.6388 15.3424 74.6617C16.2138 74.6617 17.1081 74.7076 17.9795 74.6617C18.7132 74.6617 19.3094 73.8821 19.1718 73.1483C19.1489 73.0107 18.9425 72.7814 18.8279 72.7814C18.5527 72.7814 18.0941 72.7814 18.0253 72.9419C17.6584 73.6069 17.1081 73.3317 16.5119 73.3776C16.6724 72.9419 16.7412 72.5062 16.9705 72.1852C17.154 71.933 17.5208 71.7266 17.8189 71.6807C18.4381 71.6119 19.0572 71.6578 19.6763 71.6807C20.2496 71.6807 20.5935 72.0018 20.4789 72.575C20.3413 73.3547 20.1579 74.1572 19.8827 74.9139C19.5846 75.6936 18.805 75.7394 18.117 75.7853C17.131 75.8312 16.1221 75.8082 15.1361 75.7853C14.9068 75.7853 14.6775 75.6477 14.5399 75.6248C14.1501 75.6936 13.829 75.7853 13.508 75.7853C11.7424 75.7853 9.9767 75.7853 8.21105 75.7853C7.24797 75.7853 6.9728 75.4184 7.17918 74.4783C7.43141 73.2629 7.68365 72.0476 7.91296 70.8323C8.00468 70.3049 8.18812 69.9609 8.80725 70.0985C8.96776 70.1215 9.12827 70.0985 9.38051 70.0985L9.40344 70.0756Z" fill="#006073"/>
<path d="M27.4496 60.8117C26.9452 60.8117 26.4407 60.8117 25.9133 60.8117C25.4088 60.8117 25.0878 61.041 24.9731 61.5226C24.8585 62.027 24.698 62.5315 24.6292 63.0589C24.5604 63.5863 24.2623 63.8156 23.7578 63.8156C22.6342 63.8156 21.5106 63.8156 20.3641 63.8156C19.8138 63.8156 19.7221 63.6551 19.8367 63.1048C19.9055 62.715 20.0202 62.3481 20.1119 61.9583C20.2724 61.2474 19.9284 60.8347 19.2176 60.8117C18.736 60.8117 18.2774 60.8117 17.7959 60.8117C17.085 60.8117 16.8787 61.064 16.9016 61.8895C17.3144 61.8895 17.7271 61.8665 18.1399 61.8895C18.3462 61.9124 18.6673 62.027 18.736 62.2105C19.0341 62.8296 18.4838 63.7239 17.7959 63.7927C17.6125 63.7927 17.429 63.7927 17.2226 63.7927C16.3054 63.7927 16.2366 63.8615 16.2825 64.8246C17.4749 65.1685 18.6673 64.6182 19.9055 64.8246C21.1896 65.0539 22.5425 64.8704 23.8496 64.8704C24.1018 64.8704 24.377 64.7099 24.6292 64.7099C25.3171 64.7329 26.005 64.8475 26.6929 64.8475C27.1286 64.8475 27.5643 64.6641 27.679 64.1596C27.8624 63.2882 28.0458 62.4398 28.1605 61.5684C28.2293 60.9952 28 60.7888 27.4267 60.7659L27.4496 60.8117ZM26.6241 63.3341C26.5095 63.7468 26.2114 63.8156 25.7528 63.678C25.8445 63.1048 25.9133 62.5544 26.0509 61.9812C26.1426 61.6143 26.4636 61.4767 26.9452 61.5914C26.8305 62.1876 26.7388 62.7608 26.6012 63.3341H26.6241Z" fill="#006073"/>
<path d="M30.3162 70.0756C29.8576 70.0068 29.6971 70.2361 29.6283 70.6488C29.4907 71.4055 29.3302 72.1622 29.1697 72.9189C28.7569 74.7993 29.2156 74.6846 26.9454 74.6846H24.5607C24.6065 74.0425 24.6982 73.4693 24.6753 72.9189C24.6295 71.8641 23.4141 71.245 22.5657 71.8871C22.0612 72.2769 21.6256 72.8043 21.2587 73.3317C20.9147 73.8362 21.0294 74.3865 21.5109 74.7993C21.7631 75.0056 22.0612 75.1661 22.4052 75.3954C22.0612 75.7853 21.7173 76.1292 21.3504 76.542C21.6943 76.7713 22.0154 77.0006 22.474 77.3445C22.8179 76.9547 23.1619 76.5649 23.4829 76.1522C23.6893 75.8541 23.9186 75.7623 24.2855 75.7623C25.776 75.7623 27.2665 75.7623 28.734 75.7623C29.5824 75.7623 29.8805 75.533 30.0411 74.6846C30.2245 73.8132 30.4079 72.9648 30.5914 72.0934C30.729 71.4514 30.8436 70.7864 30.9812 70.0756C30.6831 70.0756 30.4538 70.0985 30.2704 70.0756H30.3162ZM22.9326 74.3406C22.7262 74.2719 22.474 74.0196 22.4281 73.8132C22.3593 73.4463 23.0014 72.8272 23.4829 72.8502C23.5288 72.9648 23.6893 73.1483 23.6664 73.3088C23.6664 73.7674 23.1619 74.4324 22.9097 74.3406H22.9326Z" fill="#006073"/>
<path d="M90.3481 59.2524C90.1188 60.4678 89.8895 61.6372 89.6602 62.7837C89.6373 62.9443 89.6143 63.1277 89.5685 63.2882C89.4997 63.6322 89.6373 63.7698 89.9812 63.7698C91.8386 63.7698 93.696 63.8156 95.5533 63.8385C96.3788 63.8385 96.9292 63.1965 96.8604 62.371C96.8604 62.2334 96.6769 61.9812 96.5393 61.9812C96.2642 61.9582 95.8056 61.9353 95.7138 62.0958C95.3699 62.7608 94.8196 62.5315 94.2922 62.5774C94.2922 61.4079 94.7966 60.8576 95.8973 60.8576C96.3788 60.8576 96.8833 60.8576 97.3648 60.8576C97.9152 60.8576 98.2591 61.1786 98.1674 61.706C98.0298 62.5315 97.8235 63.357 97.5254 64.1366C97.2273 64.8934 96.4706 64.9392 95.7826 64.9392C93.5125 64.9851 91.2424 64.9392 88.9493 64.9392C88.2156 64.9392 87.9175 64.5494 88.055 63.8385C88.3302 62.4169 88.6283 61.0181 88.9493 59.5964C88.9723 59.4588 89.2016 59.2983 89.3392 59.2754C89.6143 59.2295 89.8895 59.2754 90.3022 59.2754L90.3481 59.2524Z" fill="#006073"/>
<path d="M14.7694 60.8574C15.1134 60.9721 15.4115 61.0179 15.6637 61.1555C15.8013 61.2243 15.9389 61.4536 15.9159 61.5912C15.7554 62.4167 15.572 63.2422 15.3885 64.0677C15.2968 64.4346 15.1363 64.8244 14.7006 64.8473C13.8522 64.8703 13.0037 64.8473 12.0865 64.8473C12.1095 64.8244 12.0865 64.8473 12.0636 64.8703C11.7273 65.7263 11.0929 66.162 10.1604 66.1773C9.38073 66.1773 8.57816 66.1773 7.79852 66.1773C7.1794 66.1773 6.83544 65.7646 6.95009 65.1684C7.24819 63.7467 7.54629 62.3479 7.86731 60.8804C8.25713 60.995 8.62402 61.1097 9.0597 61.2472C8.89919 62.0498 8.78453 62.8294 8.62402 63.6091C8.28006 65.2372 8.30299 65.0078 9.74762 65.0078C10.619 65.0078 10.6878 64.962 10.8941 64.1136C11.1234 63.0588 11.3528 62.004 11.5821 60.9262C11.6738 60.9262 11.7196 60.9262 11.7884 60.9262C12.4916 61.0944 12.7668 61.5301 12.6139 62.2333C12.591 62.3708 12.5451 62.4855 12.5451 62.6231C12.5451 62.99 12.4534 63.632 12.5451 63.6549C12.9808 63.7925 13.4853 63.7925 13.9668 63.7467C14.0815 63.7467 14.2649 63.4944 14.3108 63.311C14.4942 62.5314 14.6547 61.7517 14.8382 60.8574H14.7694Z" fill="#006073"/>
<path d="M38.3418 61.1786C38.0437 61.041 37.7227 60.9722 37.3558 60.8576C37.2412 61.3621 37.1495 61.7977 37.0577 62.2334C36.6908 63.9073 37.0348 63.8386 35.2921 63.7927C35.2462 63.7927 35.1774 63.7927 35.1316 63.7927H32.2423C32.3111 63.1965 32.3799 62.692 32.4028 62.1876C32.4258 61.6372 32.2423 61.1557 31.7149 60.9493C31.1646 60.72 30.5684 60.6742 30.0869 61.1557C29.72 61.5226 29.376 61.8895 29.0779 62.3022C28.5734 63.036 28.7798 63.7468 29.5365 64.2054C29.72 64.3201 29.8805 64.3889 30.1327 64.5265C29.7429 64.9392 29.4219 65.3061 29.055 65.6959C29.3989 65.9482 29.72 66.1775 30.1786 66.4756C30.5225 66.0857 30.8894 65.6959 31.2104 65.2832C31.4168 64.9851 31.6691 64.8934 32.013 64.8934C33.5952 64.8934 35.1774 64.8934 36.7596 64.8934C37.5163 64.8934 37.8144 64.687 37.975 64.0679C38.1813 63.2194 38.3648 62.3939 38.5253 61.5455C38.5482 61.4309 38.4565 61.2016 38.3418 61.1557V61.1786ZM30.6143 63.4946C30.4079 63.4258 30.1327 63.1965 30.0869 62.9901C29.9951 62.6232 30.6372 61.9812 31.1187 62.0041C31.1875 62.0958 31.348 62.2334 31.371 62.3939C31.4168 62.7838 30.8894 63.5863 30.6372 63.4946H30.6143Z" fill="#006073"/>
<path d="M47.3305 60.8118C47.2617 61.8207 47.2388 61.8436 46.4133 61.9353C45.2438 62.0729 45.0604 62.2334 44.8311 63.2424C44.7393 63.6322 44.8998 63.7927 45.2438 63.7927C45.6795 63.7927 46.0922 63.7927 46.6884 63.7927C46.4362 64.6411 46.2757 65.3979 46.0005 66.0858C45.9317 66.2692 45.5648 66.4756 45.3355 66.4756C44.1202 66.5214 42.9049 66.5214 41.6666 66.4985C41.1392 66.4985 40.9099 66.2234 41.0017 65.6272C41.1392 64.687 41.3456 63.7469 41.5061 62.8067C41.6208 62.2334 41.7354 61.6831 41.873 61.0411C42.2858 61.1098 42.6756 61.1786 43.1571 61.2474C42.9966 62.05 42.859 62.8067 42.7214 63.5634C42.6297 63.9991 42.538 64.4348 42.4463 64.8934C42.4004 65.1915 42.4463 65.4208 42.8361 65.4208C43.4094 65.4208 43.9597 65.4437 44.533 65.4208C44.7164 65.4208 44.8998 65.2373 45.0833 65.1227C45.0604 65.0539 45.0374 64.9851 45.0145 64.9163C44.7623 64.9163 44.51 64.9163 44.2578 64.9163C43.5699 64.8705 43.3635 64.5953 43.5011 63.9303C43.6157 63.4488 43.7533 62.9443 43.8909 62.4627C44.1661 61.5226 44.7393 60.9493 45.7712 60.8805C46.2986 60.8576 46.826 60.8117 47.3763 60.7888L47.3305 60.8118Z" fill="#006073"/>
<path d="M69.4126 71.6577C68.8852 71.6577 68.3578 71.6577 67.8304 71.6577C67.326 71.6577 66.982 71.9099 66.8674 72.4373C66.7527 72.9418 66.6151 73.4233 66.5463 73.9049C66.4775 74.4094 66.2253 74.6387 65.7438 74.6616C65.3539 74.6845 65.0329 74.8221 64.9412 75.2349C64.6431 76.519 64.3679 77.7801 64.0698 79.156C64.3909 79.156 64.5743 79.133 64.7577 79.156C65.2393 79.2248 65.4686 79.0413 65.5374 78.5369C65.6291 77.8489 65.7896 77.184 65.9272 76.496C66.0189 75.9916 66.2712 75.6935 66.8444 75.7393C67.3948 75.7852 67.968 75.7623 68.5413 75.7393C69.0228 75.7393 69.4814 75.6247 69.619 75.0973C69.8254 74.203 69.9859 73.3087 70.1235 72.3915C70.1923 71.9099 69.9171 71.6577 69.4356 71.6348L69.4126 71.6577ZM68.5413 74.203C68.4496 74.6387 68.0827 74.6157 67.6241 74.6157C67.7387 73.9966 67.7846 73.3775 67.968 72.8042C68.0368 72.5978 68.4266 72.4832 68.6559 72.3227C68.7247 72.3915 68.7706 72.4373 68.8394 72.5061C68.7477 73.0794 68.6559 73.6297 68.5413 74.203Z" fill="#006073"/>
<path d="M61.1805 72.8501C61.1346 72.2769 60.8365 71.9329 60.3091 71.7495C59.4836 71.4743 58.9562 71.887 58.4288 72.4374C57.2135 73.7215 57.3052 74.5011 58.9333 75.3954C58.5664 75.8082 58.2224 76.1521 57.8556 76.5649C58.1995 76.7942 58.5205 77.0235 58.9333 77.3216C59.4378 76.7254 59.9652 76.175 60.4238 75.5789C61.02 74.7763 61.2493 73.8591 61.1805 72.873V72.8501ZM59.4148 74.3406C59.2085 74.2718 58.9333 74.0425 58.8874 73.8361C58.7957 73.4692 59.4148 72.8272 59.9193 72.8272C59.9881 72.9189 60.1486 73.0565 60.1715 73.217C60.2174 73.6068 59.69 74.4094 59.4378 74.3177L59.4148 74.3406Z" fill="#006073"/>
<path d="M90.6003 9.03442C89.7519 10.2039 89.0181 11.2128 88.2614 12.2447C87.1607 11.4192 86.083 10.6166 84.8677 9.69941C86.8168 9.4701 88.6512 9.26373 90.6003 9.03442Z" fill="#006073"/>
<path d="M57.3969 70.0756C57.0071 72.0018 56.6402 73.8592 56.2504 75.7165H55.0121C55.0121 75.579 54.9892 75.4414 55.0121 75.3038C55.3102 73.7904 55.6313 72.254 55.9294 70.7406C56.0211 70.2132 56.2275 69.9839 56.7778 70.0756C56.9383 70.0986 57.1218 70.0756 57.3969 70.0756Z" fill="#006073"/>
<path d="M51.5498 64.9162C51.7791 63.7697 51.9854 62.692 52.1918 61.6142C52.3065 61.018 52.4899 60.3989 52.5587 59.8027C52.6275 59.3441 52.8109 59.1836 53.2466 59.2294C53.453 59.2524 53.6594 59.2294 53.9575 59.2294C53.8199 59.9632 53.6823 60.6511 53.5447 61.3391C53.3613 62.3251 53.132 63.3111 52.9715 64.32C52.9027 64.8016 52.6963 65.0079 52.1918 64.9392C52.0084 64.9162 51.8249 64.9392 51.5039 64.9392L51.5498 64.9162Z" fill="#006073"/>
<path d="M49.3252 60.8345C49.7839 60.9491 50.1737 61.0638 50.5635 61.1784C50.403 62.8982 49.9673 64.4346 48.7061 65.6499C48.0641 66.269 48.087 66.269 47.3761 65.7645C47.2615 65.6728 47.1468 65.5811 46.9863 65.4435C48.5685 64.3199 49.1647 62.6918 49.3252 60.8345Z" fill="#006073"/>
<path d="M41.0015 70.1215C41.0015 71.1305 40.818 71.268 39.8091 71.0617C39.8091 70.0527 39.8779 70.0069 41.0015 70.1215Z" fill="#006073"/>
<path d="M35.9571 66.5671C35.9342 65.6499 36.0488 65.5582 37.1266 65.7187C37.1036 66.7047 36.989 66.7735 35.9571 66.5671Z" fill="#006073"/>
<path d="M95.1176 65.6958H96.1494C96.2182 66.6589 96.0348 66.7965 94.98 66.5672C95.0258 66.292 95.0717 66.0168 95.1176 65.6958Z" fill="#006073"/>
<path d="M17.2915 77.3904C17.3374 77.1382 17.3832 76.863 17.4291 76.519C17.6355 76.519 17.8189 76.519 17.9794 76.519C18.1399 76.519 18.3004 76.519 18.4839 76.519C18.4839 77.5509 18.3004 77.6656 17.2915 77.3904Z" fill="#006073"/>
<path d="M43.3634 67.4156C43.2869 68.0883 42.9047 68.3711 42.2168 68.2641C42.171 67.2093 42.3544 67.2322 43.3634 67.4156Z" fill="#006073"/>
<path d="M44.9688 67.4156C44.877 68.4016 44.8082 68.4475 43.7764 68.2411C43.8452 67.2551 43.9369 67.1863 44.9688 67.4156Z" fill="#006073"/>
<path d="M49.1191 70.9927C49.165 70.6946 49.2109 70.4424 49.2567 70.1213H50.2657C50.4032 71.0156 50.2198 71.1761 49.1191 70.9927Z" fill="#006073"/>
<path d="M50.77 70.97C50.7853 70.3585 51.1522 70.068 51.8707 70.0986C52.0541 70.97 51.7331 71.2451 50.77 70.97Z" fill="#006073"/>
<path d="M10.9625 59.3213C10.8937 60.2843 10.779 60.3761 9.793 60.1467C9.74714 59.2295 9.95352 59.0919 10.9625 59.3213Z" fill="#006073"/>
<path d="M13.0952 76.5879C13.1411 77.5051 12.9118 77.6656 11.9258 77.4134C12.0175 76.4274 12.0404 76.3815 13.0952 76.5879Z" fill="#006073"/>
<path d="M13.6914 65.7416C13.6456 66.7047 13.508 66.7964 12.522 66.59C12.5678 65.604 12.6137 65.5811 13.6914 65.7416Z" fill="#006073"/>
<path d="M14.127 66.59C14.1728 65.604 14.2416 65.5582 15.2505 65.7187C15.3881 66.613 15.2047 66.7505 14.127 66.59Z" fill="#006073"/>
<path d="M70.5821 59.2752C70.6509 60.1924 70.4445 60.3529 69.4585 60.1465C69.4585 59.2064 69.5044 59.1605 70.5821 59.2752Z" fill="#006073"/>
<path d="M67.7847 60.1237C67.8917 59.4511 68.2891 59.1759 68.9771 59.2982C69 60.2384 68.8165 60.376 67.7847 60.1237Z" fill="#006073"/>
<path d="M14.7233 76.5878C14.7003 77.505 14.6086 77.5509 13.5997 77.4362C13.485 76.519 13.7143 76.3356 14.7233 76.5878Z" fill="#006073"/>
</svg>
