<svg width="272" height="100" viewBox="0 0 272 100" fill="none" xmlns="http://www.w3.org/2000/svg">
<path d="M24.4219 64.3649C30.9114 64.3649 37.2803 64.3649 43.7698 64.3649C43.7698 64.8293 43.7698 65.2334 43.7698 65.6375C43.7698 71.8496 43.8181 78.0557 43.7457 84.2678C43.7276 85.8962 43.5226 87.5668 43.1064 89.141C41.9183 93.6282 38.4986 96.3844 33.6676 96.9091C32.4735 97.0358 31.2733 97.1021 30.0731 97.1081C24.3374 97.1262 18.6018 97.1323 12.8722 97.1081C10.6949 97.1021 8.55386 96.8066 6.53945 95.9381C2.63728 94.2554 0.846024 91.0649 0.345437 87.0301C0.194658 85.8419 0.15244 84.6357 0.15244 83.4355C0.140378 59.8958 0.134347 36.3622 0.176565 12.8226C0.182596 11.1278 0.41178 9.38481 0.846024 7.74433C2.05829 3.14255 5.85189 0.289816 11.1593 0.163162C17.8177 0.0123823 24.4822 0.0606287 31.1406 0.0847534C32.4674 0.0907845 33.8184 0.265688 35.1151 0.537091C40.127 1.58048 43.1728 5.05443 43.6191 10.1749C43.7156 11.3027 43.7698 12.4366 43.7698 13.5644C43.7819 28.4554 43.7759 43.3463 43.7759 58.2373C43.7759 58.6715 43.7759 59.1118 43.7759 59.6365C43.2753 59.6365 42.9074 59.6365 42.5395 59.6365C35.6398 59.6365 28.7341 59.6365 21.8345 59.6365C20.5921 59.6365 19.808 60.4085 19.808 61.6449C19.808 70.0523 19.802 78.4598 19.808 86.8612C19.808 88.1036 20.5921 88.9118 21.8465 88.8454C22.4859 88.8093 23.1493 88.6464 23.7283 88.375C24.3314 88.0915 24.446 87.4884 24.446 86.8129C24.4219 79.8108 24.4279 72.8146 24.4279 65.8124C24.4219 65.354 24.4219 64.8836 24.4219 64.3649ZM19.7899 29.1791C19.796 29.1791 19.796 29.1791 19.7899 29.1791C19.796 35.1138 19.796 41.0424 19.796 46.9771C19.796 48.4185 20.5257 48.9915 22.329 48.9915C23.6499 48.9915 24.4219 48.2436 24.4219 46.9469C24.4219 35.0836 24.4219 23.2203 24.4219 11.351C24.4219 9.81906 23.7162 9.22801 21.8948 9.22801C20.5438 9.22801 19.7839 9.99999 19.7839 11.3751C19.7899 17.3158 19.7899 23.2505 19.7899 29.1791Z" fill="#006073"/>
<path d="M49.9029 64.2805C56.495 64.2805 62.9423 64.2805 69.5283 64.2805C69.5283 64.763 69.5283 65.1972 69.5283 65.6315C69.5283 72.6638 69.5283 79.6961 69.5283 86.7345C69.5283 88.3147 70.1978 88.8816 72.0252 88.8816C73.4244 88.8756 74.112 88.1759 74.112 86.7526C74.112 78.4477 74.112 70.1488 74.112 61.8439C74.112 60.2517 73.4908 59.6063 71.9227 59.6063C64.9868 59.6003 58.051 59.6003 51.1152 59.6003C50.7473 59.6003 50.3733 59.6003 49.9029 59.6003C49.8848 59.1359 49.8486 58.774 49.8486 58.4061C49.8486 43.1714 49.8426 27.9366 49.8547 12.7019C49.8547 10.4945 50.1441 8.32329 51.0488 6.27269C52.6049 2.74446 55.4697 0.977321 59.1487 0.356111C60.1921 0.181207 61.2656 0.0786824 62.3211 0.0786824C68.8468 0.0726512 75.3665 0.0304301 81.8922 0.151053C85.1913 0.211365 88.2732 1.12208 90.6193 3.67929C92.7061 5.95907 93.4298 8.79975 93.4479 11.755C93.5203 22.5267 93.472 33.3044 93.472 44.0761C93.472 44.1424 93.4419 44.2087 93.4117 44.3414C87.0308 44.3414 80.6317 44.3414 74.112 44.3414C74.112 43.9373 74.112 43.5332 74.112 43.1352C74.112 32.5686 74.112 22.002 74.112 11.4293C74.112 9.79489 73.4546 9.23399 71.5608 9.23399C70.246 9.23399 69.5283 10.012 69.5283 11.4474C69.5283 23.2142 69.5283 34.9871 69.5283 46.7539C69.5283 48.4245 70.1737 49.0699 71.8684 49.0699C78.6354 49.0699 85.3963 49.0699 92.1633 49.0699C92.5674 49.0699 92.9715 49.0699 93.4781 49.0699C93.4781 49.5403 93.4781 49.9142 93.4781 50.2821C93.4781 61.6026 93.4962 72.9292 93.454 84.2497C93.4479 85.679 93.2911 87.1386 92.9654 88.5258C91.8195 93.4472 88.4421 96.3723 83.394 96.9091C82.1696 97.0418 80.9272 97.1081 79.6969 97.1081C73.9612 97.1262 68.2256 97.2106 62.496 97.0659C60.4755 97.0176 58.3646 96.6739 56.4708 95.9743C52.2309 94.4182 50.3311 90.9322 50.0296 86.644C49.7762 82.9892 49.8727 79.3101 49.8486 75.6372C49.8245 72.2054 49.8426 68.7737 49.8486 65.3419C49.8546 65.0163 49.8848 64.6785 49.9029 64.2805Z" fill="#006073"/>
<path d="M118.978 97.066C112.507 97.066 106.101 97.066 99.6421 97.066C99.6421 74.7748 99.6421 52.5378 99.6421 30.2527C106.089 30.2527 112.495 30.2527 118.978 30.2527C118.978 52.5077 118.978 74.7446 118.978 97.066Z" fill="#006073"/>
<path d="M110.07 0.0062812C113.194 0.0062812 116.312 0.000250031 119.437 0.0062812C121.228 0.0123124 122.139 0.850636 122.145 2.61777C122.169 6.97227 122.163 11.3268 122.133 15.6813C122.12 17.37 121.162 18.2867 119.473 18.4436C113.954 18.9622 108.436 19.499 102.917 20.0237C102.133 20.0961 101.349 20.1866 100.565 20.2288C99.3709 20.2951 98.3215 19.2638 98.2853 17.943C98.231 15.9225 98.231 13.9021 98.2009 11.8756C98.1526 8.79369 98.0802 5.71176 98.0501 2.62381C98.032 0.844611 98.9065 0.000244141 100.704 0.000244141C103.822 0.000244141 106.946 0.0062812 110.07 0.0062812Z" fill="#006073"/>
<path d="M132.151 24.33C128.423 24.7642 124.696 25.1985 120.969 25.6388C117.236 26.0791 113.502 26.5555 109.763 26.9596C109.088 27.032 108.316 26.9475 107.706 26.6761C105.366 25.6207 103.074 24.4627 100.771 23.3409C100.505 23.2142 100.264 23.0514 99.7573 22.7619C101.693 22.5689 103.346 22.4 104.998 22.2432C109.154 21.8452 113.303 21.4471 117.459 21.0551C119.232 20.8862 120.999 20.7354 122.772 20.5847C123.074 20.5605 123.418 20.5304 123.683 20.6329C126.536 21.7728 129.376 22.9428 132.223 24.1069C132.193 24.1792 132.169 24.2516 132.151 24.33Z" fill="#006073"/>
<path d="M221.4 97.132C220.7 97.132 219.796 97.132 219 97.132C218.626 96.1549 218.3 95.2683 217.938 94.3938C217.878 94.243 217.667 94.0561 217.516 94.0561C216.623 94.0259 215.731 94.0259 214.838 94.0561C214.687 94.0621 214.47 94.231 214.404 94.3818C214.132 94.9728 213.849 95.5699 213.698 96.1971C213.632 96.4746 213.873 96.8244 213.97 97.138C212.245 97.138 210.399 97.138 208.608 97.138C208.348 95.0874 208.095 93.0971 207.842 91.1129C207.776 91.0948 207.709 91.0767 207.643 91.0586C206.624 93.0851 205.604 95.1115 204.585 97.138C204.476 97.1682 204.362 97.1983 204.253 97.2224C203.222 95.2261 202.191 93.2298 201.027 90.9862C200.791 92.9162 200.556 94.5687 200.411 96.2333C200.387 96.5108 200.761 96.8244 200.936 97.0898C199.543 97.0898 197.999 97.1742 196.467 97.0415C195.985 96.9993 195.484 96.4505 195.104 96.0343C194.573 95.4553 194.085 94.822 193.693 94.1405C193.216 93.3082 192.553 93.1635 191.727 93.3142C191.274 95.4191 191.582 96.7158 192.824 97.1259C191.503 97.1259 190.406 97.1259 189.386 97.1259C189.555 96.7641 189.887 96.372 189.899 95.974C189.959 93.5736 189.99 91.1732 189.917 88.7728C189.905 88.3687 189.362 87.9767 189.103 87.6329C190.376 87.6329 191.877 87.6027 193.379 87.645C194.489 87.6751 195.496 87.9827 195.96 89.1527C196.413 90.2806 195.882 91.143 195.17 91.9452C194.947 92.1985 194.682 92.4156 194.254 92.8197C195.442 94.0923 196.564 95.4191 197.83 96.5831C198.62 97.3069 199.187 97.0113 199.362 95.9318C199.79 93.2901 200.194 90.6485 200.61 88.0128C200.641 87.8259 200.713 87.6449 200.767 87.464C200.87 87.4278 200.972 87.3916 201.075 87.3554C202.293 89.792 203.518 92.2226 204.814 94.81C206.093 92.2226 207.299 89.7921 208.499 87.3675C208.614 87.3796 208.734 87.3916 208.849 87.4037C209.054 88.622 209.271 89.8343 209.464 91.0526C209.699 92.5784 209.911 94.1043 210.146 95.6302C210.242 96.2454 210.351 96.8485 211.189 96.9329C211.997 97.0174 212.395 96.5952 212.673 95.9438C213.77 93.3927 214.868 90.8475 215.966 88.2963C216.099 87.9948 216.243 87.6992 216.503 87.1504C216.786 87.6691 216.979 87.9525 217.118 88.2662C218.155 90.6545 219.15 93.0609 220.23 95.4312C220.513 96.0645 221.026 96.6012 221.4 97.132ZM191.594 88.3808C191.594 89.6292 191.576 90.8535 191.612 92.0779C191.618 92.2467 191.829 92.5 192.004 92.5664C193.053 92.9765 194.163 92.4156 194.398 91.3059C194.887 89.0502 193.488 87.8681 191.594 88.3808ZM216.177 89.8524C215.682 91.1008 215.272 92.1502 214.844 93.2298C215.797 93.2298 216.593 93.2298 217.492 93.2298C217.045 92.0899 216.653 91.0767 216.177 89.8524Z" fill="#006073"/>
<path d="M207.914 69.3465C208.083 68.8942 208.372 68.472 208.384 68.0377C208.438 65.7097 208.457 63.3756 208.39 61.0416C208.378 60.6375 207.914 60.2455 207.703 59.9258C209.138 59.9258 210.863 59.763 212.54 59.968C214.53 60.2153 215.175 62.1513 213.945 63.7556C213.637 64.1597 213.245 64.5035 212.727 65.0463C213.891 66.2887 215.006 67.6216 216.291 68.7675C216.701 69.1294 217.588 69.1173 218.209 69.0088C218.432 68.9665 218.637 68.1463 218.649 67.6759C218.697 65.5167 218.667 63.3575 218.679 61.1924C218.685 60.4566 218.408 60.0102 217.618 59.8896C219.662 59.8896 221.707 59.8896 223.86 59.8896C223.812 60.3842 223.758 60.9451 223.697 61.5844C222.943 60.0706 221.647 60.7219 220.483 60.5048C220.483 61.6809 220.483 62.7243 220.483 63.9546C221.526 63.9004 222.582 63.8521 223.679 63.7978C223.619 64.2984 223.547 64.9257 223.462 65.6434C222.961 64.606 222.304 64.419 220.416 64.7387C220.416 65.7338 220.386 66.7531 220.434 67.7724C220.446 68.0317 220.652 68.3634 220.869 68.5082C221.773 69.0992 223.534 68.6348 224.053 67.7181C224.3 69.2198 224.162 69.3887 222.72 69.3948C220.561 69.3948 218.408 69.3586 216.255 69.4128C215.012 69.443 214.053 69.0449 213.348 68.0196C212.956 67.4587 212.467 66.9521 212.148 66.355C211.695 65.4986 211.02 65.384 210.2 65.4805C209.753 67.5251 210.049 68.8821 211.159 69.3344C209.928 69.3465 208.849 69.3465 207.914 69.3465ZM210.055 60.5772C210.055 61.8256 210.037 63.0198 210.073 64.2079C210.079 64.407 210.302 64.7085 210.495 64.7749C211.538 65.1428 212.413 64.6965 212.787 63.6531C213.487 61.693 212.304 60.2817 210.055 60.5772Z" fill="#006073"/>
<path d="M171.697 59.8351C172.945 59.8351 174.453 59.805 175.955 59.8472C177.022 59.8774 178.023 60.1608 178.476 61.2826C178.934 62.4225 178.464 63.3513 177.692 64.1715C177.457 64.4188 177.185 64.6299 176.799 64.9797C177.939 66.2402 179.001 67.4827 180.146 68.6406C180.448 68.9482 180.991 69.0689 181.443 69.1533C182.3 69.3161 182.704 68.9241 182.698 68.0315C182.68 65.6974 182.722 63.3694 182.667 61.0353C182.655 60.6373 182.288 60.2513 182.095 59.8894C182.999 59.8894 184.133 59.8894 185.056 59.8894C184.875 60.2754 184.471 60.7338 184.459 61.2042C184.392 63.3996 184.417 65.5949 184.441 67.7902C184.447 68.4657 184.423 69.2377 185.448 69.3644C185.002 69.3644 184.555 69.3644 184.109 69.3644C183.253 69.3584 182.366 69.2015 181.546 69.3704C179.115 69.871 177.631 68.713 176.498 66.771C176.021 65.9568 175.508 65.1546 174.32 65.5346C173.759 67.0786 174.139 68.9181 175.183 69.3161C174.996 69.3523 174.869 69.3945 174.736 69.4006C173.784 69.4066 172.825 69.4066 171.974 69.4066C172.155 68.9121 172.457 68.4597 172.469 67.9953C172.523 65.6974 172.541 63.3996 172.469 61.1017C172.463 60.6674 171.974 60.2633 171.697 59.8351ZM174.139 60.5709C174.139 61.7953 174.127 63.0196 174.158 64.2439C174.164 64.4249 174.344 64.6902 174.513 64.7686C175.406 65.1667 176.443 64.7385 176.823 63.8278C177.203 62.9171 177.167 62.0003 176.57 61.1982C175.979 60.4081 175.135 60.3659 174.139 60.5709Z" fill="#006073"/>
<path d="M245.139 96.4263C248.522 98.1451 251.767 100.057 255.735 98.8387C253.226 100.178 250.639 100.389 248.021 99.3152C246.888 98.8508 245.874 98.1029 244.753 97.5842C244.24 97.349 243.589 97.1922 243.046 97.2827C239.801 97.8134 237.214 96.2634 236.604 93.3383C235.965 90.2865 238.209 87.6388 241.592 87.4398C243.993 87.3011 246.079 88.4169 246.882 90.2624C247.75 92.2708 247.213 94.3576 245.386 96.1126C245.319 96.191 245.265 96.2755 245.139 96.4263ZM245.356 92.699C245.422 92.6749 245.488 92.6447 245.555 92.6206C245.217 91.6375 245.006 90.582 244.499 89.6894C243.824 88.5013 242.642 87.9947 241.267 88.1093C240.03 88.2118 239.125 88.8632 238.746 90.0573C238.179 91.8305 238.245 93.5735 239.349 95.1597C240.145 96.3056 241.779 96.9329 243.058 96.6132C244.505 96.2513 245.03 95.1416 245.253 93.8208C245.319 93.4529 245.326 93.0729 245.356 92.699Z" fill="#006073"/>
<path d="M134.496 97.1078C134.653 96.6977 134.937 96.2996 134.949 95.8955C135.009 93.5313 135.051 91.1671 134.991 88.8029C134.979 88.3988 134.436 88.0007 134.279 87.7957C136.185 87.7957 138.441 87.6208 140.654 87.8439C143.012 88.0791 144.309 89.6895 144.448 91.9813C144.593 94.2852 143.338 96.2936 141.203 96.8846C140.099 97.1862 138.911 97.2344 137.759 97.2706C136.631 97.3008 135.504 97.1621 134.496 97.1078ZM136.746 92.1502C136.752 92.1502 136.752 92.1502 136.758 92.1502C136.758 93.2117 136.71 94.2731 136.782 95.3286C136.806 95.7146 137.03 96.2514 137.331 96.4202C139.152 97.4395 141.987 96.1549 142.476 94.1465C143.338 90.6122 141.119 88.0068 137.488 88.248C136.897 88.2842 136.722 88.5134 136.734 89.0682C136.764 90.0996 136.746 91.1249 136.746 92.1502Z" fill="#006073"/>
<path d="M158.399 41.543C155.999 41.543 154.207 40.4091 153.447 38.4188C152.693 36.4466 153.176 34.4081 154.726 32.9847C156.692 31.1814 160.703 31.1754 162.597 33.0451C164.074 34.4986 164.273 36.3139 163.622 38.1836C162.892 40.2704 161.27 41.2957 159.117 41.543C158.881 41.5671 158.634 41.543 158.399 41.543ZM155.034 36.1813C155.034 37.5262 155.341 38.7807 156.306 39.7698C157.229 40.7167 158.375 41.0846 159.69 40.7951C160.956 40.5116 161.632 39.5889 161.825 38.4188C161.987 37.4599 162.006 36.4225 161.825 35.4635C161.445 33.419 159.714 32.1102 157.874 32.3032C156.029 32.5022 155.034 33.8653 155.034 36.1813Z" fill="#006073"/>
<path d="M181.908 97.3493C178.687 97.3312 176.468 95.0937 176.661 92.0721C176.854 89.0685 179.622 87.03 182.903 87.4763C186.051 87.8985 187.674 89.7742 187.438 92.7114C187.221 95.4857 184.978 97.3735 181.908 97.3493ZM178.579 91.9816C178.494 92.0178 178.41 92.0479 178.325 92.0841C178.741 93.1396 179.007 94.2915 179.61 95.2324C180.412 96.4869 181.733 96.903 183.21 96.5894C184.616 96.2878 185.249 95.2444 185.412 93.9477C185.52 93.0491 185.532 92.0962 185.352 91.2156C184.917 89.1228 183.174 87.8683 181.28 88.1216C179.513 88.3508 178.572 89.7018 178.579 91.9816Z" fill="#006073"/>
<path d="M227.902 41.5672C225.525 41.5431 223.71 40.373 222.968 38.3888C222.22 36.3804 222.751 34.3117 224.355 32.8883C226.581 30.9101 232.25 31.1091 233.294 34.9812C234.24 38.4853 231.713 41.6094 227.902 41.5672ZM231.557 36.9232C231.641 36.887 231.719 36.8448 231.804 36.8086C231.364 35.729 231.074 34.5529 230.441 33.594C229.723 32.4963 228.487 32.1405 227.172 32.3455C226.032 32.5204 225.224 33.1658 224.862 34.2755C224.307 35.9884 224.44 37.653 225.393 39.203C226.128 40.4092 227.66 41.0847 229.011 40.8555C230.284 40.6384 231.122 39.7096 231.424 38.1415C231.508 37.7434 231.514 37.3333 231.557 36.9232Z" fill="#006073"/>
<path d="M189.115 41.3563C188.415 41.3563 187.474 41.3563 186.527 41.3563C187.438 41.0789 187.329 40.325 187.348 39.6736C187.396 37.3456 187.408 35.0175 187.438 32.6835C187.444 32.3578 187.474 32.0381 187.498 31.7124C187.583 31.6642 187.673 31.622 187.758 31.5737C190.158 33.95 192.552 36.3323 195.013 38.7749C195.013 36.6399 195.049 34.6737 194.977 32.7076C194.965 32.4241 194.434 32.1588 194.169 31.9054C195.013 31.9054 195.996 31.9054 196.756 31.9054C196.587 32.3457 196.225 32.8704 196.201 33.4132C196.093 35.7714 196.087 38.1356 196.039 40.4999C196.032 40.8255 195.996 41.1512 195.972 41.4769C195.87 41.5432 195.767 41.6036 195.671 41.6699C193.288 39.36 190.912 37.05 188.361 34.5712C188.361 35.2407 188.349 35.7533 188.361 36.2599C188.391 37.4601 188.385 38.6604 188.506 39.8485C188.554 40.3611 188.898 40.8436 189.115 41.3563Z" fill="#006073"/>
<path d="M157.204 87.3738C159.562 89.7802 161.92 92.1806 164.363 94.6655C164.363 92.4882 164.399 90.5221 164.327 88.5559C164.315 88.2362 163.79 87.9407 163.555 87.6874C164.363 87.6874 165.37 87.6874 166.13 87.6874C165.949 88.0855 165.593 88.5318 165.569 88.9962C165.461 91.4267 165.443 93.8573 165.388 96.2939C165.382 96.6196 165.346 96.9452 165.328 97.2709C165.225 97.3373 165.129 97.4036 165.026 97.476C162.65 95.1721 160.274 92.8682 157.922 90.5884C157.922 92.4762 157.892 94.3699 157.952 96.2577C157.964 96.5532 158.374 96.8367 158.621 97.1503C157.741 97.1503 156.812 97.1503 156.179 97.1503C156.348 96.6437 156.667 96.1129 156.685 95.5762C156.77 93.2481 156.764 90.9141 156.8 88.586C156.806 88.2242 156.848 87.8683 156.878 87.5065C156.981 87.4522 157.089 87.416 157.204 87.3738Z" fill="#006073"/>
<path d="M236.76 34.6315C236.266 37.8099 236.67 40.7953 237.792 41.32C236.688 41.32 235.771 41.32 235.072 41.32C235.235 40.8194 235.572 40.2525 235.596 39.6675C235.687 37.4058 235.669 35.1441 235.699 32.8764C235.705 32.4844 235.753 32.0923 236.037 31.5676C238.443 33.962 240.844 36.3503 243.268 38.7628C243.268 36.67 243.304 34.6978 243.226 32.7316C243.214 32.418 242.671 32.1285 242.418 31.8752C243.256 31.8752 244.257 31.8752 245.011 31.8752C244.848 32.2853 244.505 32.7618 244.486 33.2503C244.378 35.6447 244.36 38.0511 244.305 40.4455C244.299 40.7772 244.275 41.1089 244.239 41.8206C241.483 39.4865 239.197 37.0922 236.76 34.6315Z" fill="#006073"/>
<path d="M136.812 35.1018C137.964 35.0354 139.068 34.9691 140.214 34.9027C140.166 35.4455 140.106 36.115 140.027 36.9956C139.4 35.0535 137.964 36.0125 136.758 35.7049C136.758 37.1282 136.734 38.4189 136.776 39.7096C136.782 39.9689 136.987 40.3127 137.211 40.4574C138.242 41.1329 140.057 40.5901 140.606 39.4925C140.63 39.4442 140.709 39.4322 140.884 39.3296C140.805 39.9267 140.835 40.4936 140.63 40.952C140.516 41.2113 140.021 41.4405 139.689 41.4466C137.808 41.4948 135.926 41.4707 134.183 41.4707C134.436 40.8977 134.816 40.4213 134.828 39.9388C134.895 37.1282 134.87 34.3177 134.889 31.5072C134.895 30.6749 134.418 30.3733 133.676 30.2346C135.896 30.2346 138.115 30.2346 140.473 30.2346C140.419 30.8498 140.365 31.5012 140.28 32.4179C139.732 30.9584 138.972 30.699 136.806 31.0126C136.812 32.3154 136.812 33.6302 136.812 35.1018Z" fill="#006073"/>
<path d="M248.619 87.6509C249.849 87.6509 251.073 87.6509 252.081 87.6509C251.894 88.0489 251.514 88.4892 251.496 88.9415C251.435 90.6544 251.447 92.3733 251.526 94.0801C251.604 95.7447 252.503 96.6313 253.992 96.6735C255.488 96.7217 256.441 95.9136 256.556 94.2188C256.682 92.4095 256.658 90.588 256.586 88.7727C256.568 88.3806 256.067 88.0067 255.82 87.669C256.658 87.669 257.696 87.669 258.727 87.669C257.816 87.8198 257.87 88.5133 257.852 89.1707C257.816 90.8172 257.858 92.4637 257.714 94.0982C257.527 96.1669 256.176 97.3007 254.053 97.355C251.429 97.4214 250.078 96.5649 249.807 94.3455C249.596 92.6205 249.698 90.8594 249.662 89.1104C249.644 88.0791 249.638 88.067 248.619 87.6509Z" fill="#006073"/>
<path d="M195.652 59.866C196.979 59.866 198.191 59.866 199.15 59.866C198.969 60.3304 198.644 60.8189 198.62 61.3195C198.553 62.8574 198.553 64.4014 198.614 65.9454C198.686 67.809 199.524 68.7921 200.984 68.8886C202.516 68.9851 203.613 68.1166 203.692 66.5907C203.782 64.7452 203.794 62.8876 203.722 61.042C203.704 60.6199 203.215 60.2097 202.986 59.866C203.758 59.866 204.784 59.866 205.556 59.866C205.375 60.3123 205.037 60.7887 205.007 61.2893C204.922 62.7609 205.001 64.2386 204.946 65.7102C204.892 67.1396 204.506 68.4604 203.071 69.1117C201.484 69.8355 199.856 69.8053 198.33 68.9489C197.323 68.382 196.937 67.3567 196.895 66.253C196.834 64.6788 196.847 63.1047 196.834 61.5245C196.822 60.3364 196.792 60.2942 195.652 59.866Z" fill="#006073"/>
<path d="M142.699 59.8718C143.911 59.8718 145.13 59.8718 146.143 59.8718C145.938 60.2277 145.528 60.6076 145.522 60.9936C145.48 62.8392 145.48 64.6968 145.6 66.5363C145.703 68.0682 146.65 68.8764 148.067 68.8824C149.557 68.8945 150.467 68.1164 150.576 66.488C150.697 64.6787 150.697 62.8573 150.624 61.0479C150.606 60.6257 150.105 60.2216 149.87 59.8718C150.666 59.8718 151.71 59.8718 152.44 59.8718C152.265 60.3302 151.921 60.8368 151.891 61.3615C151.794 62.9357 151.885 64.5158 151.788 66.0839C151.637 68.4361 150.184 69.6001 147.59 69.5579C145.142 69.5217 143.833 68.3275 143.743 65.9693C143.688 64.4977 143.706 63.0201 143.725 61.5485C143.743 60.7584 143.761 59.9985 142.699 59.8718Z" fill="#006073"/>
<path d="M140.563 58.1591C140.563 59.0035 140.563 59.6609 140.563 60.3243C140.057 59.305 139.418 58.5089 138.223 58.6899C137.681 58.7743 136.939 59.1241 136.758 59.5583C136.553 60.0348 136.697 60.8852 137.029 61.3134C137.554 62.001 138.362 62.4774 139.038 63.0564C139.96 63.8465 140.793 64.6909 140.919 66.0057C141.082 67.7185 140.214 69.1298 138.537 69.4495C137.59 69.6304 136.571 69.4917 135.588 69.4314C134.918 69.3891 134.653 68.9549 134.737 68.2854C134.804 67.7185 134.834 67.1456 135.045 66.5545C135.135 66.8862 135.202 67.224 135.316 67.5496C135.63 68.4121 136.257 68.8584 137.18 68.9187C138.067 68.973 138.839 68.774 139.255 67.9115C139.659 67.0671 139.412 66.2831 138.802 65.6438C138.308 65.1251 137.687 64.7331 137.186 64.2204C136.547 63.563 135.811 62.9298 135.401 62.1397C134.52 60.451 135.334 58.6175 137.192 58.2134C138.272 57.9661 139.448 58.1591 140.563 58.1591Z" fill="#006073"/>
<path d="M151.613 39.4866C151.625 41.2115 151.408 41.4527 149.52 41.5372C147.789 41.6156 146.082 41.5191 144.592 40.4817C143.03 39.4022 142.445 37.8642 142.632 36.0247C142.831 34.0646 143.905 32.7317 145.744 32.0622C147.692 31.3566 149.646 31.6461 151.589 32.0622C151.589 32.8644 151.589 33.576 151.589 34.2817C150.678 32.0863 148.85 32.1527 147.041 32.5025C146.378 32.6292 145.666 33.1539 145.232 33.6967C144.237 34.9451 144.303 37.4722 145.214 38.8594C146.221 40.3973 147.903 41.1572 149.755 40.6808C150.443 40.5059 151.022 39.8786 151.613 39.4866Z" fill="#006073"/>
<path d="M251.109 31.5857C251.375 32.1647 251.658 32.7377 251.906 33.3287C252.828 35.4698 253.703 37.6289 254.674 39.7398C254.957 40.361 255.512 40.8616 255.88 41.3381C255.162 41.3381 254.216 41.3381 253.401 41.3381C253.033 40.3611 252.714 39.4684 252.352 38.5939C252.292 38.4431 252.074 38.2622 251.924 38.2562C251.031 38.226 250.138 38.226 249.246 38.2562C249.089 38.2622 248.872 38.4311 248.806 38.5819C248.534 39.1729 248.263 39.77 248.1 40.3972C248.028 40.6626 248.215 41.0004 248.293 41.3381C247.605 41.3381 246.737 41.3381 246.049 41.3381C246.399 40.8858 246.912 40.4153 247.177 39.8363C248.287 37.4058 249.312 34.939 250.374 32.4904C250.506 32.1888 250.651 31.8933 250.796 31.5978C250.904 31.5978 251.007 31.5917 251.109 31.5857ZM250.585 34.0524C250.096 35.2949 249.686 36.3443 249.252 37.4601C250.187 37.4601 250.977 37.4601 251.9 37.4601C251.453 36.3081 251.061 35.2768 250.585 34.0524Z" fill="#006073"/>
<path d="M207.643 41.3623C206.949 41.3623 206.033 41.3623 205.2 41.3623C204.839 40.4093 204.525 39.5228 204.151 38.6603C204.067 38.4733 203.789 38.2924 203.578 38.2562C203.21 38.1899 202.824 38.2381 202.45 38.2381C200.647 38.2381 200.189 38.6 199.869 40.4154C199.821 40.6868 200.026 41.0064 200.122 41.3442C199.423 41.3442 198.554 41.3442 197.854 41.3442C198.204 40.8858 198.705 40.4154 198.97 39.8364C200.074 37.4058 201.105 34.9391 202.167 32.4904C202.299 32.1889 202.456 31.8994 202.716 31.3867C203.005 31.9175 203.216 32.2371 203.367 32.5869C204.386 34.9451 205.369 37.3154 206.431 39.6554C206.714 40.2827 207.239 40.8074 207.643 41.3623ZM203.693 37.4903C203.234 36.3021 202.842 35.2768 202.366 34.0344C201.871 35.307 201.467 36.3564 201.027 37.4903C201.956 37.4903 202.728 37.4903 203.693 37.4903Z" fill="#006073"/>
<path d="M163.585 69.4011C163.802 68.9608 164.122 68.611 164.134 68.2491C164.194 65.8186 164.225 63.382 164.158 60.9454C164.146 60.5654 163.615 60.1975 163.368 59.8718C165.196 59.8718 167.222 59.8718 169.375 59.8718C169.351 60.3724 169.321 60.8971 169.285 61.5967C168.458 60.095 167.21 60.6438 166.022 60.5594C166.022 61.6993 166.022 62.7427 166.022 63.8223C167.077 63.8223 168.109 63.8223 169.206 63.8223C169.164 64.3108 169.116 64.8777 169.062 65.5411C168.326 64.2203 167.162 64.7149 165.998 64.5942C165.998 65.7583 165.974 66.8378 166.016 67.9114C166.028 68.1285 166.257 68.412 166.462 68.5266C167.433 69.0875 169.092 68.611 169.635 67.6581C169.846 69.19 169.689 69.383 168.205 69.389C166.637 69.4071 165.069 69.4011 163.585 69.4011Z" fill="#006073"/>
<path d="M266.248 91.6197C266.205 92.1143 266.163 92.6873 266.109 93.3507C265.391 92.0057 264.209 92.5304 263.057 92.3857C263.057 93.5859 263.039 94.6956 263.075 95.8054C263.081 95.9863 263.31 96.2215 263.497 96.3301C264.48 96.891 266.127 96.4266 266.676 95.4676C266.923 96.9996 266.772 97.1925 265.277 97.1925C263.702 97.1925 262.122 97.1925 260.687 97.1925C260.88 96.7402 261.181 96.3542 261.193 95.9682C261.248 93.5678 261.278 91.1674 261.218 88.767C261.206 88.381 260.705 88.0071 260.47 87.6814C262.267 87.6814 264.293 87.6814 266.441 87.6814C266.41 88.176 266.38 88.7007 266.338 89.3762C265.506 87.9045 264.257 88.4594 263.075 88.3629C263.075 89.5149 263.075 90.5583 263.075 91.7585C264.149 91.7163 265.18 91.668 266.248 91.6197Z" fill="#006073"/>
<path d="M158.054 69.3525C156.902 69.3525 155.744 69.3525 154.755 69.3525C154.918 68.8579 155.225 68.3513 155.237 67.8326C155.292 65.6011 155.25 63.3756 155.268 61.144C155.274 60.3781 154.942 59.9861 154.17 59.98C156.009 59.98 157.873 59.775 159.67 60.0343C161.474 60.2937 161.962 62.3925 160.762 63.9365C160.086 64.7989 159.043 65.197 158.126 65.0583C158.573 64.5818 159.302 64.0873 159.598 63.4118C159.827 62.881 159.646 62.0668 159.417 61.4758C159.26 61.0656 158.748 60.6917 158.307 60.5047C157.312 60.0826 156.968 60.366 156.968 61.4637C156.968 63.5927 156.962 65.7157 156.974 67.8447C156.98 68.5744 157.083 69.268 158.054 69.3525Z" fill="#006073"/>
<path d="M179.851 31.8813C179.821 32.3638 179.79 32.8343 179.754 33.4434C178.813 32.201 177.631 32.6533 176.455 32.5387C176.455 33.7088 176.455 34.7522 176.455 35.8318C177.499 35.8318 178.506 35.8318 179.652 35.8318C179.622 36.272 179.579 36.8148 179.531 37.4783C178.681 36.2359 177.541 36.7545 176.437 36.5857C176.437 37.7798 176.407 38.8353 176.461 39.8847C176.473 40.132 176.733 40.4577 176.968 40.5783C177.999 41.103 179.531 40.6145 180.116 39.6314C180.309 41.2297 180.158 41.4106 178.608 41.4046C177.064 41.4046 175.526 41.4046 174.127 41.4046C174.314 40.8799 174.61 40.4275 174.622 39.9752C174.67 37.6773 174.688 35.3794 174.616 33.0816C174.604 32.6594 174.127 32.2492 173.898 31.8874C175.665 31.8813 177.686 31.8813 179.851 31.8813Z" fill="#006073"/>
<path d="M265.355 31.8447C267.165 31.8447 269.179 31.8447 271.314 31.8447C271.29 32.3272 271.266 32.8097 271.236 33.4309C270.307 32.2247 269.143 32.6408 267.967 32.5443C267.967 33.6782 267.967 34.7457 267.967 35.8193C268.992 35.8193 269.993 35.8193 271.133 35.8193C271.103 36.2595 271.061 36.8084 271.013 37.502C270.192 36.2354 269.047 36.7481 267.925 36.5852C267.925 37.7734 267.901 38.859 267.949 39.9386C267.961 40.1496 268.202 40.4331 268.407 40.5477C269.414 41.1146 271.019 40.6321 271.556 39.643C271.845 41.0784 271.604 41.3981 270.235 41.3981C268.661 41.3981 267.086 41.3981 265.579 41.3981C265.778 40.8975 266.091 40.4572 266.103 40.017C266.158 37.6889 266.176 35.3549 266.097 33.0268C266.091 32.6107 265.597 32.2006 265.355 31.8447Z" fill="#006073"/>
<path d="M193.994 59.8533C193.934 60.4202 193.879 60.9268 193.813 61.5722C193.047 60.0704 191.769 60.7157 190.605 60.5348C190.605 61.6988 190.605 62.7663 190.605 63.9786C191.678 63.9243 192.709 63.8761 193.795 63.8218C193.741 64.3043 193.674 64.9376 193.59 65.7216C192.969 64.063 191.684 64.835 190.544 64.5757C190.544 65.7518 190.52 66.8012 190.562 67.8506C190.574 68.0798 190.761 68.3753 190.954 68.5201C191.799 69.1232 193.644 68.6588 194.157 67.7541C194.465 69.1292 194.265 69.4066 192.957 69.4127C191.352 69.4187 189.754 69.4127 188.24 69.4127C188.433 68.9422 188.711 68.5744 188.723 68.2004C188.777 65.8 188.813 63.3996 188.759 60.9992C188.747 60.6132 188.24 60.2393 187.963 59.8593C188.765 59.8593 189.784 59.8593 190.804 59.8593C191.817 59.8533 192.842 59.8533 193.994 59.8533Z" fill="#006073"/>
<path d="M220.863 87.6091C223.777 87.6091 226.575 87.6091 229.434 87.6091C229.434 88.2243 229.434 88.7611 229.434 89.3039C228.692 88.3932 227.986 88.2243 226.068 88.5198C226.068 91.071 226.038 93.6282 226.105 96.1794C226.117 96.5111 226.653 96.8308 226.913 97.1142C225.948 97.1142 224.772 97.1142 223.734 97.1142C223.897 96.6921 224.229 96.2337 224.235 95.7633C224.289 93.3689 224.259 90.9805 224.259 88.4475C222.98 88.5138 221.666 87.965 220.514 89.4004C220.664 88.6586 220.767 88.1338 220.863 87.6091Z" fill="#006073"/>
<path d="M215.659 31.7964C215.659 32.4478 215.659 32.9604 215.659 33.6118C214.778 32.1462 213.475 32.7795 212.281 32.6046C212.281 35.2945 212.251 37.8879 212.317 40.4752C212.323 40.7828 212.866 41.0723 213.131 41.3437C212.1 41.3437 210.96 41.3437 209.917 41.3437C210.098 40.9638 210.405 40.6019 210.411 40.234C210.454 37.7431 210.436 35.2462 210.436 32.7674C208.699 32.3935 207.667 32.5804 206.75 33.5394C206.877 32.8337 206.974 32.297 207.064 31.7964C209.953 31.7964 212.752 31.7964 215.659 31.7964Z" fill="#006073"/>
<path d="M174.609 91.6379C174.549 92.1687 174.495 92.7054 174.423 93.3689C173.759 91.9274 172.547 92.5667 171.449 92.3737C171.449 93.7669 171.407 95.0877 171.485 96.3965C171.503 96.6498 172.022 96.8669 172.306 97.1021C171.25 97.1021 170.104 97.1021 169.097 97.1021C169.242 96.7644 169.525 96.4025 169.537 96.0346C169.604 93.6041 169.646 91.1675 169.592 88.7369C169.586 88.363 169.037 88.0011 168.777 87.6875C170.641 87.6875 172.722 87.6875 174.839 87.6875C174.839 88.17 174.839 88.6404 174.839 89.334C173.898 87.8443 172.625 88.4957 171.419 88.3449C171.419 89.4908 171.419 90.5342 171.419 91.6319C172.468 91.6379 173.494 91.6379 174.609 91.6379Z" fill="#006073"/>
<path d="M153.911 97.1441C152.626 97.1441 151.335 97.1441 150.244 97.1441C150.431 96.7038 150.78 96.2514 150.792 95.787C150.865 92.9826 150.871 90.172 150.871 87.3675C150.871 86.7162 150.708 86.101 149.833 86.0527C151.118 86.0527 152.403 86.0527 153.41 86.0527C153.211 86.4206 152.759 86.879 152.747 87.3495C152.692 90.1539 152.753 92.9645 152.759 95.769C152.753 96.5349 152.994 97.0476 153.911 97.1441Z" fill="#006073"/>
<path d="M263.685 39.6494C263.811 41.3261 263.745 41.3985 262.129 41.3985C260.488 41.3985 258.854 41.3985 257.37 41.3985C257.557 40.8617 257.859 40.3792 257.871 39.8846C257.925 37.6229 257.937 35.3613 257.871 33.0996C257.859 32.6653 257.406 32.2492 257.183 31.8752C258.142 31.8752 259.348 31.8752 260.561 31.8752C259.541 32.0682 259.638 32.8704 259.638 33.6122C259.632 35.3613 259.602 37.1103 259.656 38.8533C259.674 39.5047 259.427 40.349 260.476 40.5843C261.99 40.928 262.967 40.6747 263.528 39.7158C263.552 39.6735 263.63 39.6675 263.685 39.6494Z" fill="#006073"/>
<path d="M165.69 31.8687C166.661 31.8687 167.873 31.8687 169.092 31.8687C168.084 32.0315 168.151 32.7975 168.151 33.5272C168.151 35.2763 168.108 37.0253 168.175 38.7743C168.199 39.4438 167.885 40.4028 169.019 40.5716C171.003 40.8611 171.715 40.6862 172.119 39.6308C172.475 41.0541 172.228 41.3919 170.822 41.3919C169.116 41.3979 167.409 41.3919 165.889 41.3919C166.076 40.8853 166.377 40.4329 166.39 39.9745C166.444 37.6767 166.456 35.3788 166.39 33.0809C166.371 32.6587 165.913 32.2426 165.69 31.8687Z" fill="#006073"/>
<path d="M234.663 97.1566C233.577 97.1566 232.492 97.1566 231.478 97.1566C231.635 96.7465 231.925 96.3364 231.937 95.9142C231.991 93.556 232.015 91.1918 231.961 88.8336C231.949 88.4235 231.514 88.0194 231.297 87.6636C232.274 87.6636 233.45 87.6636 234.415 87.6636C234.21 88.0315 233.794 88.4356 233.782 88.8517C233.722 91.1737 233.752 93.5017 233.776 95.8298C233.776 96.4208 233.758 97.0782 234.663 97.1566Z" fill="#006073"/>
<path d="M217.618 41.3317C217.793 40.9216 218.088 40.5416 218.094 40.1556C218.143 37.7613 218.155 35.3669 218.1 32.9725C218.088 32.5865 217.666 32.2126 217.455 31.8628C218.438 31.8628 219.584 31.8628 220.519 31.8628C220.32 32.2488 219.91 32.683 219.898 33.1293C219.831 35.385 219.849 37.6467 219.898 39.9023C219.91 40.5055 219.819 41.3378 220.881 41.3378C219.741 41.3317 218.607 41.3317 217.618 41.3317Z" fill="#006073"/>
<path d="M146.13 86.0408C146.625 86.0408 147.047 86.0408 147.554 86.0408C147.343 87.2048 147.138 88.3025 146.939 89.4062C146.878 89.4062 146.818 89.4062 146.764 89.4122C146.553 88.3085 146.347 87.2108 146.13 86.0408Z" fill="#006073"/>
<path d="M165.46 58.3761C166.329 57.7126 167.197 57.0492 168.168 56.3074C168.422 56.7959 168.597 57.1336 168.784 57.4895C167.638 57.8393 166.588 58.1589 165.539 58.4846C165.509 58.4424 165.485 58.4122 165.46 58.3761Z" fill="#006073"/>
</svg>
