<svg width="113" height="100" viewBox="0 0 113 100" fill="none" xmlns="http://www.w3.org/2000/svg">
<g clip-path="url(#clip0_39_5)">
<path d="M48.6683 65.6199C51.5422 56.7854 49.5731 49.3879 42.8674 43.3208C42.0159 42.5757 40.8982 42.15 39.8871 41.5646C39.621 42.6822 39.1952 43.7998 39.1952 44.9174C38.9823 55.7743 41.2175 65.9392 47.6039 74.9334C53.192 82.8099 60.7492 87.8126 70.1159 90.1543C71.0206 90.3671 71.9254 90.4203 72.8301 90.6332C72.9366 90.6332 72.9898 90.7929 73.2027 91.059C70.0627 93.7732 66.497 95.6891 62.7716 97.3389C55.6933 100.479 48.2958 100.532 40.7918 99.3613C34.3522 98.3501 28.1255 96.7003 22.3777 93.4539C15.6188 89.6753 10.9887 83.8743 7.2101 77.2751C4.54911 72.6449 1.78168 67.9616 1.08982 62.5332C-0.719654 49.0686 3.00573 34.0606 18.2798 27.9403C21.8988 26.5034 25.9435 26.1308 29.8285 25.4922C31.1058 25.2793 31.7976 24.8003 32.5427 23.7359C35.0441 20.2766 37.705 16.9238 40.5257 13.6774C41.4304 12.613 41.9094 11.7615 40.6854 10.9632C39.3549 10.0584 37.9179 8.94083 36.4278 8.78117C29.6689 7.92966 23.7082 10.3778 17.9605 13.6774C17.6412 13.8903 17.2686 14.0499 17.0558 14.2096C17.8008 15.4336 18.5991 16.2319 18.8652 17.1899C19.3974 19.0526 18.5459 20.8621 17.0025 21.5539C15.4592 22.299 13.2239 21.82 12.266 20.596C11.1484 19.1058 11.0951 16.8706 12.5853 15.4869C15.2463 13.092 17.9073 10.6439 20.8344 8.67473C26.795 4.63003 33.5007 2.44802 40.5257 1.11752C45.688 -9.40833e-05 50.9568 -0.372633 56.1191 0.425664C62.5055 1.38362 68.679 3.13987 73.6284 7.66356C74.4267 8.40863 75.0653 9.26015 75.8104 10.0584C72.085 10.8035 68.5193 11.2293 65.1665 12.2405C57.556 14.4757 51.5954 19.2123 46.646 25.3858C45.6348 26.663 45.7945 27.6742 46.8589 28.845C49.5198 31.7721 52.3937 34.5928 54.6822 37.8392C61.175 47.0994 58.6204 59.7125 49.2537 65.4603C49.1473 65.5135 48.9876 65.5135 48.6683 65.6199ZM70.9142 92.3895C70.9142 92.1766 70.861 91.9105 70.8078 91.6976C69.3708 91.4847 67.8807 91.1654 66.4437 91.1654C61.7604 91.1122 57.4496 89.7817 53.3517 87.7061C42.1755 82.1713 35.6827 72.6449 31.4783 61.3623C28.8706 54.4438 27.6465 47.2059 27.7529 39.8083C27.7529 37.6263 27.4868 37.4134 25.4645 38.0521C16.0978 40.9259 10.3501 49.2282 12.4256 59.3932C14.7141 70.3565 20.4086 79.5103 28.9238 86.8014C39.8338 96.1149 52.2341 98.6694 66.018 94.5715C67.721 94.0393 69.3176 93.1878 70.9674 92.4427L70.9142 92.3895Z" fill="#006073"/>
<path d="M110.243 47.4189C108.381 47.4189 106.518 47.5254 104.709 47.3657C104.23 47.3657 103.644 46.6738 103.378 46.1416C101.782 43.0549 99.5463 41.5647 95.8741 41.8308C91.723 42.0969 87.5186 41.9905 83.3675 41.8308C81.558 41.8308 80.9194 42.3098 80.9726 44.1725C81.079 53.6989 80.9726 63.2784 80.9726 72.8048C80.9726 73.5498 80.9726 74.3481 80.9726 75.0932C77.194 74.9868 75.757 73.4966 75.7038 69.8777C75.7038 64.5025 75.7038 59.1273 75.7038 53.7521C75.7038 51.5168 74.6394 50.8782 72.5639 51.8362C70.8608 52.6345 70.0093 54.0714 70.0093 55.7744C70.0093 60.4046 70.2754 65.0347 70.2222 69.6648C70.2222 74.561 75.4377 78.925 80.8129 78.9783C89.1152 79.1379 98.5351 72.4322 101.409 64.2896C102.207 61.9479 102.686 59.4466 103.059 56.9985C103.538 53.8585 102.58 52.528 99.5463 51.3572C99.3866 51.304 99.3334 51.0911 99.0141 50.6653H112.745C108.328 52.4216 108.115 56.4131 107.263 60.1385C104.815 71.0485 99.2802 79.6169 88.4766 83.768C81.1855 86.5887 73.3621 84.7792 68.732 79.6169C65.9114 76.4769 64.9534 72.6983 64.847 68.6536C64.7405 64.6621 64.7938 60.7239 64.7938 56.7324C64.7938 54.6036 64.5277 52.7409 62.0263 52.1555C61.7602 52.1023 61.6538 51.5701 61.2812 50.9846C62.0795 50.8782 62.6117 50.7718 63.1972 50.7718C66.4968 50.7718 69.8496 50.6121 73.1493 50.6653C74.9587 50.6653 75.757 50.1864 75.757 48.164C75.6506 39.7553 75.6506 31.3465 75.6506 22.9378C75.6506 20.4365 74.6926 18.6802 72.2978 17.6158C70.5415 16.8708 68.9449 15.9128 67.2951 14.6355C68.9449 14.3694 70.5947 13.8904 72.2445 13.8372C77.194 13.6776 82.1966 13.305 86.9864 15.0081C93.5857 17.3497 98.9609 21.0219 100.983 28.1534C101.356 29.4839 101.462 30.9208 101.356 32.2513C101.249 34.114 101.941 35.4445 103.325 36.5621C103.857 36.9878 104.336 37.4668 104.868 37.8394C108.168 40.0214 110.137 42.9485 110.35 47.3125L110.243 47.4189ZM81.1322 28.1001C81.1322 30.1757 81.1322 32.1981 81.1322 34.2736C81.1322 35.7638 81.7709 36.6153 83.4207 36.6153C85.922 36.5621 88.4766 36.6153 90.9779 36.6153C94.2775 36.5089 95.9806 34.4865 95.5016 31.2401C94.6501 25.8117 89.0088 20.6494 82.6224 20.4365C81.4516 20.4365 81.1322 21.0219 81.1322 22.0331C81.1322 24.1087 81.1322 26.131 81.1322 28.2066V28.1001Z" fill="#006073"/>
<path d="M58.6736 33.2623C56.5448 33.2623 54.895 31.5593 54.895 29.4837C54.895 27.4613 56.7577 25.7051 58.7801 25.7051C60.8556 25.7051 62.4522 27.4081 62.399 29.5901C62.399 31.8786 60.9089 33.2623 58.6204 33.2623H58.6736Z" fill="#006073"/>
</g>
<defs>
<clipPath id="clip0_39_5">
<rect width="112.081" height="100" fill="white" transform="translate(0.664062)"/>
</clipPath>
</defs>
</svg>
