<svg width="85" height="100" viewBox="0 0 85 100" fill="none" xmlns="http://www.w3.org/2000/svg">
<g clip-path="url(#clip0_40_9)">
<path d="M84.7764 36.5864C84.8599 39.5099 85.1105 42.169 84.9434 44.8141C84.7625 47.4732 84.8877 50.174 84.1777 52.8052C83.8436 54.0303 83.7879 55.3251 83.5095 56.5641C83.2867 57.5943 82.9387 58.5967 82.6324 59.613C82.4375 60.2255 82.2565 60.852 82.0199 61.4506C81.4073 63.0656 80.8783 64.7222 80.0987 66.2536C79.2077 68.0356 78.1357 69.7202 77.0776 71.4047C76.1727 72.8526 75.2678 74.2865 74.2376 75.6508C72.6923 77.6695 71.0913 79.6325 69.4346 81.5676C67.3185 84.0317 64.8265 86.0922 62.3345 88.1526C60.5804 89.6004 58.687 90.8812 56.8354 92.1899C55.5268 93.1226 54.1903 94.0276 52.812 94.8629C51.4755 95.6842 50.0973 96.4221 48.7329 97.1739C47.4521 97.8839 46.1713 98.58 44.8766 99.2621C44.3754 99.5266 43.8464 99.7912 43.3035 99.9443C42.9972 100.028 42.5934 99.9861 42.3011 99.8469C41.5215 99.5266 40.7836 99.1229 40.0318 98.747C38.6257 98.0231 37.1779 97.3549 35.8135 96.5613C34.1569 95.6146 32.528 94.6123 30.9548 93.5403C28.7413 92.0507 26.5277 90.5471 24.4255 88.9043C22.5043 87.4286 20.6388 85.8555 18.9125 84.157C16.6154 81.8878 14.388 79.535 12.2858 77.0708C10.7405 75.2471 9.37612 73.2424 8.0814 71.2376C6.91197 69.4278 5.88176 67.5205 4.90724 65.5993C4.36429 64.5273 4.04409 63.3301 3.61251 62.1885C3.27839 61.2836 2.88858 60.4065 2.63799 59.4877C2.34563 58.4435 2.1368 57.3716 1.9419 56.3135C1.59386 54.3923 1.21797 52.4572 0.967377 50.522C0.786394 49.0742 0.758551 47.6124 0.744629 46.1506C0.744629 43.3941 0.744629 40.6376 0.842081 37.8811C0.91169 36.1269 1.14836 34.3728 1.38503 32.6326C1.67739 30.5026 2.02543 28.3865 2.37347 26.2703C2.59622 24.8782 2.83289 23.4999 3.11133 22.1077C3.27839 21.3003 3.51506 20.5067 3.72389 19.6993C4.08585 18.2514 4.40605 16.7896 4.80978 15.3557C5.25528 13.8104 5.79823 12.2929 6.27157 10.7615C6.6753 9.46678 7.03726 8.15814 7.45492 6.87733C7.81688 5.79144 8.22061 4.71946 8.63827 3.64749C8.68003 3.55003 9.02808 3.4665 9.13945 3.53611C10.9214 4.56632 12.8148 5.34594 14.7778 5.90281C16.8799 6.50145 19.0378 6.7938 21.2375 6.94694C23.0891 7.08616 24.8989 6.89126 26.6809 6.65459C28.7413 6.39007 30.7599 5.76359 32.7508 5.13711C34.2961 4.64985 35.8135 4.03729 37.2475 3.28552C39.0155 2.36668 40.6862 1.28079 42.3707 0.194889C42.8301 -0.097468 43.1225 -0.153155 43.6097 0.139202C45.1411 1.05804 46.7004 1.93511 48.2874 2.78434C49.2202 3.28552 50.1669 3.75886 51.1553 4.12083C53.4663 4.97005 55.7634 5.87497 58.2415 6.11164C59.4805 6.23693 60.6917 6.61282 61.9308 6.65459C63.8659 6.72419 65.8428 6.76596 67.7501 6.50145C69.532 6.26478 71.2583 5.59653 73.0125 5.15104C74.2237 4.84476 75.3653 4.37142 76.3815 3.61964C76.4651 3.56395 76.827 3.70317 76.8827 3.81455C77.2586 4.77515 77.6067 5.76359 77.9408 6.73812C78.428 8.14421 78.9292 9.55031 79.3747 10.9564C79.862 12.5156 80.3075 14.0888 80.7669 15.662C81.101 16.7896 81.463 17.9034 81.7554 19.031C81.992 19.9499 82.1591 20.8826 82.354 21.8015C82.6046 23.0683 82.8691 24.3352 83.1058 25.6021C83.4399 27.3702 83.7879 29.1382 84.0524 30.9202C84.3448 32.8553 84.5536 34.8183 84.7625 36.5168L84.7764 36.5864ZM1.80268 44.6749C1.71915 44.6749 1.63562 44.6749 1.55209 44.6888C1.77484 46.9163 2.0672 49.1438 2.22034 51.3713C2.41524 54.1696 2.95819 56.8982 3.89095 59.5434C4.44782 61.1165 4.96292 62.7175 5.5894 64.2628C6.16019 65.655 6.80059 67.0472 7.53845 68.3558C9.27867 71.4325 11.3391 74.3004 13.6083 77.0012C15.1258 78.8111 16.7268 80.5513 18.4531 82.1523C21.0565 84.5747 23.7712 86.8718 26.5138 89.141C27.7668 90.1712 29.1729 91.0344 30.5372 91.9254C32.4862 93.1922 34.4214 94.4731 36.4261 95.6425C38.1106 96.617 39.8648 97.4662 41.605 98.3433C42.2454 98.6635 42.8997 99.0812 43.6654 98.5243C43.9995 98.2876 44.3893 98.1484 44.7513 97.9535C46.6586 96.9372 48.5937 95.9766 50.4592 94.8907C52.0881 93.944 53.6752 92.9138 55.2344 91.8418C57.0164 90.6167 58.7705 89.3498 60.5107 88.0551C61.541 87.2755 62.5572 86.468 63.5039 85.591C65.3834 83.8507 67.2906 82.1245 69.0448 80.2589C70.3813 78.8389 71.5507 77.2518 72.734 75.6926C73.8339 74.2447 74.878 72.7551 75.8943 71.2376C76.5765 70.2074 77.1751 69.1076 77.7737 68.0217C78.4837 66.7131 79.1937 65.4044 79.8063 64.054C80.3353 62.9124 80.7947 61.7291 81.1846 60.5318C81.6857 59.0561 82.1452 57.5525 82.521 56.0351C82.8273 54.81 82.883 53.5152 83.1893 52.2901C83.8575 49.6032 83.6905 46.8606 83.8297 44.132C83.9271 42.4196 83.8297 40.7072 83.7183 38.9948C83.5373 36.2522 83.3424 33.5097 83.0083 30.781C82.7438 28.6092 82.2844 26.4653 81.8528 24.3213C81.5465 22.8038 81.1706 21.3003 80.7947 19.8106C80.5859 18.9475 80.3353 18.0844 80.0708 17.2351C79.6253 15.7873 79.1659 14.3394 78.7065 12.9055C77.9686 10.5805 77.2029 8.26951 76.479 5.94458C76.2841 5.3181 75.8804 5.30418 75.3931 5.48516C74.7666 5.70791 74.168 5.98634 73.5415 6.20909C71.4115 6.96086 69.2397 7.62911 66.9565 7.6848C63.8937 7.76833 60.8309 7.99107 57.7821 7.2393C55.6938 6.73812 53.6195 6.2787 51.6008 5.52692C48.9 4.51063 46.3106 3.28552 43.8603 1.75413C43.4984 1.53138 42.8023 1.47569 42.4403 1.65667C40.7279 2.54767 39.1269 3.63356 37.4145 4.49671C35.8692 5.27633 34.2543 6.00026 32.5976 6.4736C30.7182 7.00263 28.8666 7.65695 26.8897 7.79617C24.7875 7.93539 22.6992 8.35304 20.5971 8.04676C18.8986 7.79617 17.1445 7.92147 15.4878 7.22538C14.3601 6.75204 13.1628 6.50145 12.0073 6.11164C11.3391 5.88889 10.6987 5.56869 10.0304 5.30417C9.59887 5.13711 9.25082 5.20672 9.06984 5.68006C8.88886 6.1534 8.68003 6.5989 8.51297 7.07224C7.94218 8.77069 7.32962 10.4691 6.82844 12.1954C6.16019 14.4647 5.53371 16.7479 4.97684 19.045C4.33644 21.7179 3.79349 24.4048 3.25055 27.0917C3.01388 28.2472 2.84681 29.4167 2.69368 30.5861C2.35955 33.2451 1.98367 35.9042 1.80268 38.5772C1.66347 40.6098 1.77484 42.6563 1.77484 44.6888L1.80268 44.6749Z" fill="#006073"/>
<path d="M44.2362 66.9497C44.2362 60.2116 44.2362 53.4595 44.2362 46.7214C44.2362 46.5543 44.2222 46.4012 44.1944 46.2341C44.1109 45.7747 44.3475 45.5798 44.7652 45.5659C45.2803 45.552 45.7815 45.552 46.2966 45.552C51.5729 45.552 56.8632 45.6216 62.1395 45.5102C63.6431 45.4823 64.6594 46.0949 65.6061 47.0277C67.8057 49.1716 68.2651 51.7611 67.3881 54.615C67.221 55.144 66.8312 55.6174 66.5388 56.1046C66.0933 56.8703 66.1072 57.0374 66.8033 57.5247C68.6828 58.8612 70.0332 60.6431 70.6597 62.801C71.1608 64.5691 71.133 66.4346 70.4648 68.2444C69.0726 72.0172 66.4414 74.8016 63.3786 77.21C61.2207 78.9085 59.0072 80.5652 56.6822 82.013C54.2459 83.5305 51.6425 84.8113 49.0949 86.1617C47.8001 86.8578 46.4776 87.4982 45.1689 88.1804C44.5981 88.4727 44.1944 88.25 44.1944 87.6514C44.2083 83.4748 44.2222 79.3122 44.2362 75.1357C44.2362 72.407 44.2362 69.6644 44.2362 66.9358V66.9497ZM50.7655 68.5925C50.7655 71.0427 50.7655 73.5068 50.7655 75.9571C50.7655 76.7089 51.0578 76.9038 51.6147 76.5836C53.1322 75.7204 54.6775 74.8851 56.1671 73.9802C58.0048 72.8665 59.745 71.5996 61.165 69.9429C62.0839 68.8709 62.9192 67.7293 63.128 66.2675C63.476 63.6781 62.0282 62.0353 60.1348 60.6431C59.8425 60.4343 59.397 60.3229 59.0211 60.3229C56.6126 60.2951 54.2041 60.3229 51.7957 60.3229C50.8629 60.3229 50.7515 60.4204 50.7515 61.3532C50.7515 63.7616 50.7515 66.1701 50.7515 68.5785L50.7655 68.5925ZM54.8306 52.0673C53.7586 52.0673 52.7006 52.0952 51.6286 52.0673C50.9465 52.0395 50.7237 52.3179 50.7515 52.9723C50.7794 53.905 50.849 54.0303 51.6147 54.0303C53.7169 54.0303 55.833 54.0303 57.9352 54.0303C58.7287 54.0303 59.1464 53.6823 59.1324 53.014C59.1324 52.3875 58.7426 52.0813 57.9352 52.0673C56.891 52.0673 55.8469 52.0673 54.8028 52.0673H54.8306Z" fill="#006073"/>
<path d="M29.6463 25.7691C29.6045 25.4768 29.5488 25.2401 29.5488 25.0034C29.5488 22.8456 29.5488 20.6877 29.5488 18.5437C29.5488 18.0147 29.7715 17.8616 30.2588 17.8616C40.1989 17.8755 50.1391 17.8894 60.0792 17.8894C60.2463 17.8894 60.4133 17.8476 60.5665 17.8755C60.8171 17.9312 61.2486 18.0147 61.2626 18.1122C61.2904 18.3906 61.2208 18.7804 61.0398 18.9475C59.6337 20.1726 58.1859 21.3559 56.738 22.5532C56.2925 22.9291 55.847 23.2771 55.4015 23.653C54.8586 24.0985 54.3017 24.377 53.5221 24.3491C51.7679 24.2795 49.9999 24.3213 48.2457 24.3213C47.1181 24.3213 47.0485 24.4048 47.0485 25.4907C47.0485 28.3864 47.0485 31.2821 47.0485 34.1779C47.0485 34.7069 46.8118 34.86 46.3384 34.86C39.5307 34.8461 32.709 34.8461 25.9013 34.8322C24.8572 34.8322 24.537 35.1246 24.5509 36.0434C24.5509 36.7812 24.9964 37.1154 25.9291 37.1154C37.9158 37.1154 49.8885 37.1154 61.8751 37.1154C62.0422 37.1154 62.1953 37.0875 62.3624 37.0875C62.8357 37.0875 62.9193 37.2824 62.7244 37.7001C62.0561 39.1897 61.3879 40.6793 60.7753 42.1968C60.302 43.3523 60.2741 43.4219 59.049 43.4219C47.7585 43.4219 36.4818 43.4219 25.1913 43.4219C22.1981 43.4219 20.1238 41.8209 18.7594 39.3985C17.8128 37.714 17.7988 35.765 18.2861 33.8577C18.6341 32.4933 19.3024 31.3239 20.3047 30.3772C20.9173 29.8064 21.6969 29.4027 22.4209 28.9711C23.6321 28.2333 24.9825 28.3168 26.3189 28.3168C30.7043 28.3168 35.0757 28.3168 39.4611 28.3168C40.6166 28.3168 40.728 28.1915 40.7141 27.036C40.7141 26.3817 40.7001 25.7413 40.7141 25.087C40.728 24.5162 40.4913 24.2238 39.8927 24.2238C37.6234 24.2238 35.3542 24.196 33.0849 24.2517C32.0129 24.2795 31.0663 24.7111 30.2867 25.4629C30.2031 25.5464 30.1196 25.616 30.0221 25.6717C29.9665 25.6995 29.8968 25.6995 29.688 25.7552L29.6463 25.7691Z" fill="#006073"/>
<path d="M40.6307 66.9915C40.6307 73.8549 40.6307 80.7045 40.6307 87.5679C40.6307 88.264 40.1713 88.5146 39.4334 88.1944C37.3869 87.2894 35.2848 86.482 33.3079 85.4518C31.7765 84.6582 30.3565 83.6559 28.9364 82.6674C26.2217 80.788 23.855 78.5187 21.725 76.0128C20.1379 74.1473 18.6343 72.2122 17.5624 69.9847C16.8802 68.5647 16.2816 67.089 15.7247 65.6133C14.5692 62.5366 14.2072 59.3206 13.9427 56.0629C13.706 53.1254 14.1515 50.2436 14.2768 47.3479C14.2907 46.8746 14.4439 46.3873 14.6249 45.9418C14.7084 45.7608 15.0425 45.5659 15.2513 45.5659C18.5647 45.5381 21.8781 45.5381 25.1915 45.5381C25.7066 45.5381 25.9154 45.8165 25.818 46.3038C25.7762 46.5544 25.6787 46.805 25.5534 47.0138C24.2866 49.0464 23.2981 51.1486 22.7691 53.5153C22.3097 55.5061 22.2818 57.4412 22.5881 59.4181C23.0197 62.286 24.1752 64.9033 25.7483 67.3256C27.5025 70.0404 29.6882 72.3932 32.1663 74.4675C32.4726 74.7181 32.7232 75.0244 33.0294 75.261C33.1965 75.3863 33.461 75.4699 33.642 75.4281C33.7673 75.4003 33.8787 75.1218 33.9065 74.9269C33.9483 74.6763 33.9343 74.4257 33.9343 74.1612C33.9343 65.0286 33.9343 55.9098 33.9343 46.7771C33.9343 45.6077 33.9343 45.6216 35.1177 45.6355C36.5795 45.6495 38.0413 45.6355 39.503 45.6355C40.5472 45.6355 40.6307 45.6912 40.6307 46.6936C40.6307 53.4596 40.6307 60.2255 40.6307 66.9915Z" fill="#006073"/>
<path d="M39.67 10.9704C41.4381 10.8451 42.6214 12.474 42.5936 13.9497C42.5518 16.0519 40.923 16.915 39.5447 16.9707C37.9994 17.0264 36.4402 15.3975 36.5515 13.9079C36.6629 12.3765 37.707 10.8591 39.67 10.9843V10.9704Z" fill="#006073"/>
<path d="M46.8952 10.9703C48.6215 10.8589 49.8327 12.2093 49.7909 14.1027C49.7492 15.815 48.4405 16.9706 46.8674 16.9009C44.9601 16.8174 43.9438 15.8847 43.902 13.8521C43.8603 12.3346 44.9601 10.845 46.9091 10.9703H46.8952Z" fill="#006073"/>
<path d="M51.8652 35.9877C50.5983 35.9877 49.5542 34.874 49.5542 33.5375C49.5542 32.201 50.5983 31.1708 51.9348 31.1847C53.2435 31.1847 54.2319 32.2149 54.2319 33.5514C54.2319 34.9297 53.1739 36.0156 51.8652 36.0016V35.9877Z" fill="#006073"/>
<path d="M51.8794 30.1546C50.2366 30.2521 49.6241 29.0548 49.5823 27.8158C49.5405 26.4375 50.5568 25.5187 51.9768 25.5465C53.3551 25.5604 54.2879 26.535 54.2461 27.955C54.2043 29.1383 53.4525 30.2799 51.8794 30.1546Z" fill="#006073"/>
</g>
<defs>
<clipPath id="clip0_40_9">
<rect width="84.2545" height="100" fill="white" transform="translate(0.744629)"/>
</clipPath>
</defs>
</svg>
