<svg width="190" height="48" viewBox="0 0 190 48" fill="none" xmlns="http://www.w3.org/2000/svg">
<g clip-path="url(#clip0_277_36)">
<path d="M67.2349 36.2634V11.5781H71.8355V31.9601H79.0591V36.2634H67.2349Z" fill="#E8FBFF"/>
<path d="M94.1186 36.2634H80.9321V11.5781H93.9155V15.8815H85.5686V21.6082H92.7593V25.881H85.5686V31.9573H94.1216V36.2634H94.1186Z" fill="#E8FBFF"/>
<path d="M94.3218 11.5781H99.8067L111.222 28.256V11.5781H115.822V34.3018C115.822 34.9566 115.646 35.4727 115.293 35.8528C114.941 36.2329 114.469 36.4216 113.88 36.4216C113.358 36.4216 112.865 36.3273 112.399 36.1358C111.933 35.9471 111.541 35.6197 111.222 35.1536L94.3218 11.5781Z" fill="#E8FBFF"/>
<path d="M131.975 36.2634H118.789V11.5781H131.772V15.8815H123.425V21.6082H130.616V25.881H123.425V31.9573H131.978V36.2634H131.975Z" fill="#E8FBFF"/>
<path d="M133.917 36.2634V11.5781H138.518V31.9601H145.741V36.2634H133.917Z" fill="#E8FBFF"/>
<path d="M168.672 11.5781V25.1236C168.672 28.7111 167.779 31.4634 165.999 33.3834C164.215 35.3034 161.712 36.2634 158.485 36.2634H157.598C154.348 36.2634 151.844 35.309 150.085 33.4001C148.325 31.4912 147.444 28.7333 147.444 25.1236V11.5781H152.077V25.1236C152.077 26.4332 152.179 27.518 152.385 28.3837C152.588 29.2493 152.914 29.9513 153.356 30.4868C153.798 31.0251 154.366 31.4052 155.059 31.6271C155.752 31.8491 156.597 31.9601 157.598 31.9601H158.485C159.462 31.9601 160.302 31.8436 161.007 31.6133C161.712 31.3802 162.288 31.0029 162.745 30.4729C163.2 29.9458 163.528 29.2438 163.734 28.367C163.937 27.493 164.042 26.411 164.042 25.1236V11.5781H168.672Z" fill="#E8FBFF"/>
<path d="M176.099 29.3326V36.2634H171.466V11.5781H180.291C181.811 11.5781 183.177 11.8056 184.38 12.2579C185.584 12.7129 186.606 13.3344 187.449 14.1252C188.288 14.9159 188.936 15.8565 189.39 16.9414C189.844 18.029 190.071 19.2026 190.071 20.4706C190.071 21.7358 189.844 22.9122 189.39 23.9999C188.936 25.0875 188.282 26.0253 187.431 26.816C186.579 27.6068 185.552 28.2255 184.348 28.6667C183.144 29.1106 181.793 29.3298 180.294 29.3298H176.099V29.3326ZM180.156 25.0292C180.975 25.0292 181.719 24.9127 182.388 24.6824C183.057 24.4493 183.631 24.1275 184.109 23.7169C184.587 23.3062 184.954 22.8207 185.217 22.2602C185.477 21.7025 185.608 21.0949 185.608 20.4401C185.608 19.7853 185.477 19.1804 185.217 18.62C184.954 18.0623 184.587 17.5767 184.109 17.1633C183.631 16.7527 183.057 16.4364 182.388 16.2144C181.719 15.9925 180.975 15.8815 180.156 15.8815H176.102V25.0264H180.156V25.0292Z" fill="#E8FBFF"/>
<path d="M23.9859 28.0067C23.3585 29.8435 22.7341 31.6803 22.1068 33.517C21.3121 35.8504 20.5145 38.1949 19.7228 40.5228C13.1236 45.4754 6.2615 47.6756 5.15914 48.0114C6.07329 46.6768 8.83068 42.2819 8.09279 36.3887C7.12486 28.6671 0.914019 24.447 -0.119629 23.7727C4.21811 22.9071 9.69405 21.4255 15.645 18.7841C20.9865 16.4146 25.3362 13.7233 28.7359 11.2539C26.9076 12.9963 25.0793 14.7415 23.251 16.484C20.7266 18.8923 18.1992 21.3006 15.6749 23.7117C15.0804 24.2805 14.8922 25.049 15.17 25.7677C15.4747 26.5556 16.2783 27.1133 17.2612 27.2215L23.8335 27.9374C23.9231 27.9485 23.9739 27.9873 23.9859 28.0067Z" fill="#E8FBFF"/>
<path d="M46.6218 22.8896C41.1548 28.1113 35.6848 33.3275 30.2149 38.5437C27.1767 41.4431 24.1354 44.3425 21.0943 47.2447C20.6671 47.6498 20.0128 47.6248 19.5826 47.389C19.3765 47.2752 19.0509 47.0227 19.1943 46.601C20.6013 42.4558 22.0592 38.1719 23.5051 33.924C24.1325 32.0817 24.7598 30.2449 25.3872 28.4026C25.5156 28.0225 25.4529 27.6091 25.2169 27.2734C24.954 26.8988 24.5119 26.6519 24.004 26.5964L17.4347 25.8805C16.9238 25.825 16.643 25.5504 16.5534 25.3145C16.4638 25.0842 16.5295 24.8484 16.7326 24.6542C19.26 22.2459 21.7844 19.8375 24.3087 17.4264C26.7465 15.0986 29.1872 12.7735 31.6279 10.4456C33.3994 8.75591 35.171 7.06343 36.9455 5.37371C38.7171 3.684 40.4886 1.99429 42.2601 0.304582C42.4932 0.0826163 42.7949 -0.0117188 43.0936 -0.0117188C43.3386 -0.0117188 43.5806 0.0520964 43.7748 0.15753C43.9809 0.271287 44.3035 0.523773 44.1601 0.945507C42.1645 6.82204 40.1749 12.6625 37.9672 19.1439C37.8388 19.524 37.9015 19.9374 38.1375 20.2759C38.4004 20.6505 38.8425 20.8974 39.3504 20.9529L45.9227 21.6715C46.4306 21.727 46.7084 21.9989 46.801 22.2348C46.8518 22.3652 46.8966 22.6287 46.6218 22.8896Z" fill="#E8FBFF"/>
<path d="M23.6871 11.8167C26.7873 11.8167 29.3005 9.50124 29.3005 6.64494C29.3005 3.78863 26.7873 1.47314 23.6871 1.47314C20.5869 1.47314 18.0737 3.78863 18.0737 6.64494C18.0737 9.50124 20.5869 11.8167 23.6871 11.8167Z" fill="#E8FBFF"/>
</g>
<defs>
<clipPath id="clip0_277_36">
<rect width="190" height="48" fill="white"/>
</clipPath>
</defs>
</svg>
