<?xml version="1.0" encoding="UTF-8"?>
<svg id="Layer_1" data-name="Layer 1" xmlns="http://www.w3.org/2000/svg" viewBox="0 0 465.5 377.8">
  <defs>
    <style>
      .cls-1 {
        fill: #006073;
      }
    </style>
  </defs>
  <path class="cls-1" d="M187.9,172.9c1.4,0,2.4,0,3.4,0,13.9-.1,27.9-.2,41.8-.4,4.7,0,5.8,.6,5.4,5.6-.2,2.5,0,5.1,0,7.6,0,1,0,2.1,0,3.4-1.3,0-2.3,.2-3.3,.2-25.7-.1-51.3-.2-77-.4-.7,0-1.3,0-2,0-2.8,.1-3.8,1.1-3.9,3.9-.2,5.3,.5,10.4,1.8,15.5,1.9,7.4,5.1,14.3,9.5,20.5,11.8,16.5,26.9,28.9,46.2,35.9,11.5,4.1,23.4,6.1,35.6,4.5,28.6-3.7,51.1-17.1,65.5-42.7,1.3-2.2,2.6-3.4,5.3-3.3,6.5,.1,13,0,19.6,0,.5,0,1,0,1.5,0,2.4,.3,3.4,1.8,2.6,4.1-2,5.5-4.8,10.5-7.8,15.5-14.6,23.8-35.7,38.9-62.4,46.5-11.7,3.3-23.5,5.3-35.6,5.4-21.4,0-41.2-5.8-59.2-17.3-11.1-7.1-21.2-15.5-29.4-25.9-10.7-13.4-17.2-28.7-19.3-45.8-1.2-9.2-1.1-18.4,0-27.6,0-.5,.1-1,.2-1.4,.6-2.5,1.6-3.5,4.2-3.6,3.8-.2,7.7-.2,11.5-.2,3.6,0,7.2-.1,10.7-.1,2.2,0,3.5-1,4.2-3,1-2.6,2.1-5.1,3.2-7.7,9.4-19.9,24.8-32.7,45.6-39.4,10-3.2,20.2-4.5,30.6-4.4,2.2,0,2.6,.3,2.6,2.5,0,2.3,0,4.6,0,6.8,0,4.5,0,9-.1,13.5,0,2.9-1,3.8-3.9,3.8-6,0-11.9,.8-17.6,2.5-9.5,2.9-17.7,7.9-24,15.7-1.6,2-2.9,4.3-4.2,6.6-.5,.9-.7,1.9-1.3,3.4Z"/>
  <path class="cls-1" d="M338.9,217.2c-3.1,0-5.9,0-8.8,0-13.6,0-27.2-.1-40.8-.2-37.1-.1-74.2-.3-111.3-.4-3.9,0-7.8,0-11.7-.1-3.3,0-4-.8-4-4.1,0-5.6,0-11.3,0-16.9,0-2.6,.5-3,3-3,21.3,0,42.6,.1,63.8,.2,6.5,0,13,.1,19.6,.1,21.4,0,42.9,.1,64.3,.2,.5,0,1,0,1.5,0,2.7-.1,3.5-.9,3.2-3.7-.4-5-1.2-10-2.6-14.9-3-10.9-8.4-20.7-15.6-29.4-10.5-12.6-22.9-22.5-38.3-28.4-8.1-3.1-16.6-4.7-25.2-5.3-13.4-.9-26.3,1-38.8,6-16,6.5-28.1,17.5-36.7,32.4-1.2,2.1-2.5,4.2-3.4,6.5-1.8,4.6-5.2,6.5-9.9,6.5-4,0-8,0-12-.1-1.9,0-3.7,0-6,0,.3-1.4,.5-2.5,.8-3.5,3.3-10,8.2-19.2,14.6-27.5,17.4-22.7,40.1-37.1,68.3-42.1,53.5-9.5,107,20.7,123.9,74,3.9,12.4,5.4,25.2,4.5,38.1-.3,4.5-1.2,9-1.9,13.5,0,.6-.4,1.2-.6,2.1Zm-172.8-3.7c1,0,2,0,3,0,33.7,0,67.3,0,101,0,11,0,22,.2,33,.3,9.9,0,19.7,.1,29.6,.2,3.3,0,4.2-.9,4.7-4,.2-1.7,.4-3.4,.6-5.1,1-10.2,.7-20.4-1.4-30.4-4.5-21.7-14.9-40.1-31.1-55.1-18.3-17.1-40.1-26.4-65-28.3-9.5-.7-19-.1-28.5,1.8-27.9,5.7-50.4,19.7-66.7,43.3-4.6,6.7-8.7,13.6-11.4,21.3-.2,.6-.3,1.3-.6,2.2,4.2,0,8.1,0,12.1,0,6.3,0,6.6-.1,9.4-5.7,5.3-10.7,12.2-20.2,21.5-27.9,8.6-7.1,18.5-11.5,29.1-14.6,13-3.7,26.1-4.9,39.4-2.7,11.7,1.9,22.5,6.4,32.6,12.7,24.3,15,39.1,36.4,43.4,64.8,.5,3.2,.3,6.4,.2,9.9H166.1c-.6,2.5-.6,15,0,17.3Z"/>
  <path class="cls-1" d="M72.4,275c-4.9,.1-9.8-1.2-14.1-4.4-8.7-6.5-10.2-19.5-1.8-27.6,8.4-8,21.4-9,30.7-2,8.5,6.5,9.7,18,2.7,26.4-4.3,5.2-10,7.7-17.6,7.7Z"/>
  <path class="cls-1" d="M395.1,152.9c-5.1,0-9.8-1.2-14-4.2-9-6.5-10.8-19.9-1.8-28.3,8.6-8,22-8.5,31.1-1,6.7,5.5,8.5,14.6,4.2,22.3-4.2,7.6-10.9,11.2-19.5,11.1Z"/>
  <path class="cls-1" d="M314.5,28.1c1.7,.4,2.8,.8,4,.9,1.2,.1,2.4,.1,3.7,0,3.4-.1,6.8-.3,10.2,.4,.9,.2,1.8,0,3,0,0-1,0-1.9,0-2.9,0-5.7,.9-11.4,2.5-16.9,.6-2.2,.9-2.5,3.2-2.7,3.6-.2,7.2-.3,10.6,.9,4.5,1.5,6.9,4.5,6.9,9.3,0,3.4-.3,6.8-.6,10.2-.2,2.6-.7,5.2-1,8-2-.2-3.9-.4-5.8-.6-7.5-.9-15-1.8-22.6-2.7-1.8-.2-3.7,0-5.6,0-3.7,.2-7.3,0-10.8-1.3-.8-.3-1.8-.3-2.5,0-3.3,1.5-6.8,2.3-10.4,2.4-5.8,.1-11.4,1.6-17.1,2.5-3.1,.5-6.3,1-9.4,1.2-4.1,.2-7-1.9-8.5-5.7-1.6-4-2.3-8.2-2-12.4,.2-3.7,2-6.3,5.5-7.6,1.5-.6,3.1-1,4.7-1.3,3.3-.5,6.6-.9,9.9-1.4,.5,0,1.1,0,1.9,0,1.3,7.6,2.7,15.1,4,22.7,.8,0,1.4,0,1.9-.1,3.6-.4,7.3-.8,10.9-1.1,2.6-.2,3.9-.6,5.6-1.9-.7-.7-1.5-1.3-2.2-1.9-4-3.7-7-8-7.5-13.6-.3-2.8-.2-2.9,2.3-4.1,7.2-3.5,14.6-3.6,22-.7,1.3,.5,1.8,1.2,1.9,2.7,.2,6.2-2.4,11-6.4,15.3-.6,.6-1.2,1.2-2.2,2.2Zm-33.5-15.9c-4,.5-7.6,.5-11.1,2-2.2,.9-3.6,2.5-3.9,4.9-.6,4.1,.2,7.9,2.1,11.5,.9,1.7,2.4,2.7,4.3,2.8,1.4,.1,2.9,.1,4.4,0,2.5-.3,4.9-.9,7.6-1.3-1.2-6.7-2.3-13.1-3.5-19.9Zm72.6,19.7c.2-1.4,.5-2.7,.6-3.9,.3-3.2,.7-6.5,.7-9.7,0-3.7-1.9-6.2-5.4-7.2-2.1-.6-4.3-.6-6.5-.8-1.1-.1-1.6,.5-1.9,1.5-1.5,5.5-2.2,11.2-2.1,16.9,0,1.2,.6,1.8,1.7,1.9,1.1,0,2.1,.3,3.1,.4,3.1,.3,6.3,.7,9.7,1Zm-42.7-23.1c-3.2,.2-6.1,1.1-9,2.2-1,.4-1.3,1-1.1,2.1,.9,5.7,4.3,9.7,9,12.7,.9,.6,1.5,.1,2.2-.4,3-2.5,5.4-5.4,6.7-9.1,.4-1.1,.6-2.4,.7-3.6,.2-1.9,0-2.1-1.8-2.6-2.2-.5-4.4-.9-6.7-1.3Z"/>
  <path class="cls-1" d="M142.8,94.5c-12.1,9.6-24.3,18.4-35.2,28.9-10.9,10.4-21.2,21.4-30.9,33.3-10-8-19.9-15.9-30-23.9,.8-1,1.5-1.9,2.3-3,9.2,7.3,18.2,14.5,27.5,21.8,3-3.4,5.8-6.6,8.8-10.1-5.8-5.2-11.4-10.3-17.3-15.6,.8-.9,1.5-1.8,2.4-2.8,5.8,5.2,11.5,10.3,17.1,15.3,7.1-7,14.1-13.8,21.1-20.7-.2-.3-.3-.7-.5-.9-3.2-3.4-6.3-6.8-9.5-10.2-2.6-2.6-5.2-2.7-7.9-.1-1.9,1.9-3.6,4-5.4,6-.6,.7-1.2,1.3-1.9,2.2-.7-.6-1.2-1.1-2-1.7,2.8-4,5.4-8,9.3-10.8,2.9-2.1,5.7-2,8.6,0,1,.7,1.9,1.6,2.7,2.5,2.6,2.8,5.2,5.6,7.9,8.4,.5,.6,1.1,1.1,1.8,1.7,3.8-3.2,7.5-6.4,11.4-9.6-5.4-5.4-9.9-11.2-13.1-18.2,2.8-4,6.2-7.3,10.8-9.2,3.1-1.3,6.2-.9,9,1.1,1,.7,2,1.5,2.7,2.4,3.4,4.2,6.7,8.4,10.3,12.9Zm-28.6-7.4c2.1,5.2,9,14.1,12.4,15.8,3.6-2.8,7.4-5.7,11.2-8.6-3-3.9-5.4-7.7-8.8-10.9-.7-.7-1.5-1.3-2.4-1.6-1.3-.4-2.7-.7-4-.5-3.6,.7-6.2,3-8.4,5.7Z"/>
  <path class="cls-1" d="M231,253.1c-4.3,0-9.6-2.4-13.3-7.6-4.2-5.9-3.7-13.5,1-19,7.4-8.6,21-8.6,28.5,0,5.7,6.5,5.3,15.6-1,21.5-3.7,3.5-8.1,5.1-15.1,5.1Zm1.8-25.7c-3,0-5.6,1-7.6,2.8-4,3.5-4.1,9.1-.3,12.7,4.7,4.5,13,4,17-1,2.8-3.4,2.6-7.7-.4-10.9-2.4-2.5-5.4-3.6-8.8-3.6Z"/>
  <path class="cls-1" d="M0,231.2c.2-1.3,.4-2.2,.6-3.5,5.8,.7,11.4,2,17,3,5.7,1,11.3,2.1,17.1,3.2,1.5-1.9,1-4.3,1.7-6.3,.7-2,1.2-4,1.9-6.2-7.5-2.4-14.7-4.6-22.2-7,.4-1.2,.7-2.2,1.1-3.5,7.5,2.3,14.7,4.5,22.1,6.8,1.4-2.9,1.8-5.7,2.6-8.4,.9-2.7,2.3-5.1,3.5-7.8-2.4-.2-4.6-.2-6.7-.6-3.8-.6-7.1-2.3-9.8-5.1-2.8-3-3.4-6.6-2.1-10.4,.9-2.6,2.4-4.8,4.3-6.8,1.8-1.9,2-1.9,4.4-.2-.5,.6-1.1,1.1-1.6,1.8-1.2,1.7-2.6,3.4-3.5,5.2-1.3,2.6-.8,5.2,1,7.5,3.2,3.9,10.2,5.9,15,4.3,1-.3,1.6-1,2-1.9,1.3-2.7,2.6-5.4,3.9-8.2,.3-.7,.7-1.4,1.2-2.3,1,.5,1.8,.9,2.7,1.4-.3,.7-.5,1.2-.7,1.7-.7,1.6-1.4,3.1-2.2,4.6q-8.2,17.2-13.5,35c-.8,2.6-1.1,5.3-1.6,7.9-.2,.9-.4,1.7-.7,2.7-12.6-2.4-25-4.7-37.6-7Z"/>
  <path class="cls-1" d="M191.6,65.4c.6,1.9,1.4,3.8,1.8,5.6,1,4.4-.5,8-4.2,10.7-1.5,1.1-3.2,2-4.8,2.9-3.2,1.8-6.4,3.6-9.6,5.4-3,1.7-6.2,2.3-9.7,2-2.6-.3-5-1.2-6.6-3.3-2.9-3.7-4.1-8.2-5.8-12.7,1.1-.4,2-.7,3.1-1.1,.3,.7,.6,1.2,.9,1.8,1,2.2,1.8,4.6,2.9,6.7,2.2,4.6,6.6,6.4,11.4,4.7,.8-.3,1.5-.6,2.2-1,4.1-2.2,8.1-4.5,12.2-6.7,5.3-2.8,5.7-8.8,2.4-12.8-2.4,.6-4.5,2.5-7.4,2.1,0-.9,0-1.7-.1-2.6,6.2-1.9,11.1-6.3,17.3-8.3,6-2,11.7-4.9,17.7-7.4-.2-.7-.3-1.4-.5-1.9-1.6-3.9-3.3-7.8-5-11.7-.4-.8-.8-1.6-1.4-2.3-1.2-1.4-2.8-2.1-4.6-1.4-1.8,.6-3.5,1.4-5.1,2.2-2,1-4,2.2-6.2,3.4-.4-.8-.7-1.4-1.2-2.3,4.1-2.8,8-5.7,12.7-7,3-.8,5.4,.2,7.4,2.5,.4,.5,.8,1,1.1,1.6,2.6,6,5.2,11.9,7.8,18-.7,.4-1.3,.8-1.8,1-6.6,2.8-13.2,5.6-19.8,8.4-2,.9-4,1.7-6,2.6-.4,.2-.8,.6-1.1,.8Z"/>
  <path class="cls-1" d="M147.6,317.6c-12.7,0-24.3-.9-35.6-4-7.2-2-14-4.9-20.2-9.1-6-4-11.1-8.8-15-14.9-1.3-2.1-2.7-4.1-4.1-6.1-.7-1.1-.6-1.9,.2-2.3,1-.4,1.5,.1,2,.9,.4,.8,.9,1.6,1.3,2.3,6.4,10.9,15.8,18.3,27.4,23,8.4,3.4,17.2,5.4,26.2,6.5,13.2,1.6,26.3,.8,39.5-.9,17.4-2.2,34.4-6.5,50.9-12.2,.7-.2,1.4-.5,2.1-.6,.8-.1,1.5,0,1.7,.9,.3,.9,0,1.6-.9,2-.3,.1-.6,.2-.9,.3-12,3.5-23.9,7.2-36,9.8-13.1,2.8-26.3,4.5-38.7,4.4Z"/>
  <path class="cls-1" d="M322.9,69.2c12.5,.1,24.4,.7,36,4.3,10.9,3.4,20.5,9,28.6,17.2,4.6,4.7,7.9,10.1,10.2,16.2,.2,.5,.5,.9,.4,1.4,0,.5-.3,1.2-.6,1.3-.4,.2-1.1,0-1.5-.3-.4-.3-.7-.9-.9-1.4-6.8-16-19.1-25.7-35.4-30.9-8-2.5-16.3-4-24.6-4.8-17.4-1.6-34.7,0-51.7,3.8-9.1,2-18.1,4.6-27.2,6.9-.9,.2-1.7,.6-2.6,.6-.4,0-1.1-.4-1.2-.8-.1-.4,0-1.1,.4-1.5,.4-.4,1.1-.6,1.7-.8,12.5-3.9,25.1-7.4,38.2-9.2,5.4-.7,10.9-1.1,16.3-1.5,4.8-.3,9.6-.4,14-.6Z"/>
  <path class="cls-1" d="M9.9,248.7v-3.1c2.3-.6,20.9,.4,26.4,1.4,0,.8,0,1.7,0,2.5-.1,2.4,0,4.8-.5,7-1.2,4.4,.4,8.4,.8,12.6,.4,3.5,1,6.9,1.2,10.4,.2,3.9-1.7,6.7-5.4,8.2-4.4,1.8-9,2.6-13.8,1.9-3.1-.5-5.3-2.2-6.3-5.1-.9-2.6-1.4-5.3-1.9-8-.5-2.8-.6-5.6-1-8.8,3.9-.7,7.6-1.3,11.4-1.9,3.7-.6,7.5-1.3,11.4-2,0-.9,0-1.7-.2-2.4-.3-1.6-.3-3,.3-4.7,.7-1.9,.4-4.1,.5-6.6-4-.3-7.8-.5-11.6-.8-3.8-.3-7.6-.5-11.4-.8Zm23.2,18.9c-7,1.2-13.4,2.1-20.2,3.5,.6,3.4,.9,6.6,1.6,9.6,.8,3.2,2.9,5.2,6.4,5.4,3.1,.2,6.2-.3,9.1-1.5,3.1-1.2,4.7-3.7,4.5-6.9-.2-3.3-.9-6.6-1.4-10.2Z"/>
  <path class="cls-1" d="M364.2,37.6c3.4-12.5,6.7-24.7,10-37,1.2,.3,2.2,.6,3.5,.9-3,11.3-6,22.5-9.1,33.9,1.4,.4,2.4,1,3.5,.9,1.5,0,2.7,.5,3.9,1.1,4.8,2.1,9.5,4.3,14.3,6.4,.8,.4,1.6,.7,2.6,1.1,.4-.6,.7-1,1-1.5,1.8-3.9,3.5-7.7,5.2-11.6,1.8-4.1,.9-6.4-3.3-8.1-2.4-1-4.9-1.8-7.4-2.6-.8-.3-1.5-.5-2.5-.9,.3-.8,.6-1.6,.9-2.4,4.4,1,8.6,1.9,12.5,3.8,4.1,2.1,5.6,5.4,3.9,9.6-2.4,6-5.2,11.8-7.8,17.6,0,.1-.2,.2-.6,.5-4.9-2.2-10-4.3-14.9-6.8-4.9-2.5-10.3-3.2-15.7-5.1Z"/>
  <path class="cls-1" d="M324.8,322.1c-5.5-8.2-10.7-16-16.1-24.1,1.6-1.1,3-2.1,4.6-3.2,6.9,5.2,13.5,10.5,20.3,15.6,.2-.1,.3-.2,.5-.3-.2-1-.5-2-.7-3-1.8-6.5-3.5-13-5.3-19.6-.6-2.1-.6-2.1,1.2-3.3,.9-.6,1.8-1.1,2.9-1.8,5.4,8,10.6,15.9,16.1,24-.8,.6-1.4,1.1-2.3,1.7-5-7.1-9.5-14.3-14.6-21.1-.1,3,1,5.7,1.6,8.4,.7,2.9,1.5,5.7,2.3,8.5,.7,2.8,1.4,5.6,2.2,8.6-1,.7-1.8,1.2-2.8,1.9-7-5.3-13.9-10.6-21-15.9-.5,1.4,.4,2,.8,2.7,3.7,5.6,7.5,11.3,11.2,16.9,.5,.7,1,1.5,1.6,2.4-.8,.6-1.5,1.1-2.4,1.7Z"/>
  <path class="cls-1" d="M215.4,13.8c1.3-.4,2.2-.8,3.5-1.2,3.9,11.1,7.8,21.9,11.7,33,4.3-1.4,8.3-2.7,12.7-4.1-2.2-7.4-4.4-14.7-6.6-22.2,1.1-.4,2.1-.8,3.4-1.3,2.6,8.6,5.1,16.9,7.7,25.5-6.6,2.2-13,4.3-19.7,6.4-4.3-12-8.4-23.9-12.8-36.2Z"/>
  <path class="cls-1" d="M228,349.4c.2,.2,.4,.4,.6,.4,3.9,1.4,6,4.5,5.7,8.6-.1,1.8-.8,3.3-2.2,4.5-.6,.5-1.3,1.1-2,1.3-4.3,1.4-8.7,2.7-13.3,4.1-2.7-9.5-5.2-18.7-7.8-28.1,1.8-.5,3.4-1,4.9-1.4,2-.6,3.9-1.2,5.9-1.6,1.3-.3,2.7-.4,4.1-.4,1.7,0,3.1,.9,4.1,2.3,2.1,2.9,2.2,6.5,.3,9.6-.1,.2-.2,.4-.2,.7Zm-12,4.9c1,3.7,1.8,7.1,3,10.6,3.2-.9,6.1-1.6,8.9-2.7,3-1.1,4-3.4,3-6.5-1-3.1-3-4.5-6.1-3.8-2.8,.6-5.6,1.5-8.8,2.3Zm-.7-2.4c3.2-.9,6-1.6,8.7-2.6,2.4-.9,3.2-3,2.6-5.6-.8-3-2.2-4.4-4.8-4.2-3.2,.3-6.1,1.4-9.3,2.3,1,3.5,1.8,6.6,2.8,10.1Z"/>
  <path class="cls-1" d="M348,225.5c-1.3,0-1.5-.7-1.3-1.4,.3-.7,.8-1.2,1.3-1.8,6.6-7.7,13.4-15.4,19.9-23.2,9.8-11.7,17.6-24.7,23.3-38.8,.3-.7,.5-1.4,1-1.9,.4-.4,1.2-.5,1.7-.4,.8,.2,1.1,.9,.9,1.7-.1,.5-.4,.9-.6,1.3-10.4,23.9-25.7,44.3-44,62.6-.7,.7-1.6,1.3-2.2,1.8Z"/>
  <path class="cls-1" d="M73,229.3c.4-1,.6-1.9,.9-2.7,4-10.4,9.3-20,15.5-29.3,8.2-12.2,18-23.1,28.1-33.8,.6-.7,1.4-1.8,2.4-.9,1.2,1.1-.1,1.9-.7,2.6-6.3,7.5-12.7,14.9-18.9,22.4-10.1,12.4-18.3,25.9-24.1,40.8-.2,.5-.4,1.2-.8,1.5-.4,.4-1.1,.6-1.6,.6-.3,0-.5-.8-.8-1.2Z"/>
  <path class="cls-1" d="M256.9,324.1c4.2-1.7,8-3.5,12-5,3.3-1.2,6.4-.3,8.7,2.3,4.1,4.7,6.4,10.1,6.8,16.4,.2,3.2-1.1,5.9-3.9,7.4-3.7,2-7.6,3.7-11.6,5.6-4-9-7.9-17.6-12-26.8Zm3.8,1.2c3.3,7.4,6.4,14.6,9.8,21.9,2.7-1.2,5-2.2,7.3-3.4,2.1-1.1,3.2-2.9,3.3-5.3,0-1,0-2-.1-2.9-.8-4.1-2.5-7.9-5.1-11.2-1.5-1.9-3.6-3.3-6.1-2.8-3.2,.6-6,2.3-9.1,3.7Z"/>
  <path class="cls-1" d="M262.4,353.3c-1,.4-1.7,.7-2.6,1.1-1.6-2.1-3.1-4.1-4.7-6.3-3.9,1.4-7.8,2.8-11.9,4.3,0,1.9,.1,3.8,.3,5.6,.2,2.4,.2,2.4-2.5,2.9-.8-9.8-1.6-19.6-2.4-29.7,2.1-.8,4.2-1.6,6.5-2.4,5.8,8.2,11.5,16.3,17.4,24.6Zm-19.4-3.7c3.6-1.3,7-2.4,10.6-4-3.2-4.5-6.2-8.7-9.2-12.9-.5-.8-1.2-.7-1.9-.4-.8,.3-.9,1-.9,1.8,.3,4,.6,7.9,.9,11.9,0,1.1,.3,2.2,.5,3.6Z"/>
  <path class="cls-1" d="M421,180.7c1-2.2,2-4.2,2.9-6.3,9.9,1.6,19.7,3.2,29.7,4.8-.5,1-.8,1.7-1.2,2.5-2.6-.3-5.1-.7-7.8-1-1.8,3.8-3.5,7.6-5.3,11.5,2,1.8,3.9,3.5,5.9,5.2-.4,.8-.7,1.5-1.2,2.5-7.8-6.5-15.4-12.8-23.1-19.3Zm3.4-.9c4.2,3.6,8.4,7.2,12.9,10.7,1.7-3.5,3.2-6.8,4.6-10.1-.5-.3-.6-.4-.7-.4-4.8-.8-9.6-1.6-14.4-2.4-1.6-.3-2,.6-2.3,2.2Z"/>
  <path class="cls-1" d="M48.7,317.4c.6,.7,1.2,1.2,1.8,1.9-.6,.7-1,1.2-1.5,1.7-4.3,4.1-8.6,8.2-13,12.3-4.8,4.5-8.7,4.5-13.4-.1-1.3-1.2-2.4-2.7-3.3-4.2-1.5-2.6-1.3-5.3,.5-7.8,.6-.9,1.3-1.7,2.1-2.4,4.5-4.3,9-8.5,13.5-12.8,.3-.3,.6-.5,1.1-.9,.6,.6,1.2,1.2,2,2-.7,.7-1.2,1.3-1.8,1.8-4,3.8-7.9,7.5-11.9,11.3-.7,.7-1.4,1.3-2,2.1-1.7,2.1-1.9,4.4-.4,6.6,1.1,1.5,2.4,2.9,3.9,3.9,1.9,1.4,4,1.3,5.9,0,.8-.6,1.5-1.2,2.2-1.9,4-3.8,8-7.6,12.1-11.4,.6-.5,1.2-1.1,2.1-1.8Z"/>
  <path class="cls-1" d="M462.4,91.8c-9.6,2.8-19.1,5.6-28.8,8.4-.3-.9-.6-1.6-.9-2.6,3.2-1,6.3-1.9,9.7-2.9-.5-.8-.8-1.4-1.1-2-1.2-2-2.1-4-2.2-6.4-.1-2.2,.7-3.8,2.5-5,3.7-2.4,7.9-3.5,12.2-3.7,2.4,0,4.2,1,5.4,3.1,1.9,3.4,2.7,7.1,3.3,11.1Zm-3.2-2.2c0-2.2-.6-4.2-1.5-6.1-1-2.1-2.6-3-4.9-2.9-3.1,.2-5.9,1.1-8.6,2.5-2.2,1.2-2.9,2.9-2.2,5.4,.4,1.4,1.2,2.6,1.8,4,.6,1.3,1.5,1.5,2.8,1.1,3.8-1.2,7.7-2.2,11.5-3.4,.4-.1,.7-.3,1.1-.6Z"/>
  <path class="cls-1" d="M368.3,250c.7-.7,1.2-1.3,1.9-2,1.3,1.3,2.6,2.4,3.8,3.6,1.2,1.1,2.3,2.2,3.7,3.5,.5-.9,.8-1.7,1.2-2.3,1.1-1.5,2.1-3.1,3.4-4.4,2-2,4-2,6.5-.7,.6,.3,1.2,.6,1.6,1.1,3.6,3.4,7.3,6.7,11,10.2-.7,.8-1.2,1.3-1.9,2.1-.8-.7-1.4-1.2-2.1-1.8-2.3-2.2-4.5-4.4-6.9-6.6-.8-.8-1.7-1.5-2.7-2.1-1.7-1.1-3.3-1-4.7,.4-1.2,1.3-2.2,2.8-3.2,4.2-.7,1-.5,1.9,.4,2.8,3.4,3.2,6.7,6.5,10,9.7,.4,.4,.8,.8,1.5,1.6-.7,.6-1.3,1.2-2.1,1.9-7.3-7.1-14.4-14-21.7-21.1Z"/>
  <path class="cls-1" d="M75.3,181.2c-1-.6-1.7-1.1-2.6-1.7,.6-.9,1.2-1.5,1.7-2.3,1.7-2.4,1.7-4.2,0-6.5-1.1-1.3-2.4-2.5-3.7-3.5-6.8-4.9-13.7-9.6-20.6-14.4-.7-.5-1.4-1-2.3-1.7,.7-1,1.3-1.9,1.9-2.8,.6,.4,1.2,.6,1.7,1,7.1,4.9,14.2,9.8,21.2,14.8,1.6,1.2,3.2,2.6,4.5,4.1,2.9,3.5,3,6.8,.3,10.5-.6,.8-1.2,1.5-2,2.5Z"/>
  <path class="cls-1" d="M436,60.8c-.5,.2-.7,.2-.9,.3-3.5,1.9-3.9,3.6-1.8,6.9,1.2,1.8,2.5,3.6,3.8,5.6-.5,.4-1,.8-1.6,1.2-2.3-2.3-4.2-4.8-5.5-7.6-1.5-3.1-1-5.5,1.9-7.4,2.8-1.9,5.7-3.5,8.5-5.2,1.4-.8,2.9-1.5,2.6-3.7,0-.4,.8-1,1.6-1.9,.5,1.6,1,2.7,1,3.7,0,1.4,.7,2.2,1.6,3.1,1.2,1.2,2.4,2.4,3.4,3.8,2.3,3.4,1.8,6.1-1.2,8.3-3.3,2.4-6.1,2.1-8.8-1-1.1-1.4-2.1-2.9-3.2-4.3-.4-.6-.9-1.1-1.4-1.8Zm1.8-1.3c1.7,2.2,3.2,4.4,4.9,6.3,1.3,1.4,3.2,1.1,5.1-.4,1.7-1.3,2-2.7,.9-4.5-1-1.5-2.4-2.9-3.6-4.3-.6-.6-1.2-.7-2-.3-1.7,1-3.3,2-5.3,3.2Z"/>
  <path class="cls-1" d="M385.3,275.3c-1.2,2-2.5,2.3-4.3,1.7-2.1-.8-4.4-1.3-6.6-1.9q-2.8-.8-4.9,2c2,2.3,4,4.6,6.2,7-.7,.7-1.3,1.2-2.1,1.9-6.8-7.5-13.4-14.9-20.1-22.4,.7-.7,1.3-1.2,2.1-2,4,4.4,7.9,8.8,11.7,13,2.7-1.4,3-1.9,2.6-4.7-.3-1.9-.4-3.9-.7-5.8-.3-1.7,.2-3,2.1-3.9,.3,2.7,.7,5.3,1,7.9,0,.5,0,1,.1,1.5,0,1.4,.7,2.2,2.1,2.5,3.5,.9,7,2,10.7,3Z"/>
  <path class="cls-1" d="M413.9,223.7c-.7-.6-1.1-1-1.7-1.4-2.3-1.6-3.9-1.3-5.6,1-.8,1-1.5,2.1-2.2,3.2-.7,1-1.3,2-1.9,3-1.4-.4-2-1-1.2-2.2,1.4-2.2,2.6-4.5,4.2-6.6,2.3-2.9,4.8-3.2,7.9-1.2,2.7,1.8,5.3,3.8,7.9,5.8,1.3,1,2.5,2.1,4.4,.9,.4-.2,1.3,.5,2.4,.9-1.4,1.1-2.3,2-3.3,2.4-1.1,.5-1.4,1.2-1.8,2.1-.8,1.9-1.7,3.9-2.9,5.6-1.9,2.7-4.6,3.1-7.5,1.4-3.2-1.9-4.3-4.4-2.9-7.5,.8-1.9,2-3.6,3-5.3,.4-.7,.8-1.4,1.3-2.3Zm7.6,5.5c-2-1.3-3.6-3.1-6-4-1.2,2.1-2.5,4.1-3.6,6.2-1,1.9-.2,3.7,2.1,5,1.9,1.1,3.3,.9,4.7-.9,1.3-1.7,2.3-3.7,2.8-6.2Z"/>
  <path class="cls-1" d="M464.8,101.7c-.2,1-.1,2.1-.6,3-.7,1.3-.4,2.4,0,3.7,.6,1.7,1,3.4,1.2,5.2,.4,4-1.5,6.2-5.5,6.4-4,.3-5.8-1.1-6.7-5.1-.5-2.4-.9-4.8-1.3-7.3-1,0-1.9,0-2.7,0-2.2,.3-3.2,1.4-3.1,3.6,0,1.8,.3,3.6,.5,5.3,0,.9,.2,1.8,.3,2.7-1.1,.8-2,.8-2.2-.6-.5-2.7-1-5.4-1.1-8.2-.1-3.4,1.5-5.2,4.9-5.6,3.5-.4,7.1-.6,10.7-.8,1.5,0,2.7-.3,3.3-1.9,.4-1.1,1.2-.8,2.3-.4Zm-10.7,5.6c.3,1.8,.5,3.4,.8,4.9,.2,1,.3,1.9,.6,2.8,.7,1.8,2.5,2.5,4.7,2,2-.4,3.1-1.5,2.8-3.6-.2-1.9-.8-3.8-1.3-5.6-.1-.5-.9-1-1.4-1-2,0-4,.3-6.2,.5Z"/>
  <path class="cls-1" d="M355.1,299c-1,0-2.4-.6-3.6-1.6-2.8-2.3-5-5.1-6.6-8.4-1.3-2.9-.9-5.5,1.2-7.9,.6-.7,1.3-1.3,2-1.8,4.2-3.3,7.7-3.1,11.4,.7,1.7,1.8,3.3,3.9,4.5,6,2.2,3.8,1.7,6.6-1.6,9.6-1.9,1.8-4,3.3-7.5,3.4Zm-1.2-19.3c-2.4,0-3.8,1-5.1,2.2-2.1,1.9-2.6,3.7-1.1,6.1,1.5,2.5,3.4,4.8,5.4,6.9,1.8,1.8,3.6,1.8,5.8,.4,.8-.5,1.5-1,2.1-1.7,1.7-1.7,2-3.4,.9-5.6-1.4-2.8-3.3-5.2-5.8-7.2-.8-.6-1.8-.9-2.3-1.2Z"/>
  <path class="cls-1" d="M99.5,363.3c-1.4,4.8,0,7.2,4.3,8.2,1.2,.3,2.4,.4,3.6,.6,1.1,.2,2.2,.4,3.5,.6,0,.7-.2,1.3-.3,2-3.5-.2-6.8-.3-10-1.5-2.8-1-4.3-3-4.5-6.1-.2-3.6,.4-7,1.9-10.2,2.5-5.2,10-6.3,14-2.1,1.4,1.5,1.9,3.3,1.8,5.2,0,1.8-.5,3.7-.7,5.8-4.7-.9-9.2-1.7-13.7-2.5Zm11.3-.2c.3-2.9,1-5.5-1.4-7.3-1.9-1.4-4.2-1.7-6.5-.6-1.9,1-3,3.5-2.7,5.9,3.4,.6,6.8,1.3,10.6,2Z"/>
  <path class="cls-1" d="M197.2,362.8c-4.4,.8-8.8,1.5-13,2.2-.5,4.1,1.9,6.7,5.7,6.3,1.9-.2,3.7-.6,5.5-1,.8-.1,1.6-.3,2.4-.5,.7,1.2,.6,2-.7,2.3-3,.8-5.9,1.7-9.1,1.6-2.5,0-4.5-1.2-5.5-3.4-1.9-4-2.7-8.2-1.7-12.6,.5-2.5,2.1-4.2,4.5-5,1.3-.4,2.7-.7,4-.8,3.2-.2,5.5,1.3,6.8,4.2,.9,1.9,1.5,4,1.1,6.5Zm-2.7-1.8c-.5-2.8-.9-5.3-3.6-6.3-2.2-.8-4.4-.2-6.1,1.3-2,1.8-1.9,4.1-1.3,6.8,3.7-.6,7.3-1.2,11.1-1.8Z"/>
  <path class="cls-1" d="M41.9,348.9c-.7-.5-1.3-.9-2.2-1.5,3.7-5.9,7.4-11.6,11-17.4q2,.9,2.5,2.6c.6,.1,1.2,.1,1.8,.4,1.7,.7,3.5,1.3,5.1,2.3,2.6,1.7,3.1,3.7,2.2,6.6-.3,.8-.5,1.6-1,2.2-2.4,4-4.9,8-7.5,12.3-.8-.5-1.5-.9-2.3-1.3,.3-.7,.6-1.3,.9-1.8,1.5-2.4,3.1-4.8,4.6-7.2,.6-.9,1.1-1.8,1.6-2.7,2-3.8,1.3-5.8-2.6-7.5-.3-.1-.6-.3-.9-.4-3.2-1.2-3.6-1.1-5.5,1.9-2.4,3.7-4.7,7.4-7.1,11.1,0,.1-.2,.2-.6,.6Z"/>
  <path class="cls-1" d="M461,155.7c-.4,1.2-.6,1.9-.9,2.7-2.5-.7-4.9-1.5-7.3-2.1-2.2-.6-4.4-1.3-6.6-1.7-3.4-.6-4.8,.5-5.6,3.8,0,.2-.1,.5-.2,.7-.7,4.2-.3,4.8,3.8,6,3.7,1.1,7.3,2.2,11,3.3,.5,.2,1.1,.4,1.7,.6-.2,.8-.4,1.6-.7,2.6-6.7-2-13.3-3.9-19.8-5.9,.1-1.4,.2-2.6,1.7-2.8,0-.8,0-1.5,0-2.2,0-1.1,0-2.3,.2-3.4,1-4.9,3.3-6.6,8.2-5.5,4.8,1.1,9.6,2.5,14.6,3.9Z"/>
  <path class="cls-1" d="M463.4,142.9c-.2,1.1-.4,1.8-.5,2.7-6.8-.9-13.5-1.7-20.2-2.5-.5-1.4-.5-2.5,.9-3.1-.2-2-.6-4-.6-5.9,0-4.7,2.2-6.8,6.8-6.6,3.5,.1,7,.7,10.4,1.1,1.4,.2,2.9,.4,4.4,.6v2.7c-3.2-.4-6.3-.8-9.3-1.1-2-.2-4.1-.4-6.1-.3-2.3,0-3.1,1-3.7,3.2-.5,2-.1,3.9,.3,5.8,.3,1.2,1.3,1.4,2.2,1.5,4.2,.5,8.4,1,12.6,1.6,.8,0,1.6,.2,2.7,.4Z"/>
  <path class="cls-1" d="M149.8,357.1v1.9c-.4,0-.7,.2-1,.2-2.2-.1-4.4-.4-6.6-.5-.9,0-1.8,.2-2.6,.5-1.2,.4-1.8,1.4-1.8,2.7,0,1.3,.6,2.2,1.8,2.7,.9,.3,1.9,.5,2.8,.8,1.5,.4,3,.6,4.5,1.1,2.6,.8,3.5,2.1,3.5,4.9,0,3.2-1,5.1-3.6,6-2.6,.9-5.3,.6-8,.4-.6,0-1.3-.2-1.9-.3q-1.8-.3-1.4-2.6c1.7,.2,3.5,.4,5.2,.5,1.4,0,2.8,0,4.1-.2,1.8-.3,2.7-1.5,2.7-3.3,0-1.6-.7-2.7-2.5-3.2-1.3-.4-2.7-.6-4.1-.8-.7-.1-1.4-.3-2.1-.5-3.1-.9-4.2-2.3-4.1-5.2,0-3.1,1.6-4.8,4.5-5.5,2.9-.6,7.2-.4,10.3,.7Z"/>
  <path class="cls-1" d="M77,366.6c.3-7.2,.6-14.3,.9-21.5,.8,.1,1.2,.1,1.5,.2,.4,.1,.7,.3,1.2,.5,0,1,0,2.1,0,3.1-.2,4.4-.5,8.8-.8,13.2,0,.5,0,1,0,1.5,0,.7,0,1.5,.9,1.5,.5,0,1.1-.4,1.5-.8,.6-.6,.9-1.3,1.4-2,2.4-3.5,4.7-7,7.1-10.6,.4-.7,.9-1.3,1.5-2.1,.8,.2,1.6,.4,2.3,.7-.6,1.8-9.4,15.2-12,18.1-1.7-.6-3.6-1.2-5.6-1.8Z"/>
  <path class="cls-1" d="M386.6,234.8c.6-.7,1.1-1.3,1.7-2.1,1.7,1.4,3.3,2.6,5,4,1.5-1.7,2.8-3.2,4.3-4.8,.6,.4,1.2,.8,1.9,1.4-1.4,1.7-2.8,3.4-4.2,5.1,.5,.5,.8,1,1.2,1.3,2.7,2.3,5.4,4.7,8.2,6.9,2.5,2,3.7,1.8,5.7-.8,.4-.6,.9-1.1,1.5-1.9,.6,.4,1.2,.8,2,1.4-1.3,1.6-2.4,3.1-3.6,4.5-1.3,1.4-3,1.6-4.7,.7-1.3-.8-2.6-1.7-3.8-2.6-2.8-2.3-5.5-4.6-8.3-7-.8,.7-1.4,1.2-2.2,1.9-.5-.4-1-.9-1.6-1.4,.6-.8,1-1.4,1.6-2.3-1.5-1.4-3-2.7-4.7-4.2Z"/>
  <path class="cls-1" d="M169.1,357.8c.5,4.6,.8,8.8,1.4,13,.3,2.4,1.4,3.1,3.9,2.9,1,0,1.9-.2,3-.3,.1,.7,.2,1.3,.3,2-1.9,.9-3.7,1.1-5.6,1-2.2,0-3.4-.8-4-2.9-.5-1.9-.8-3.8-1-5.8-.3-2.3-.4-4.7-.7-7.1,0-.7-.3-1.4-.4-2.2-.9,0-1.8-.2-2.8-.3,0-.6,0-1.3,0-1.9,.9-.3,1.7-.5,2.6-.8-.1-2-.2-3.9-.3-6.1,.9,0,1.6-.2,2.5-.3,.3,2.1,.5,4,.8,6.2,2.2-.1,4.3-.2,6.5-.4,0,.8,.2,1.4,.3,2.2-2.2,.3-4.2,.6-6.7,.9Z"/>
  <path class="cls-1" d="M292.9,343.2c-.4-.9-.8-1.5-1.1-2.2,.4-.3,.6-.5,.9-.7,2.5-1.8,2.8-2.5,1.4-5.3-3.4-6.8-6.9-13.5-10.3-20.2-.4-.7-.7-1.5-1.2-2.4,.8-.4,1.5-.8,2.4-1.3,.4,.7,.8,1.2,1.1,1.8,3.5,6.8,7,13.6,10.5,20.4,.4,.9,.8,1.8,1.1,2.7,.7,2.5,.2,4-1.9,5.5-.8,.6-1.7,1-2.8,1.7Z"/>
  <path class="cls-1" d="M291.4,307.6c1-.5,1.7-.9,2.6-1.4,4.6,8.5,9.2,16.8,13.9,25.4-.8,.5-1.5,.9-2.5,1.5-4.7-8.5-9.2-16.9-14-25.5Z"/>
  <path class="cls-1" d="M432.2,219.6c-.5,.8-.9,1.4-1.5,2.4-5.9-3.8-11.7-7.5-17.6-11.2,.5-.8,.9-1.4,1.3-2.1,.8,.3,1.5,.5,2.4,.8,.5-2.6,.3-5.2,1.7-7.7,.8,.4,1.4,.8,2.1,1.3-.4,1.9-.9,3.7-1.3,5.5-.4,1.8,0,3,1.8,4,3,1.7,5.9,3.7,8.9,5.6,.7,.4,1.3,.9,2.1,1.4Z"/>
  <path class="cls-1" d="M121.8,376.1c-.9,0-1.6-.2-2.6-.3,.4-6.9,1.2-13.7,1.8-20.6,.6,0,.9-.1,1.2,0,.4,0,.8,.2,1.3,.3,0,.8,.2,1.5,.3,2.4,2.5-.7,4.7-2.2,7.4-2v2.4c-1.9,.5-3.7,1-5.5,1.4-1.9,.4-2.6,1.5-2.7,3.4-.3,3.9-.7,7.8-1,11.7,0,.3,0,.6-.2,1.3Z"/>
  <path class="cls-1" d="M64.9,361.7c-1-.5-1.6-.8-2.5-1.3,2.9-6.3,5.7-12.4,8.7-18.9,.9,.4,1.6,.7,2.6,1.2-2.9,6.4-5.8,12.6-8.7,19Z"/>
  <path class="cls-1" d="M160,376.8c-.9,0-1.7,.2-2.8,.3-.4-7-.7-13.7-1-20.7,.9-.2,1.6-.3,2.7-.5,.4,7,.7,13.8,1.1,20.8Z"/>
  <path class="cls-1" d="M183.1,349c-.4-.7-.6-1.1-1-1.7,2.6-1.8,5.1-3.5,7.9-5.3,.5,.7,.9,1.3,1.5,2.1-2.8,1.7-5.5,3.2-8.3,4.9Z"/>
  <path class="cls-1" d="M61.5,124.8c-1.1-1-2-1.8-3-2.7,.8-.9,1.5-1.7,2.3-2.6,1,.9,2,1.7,3.1,2.6-.8,.9-1.5,1.7-2.4,2.8Z"/>
  <path class="cls-1" d="M65.5,114.3c1,1,1.9,1.8,2.9,2.7-.8,.9-1.4,1.7-2.3,2.7-1-.9-2-1.7-3.1-2.7,.8-1,1.6-1.8,2.4-2.7Z"/>
  <path class="cls-1" d="M270.4,1.1c.3,1.4,.5,2.6,.7,4-1.3,.2-2.3,.4-3.5,.6-.3-1.3-.5-2.5-.8-3.8,1.2-.2,2.3-.5,3.5-.7Z"/>
  <path class="cls-1" d="M11.8,209.3c-.4,1.2-.7,2.2-1.1,3.4-1.3-.4-2.4-.8-3.7-1.2,.3-1.2,.6-2.2,.9-3.4,1.3,.4,2.4,.7,3.9,1.2Z"/>
  <path class="cls-1" d="M188.9,91.8c-1.2,.6-2,1.1-3.1,1.7-.7-1.2-1.3-2.2-2-3.5,1.1-.6,2-1.1,3.1-1.8,.7,1.2,1.2,2.2,2,3.5Z"/>
  <path class="cls-1" d="M45,250.7h-3.9c.1-1.2,.2-2.2,.3-3.3h3.6v3.3Z"/>
  <path class="cls-1" d="M83,96.7c1.1,1,2,1.8,3.1,2.7-.9,.9-1.7,1.6-2.6,2.5-1-.9-1.9-1.8-2.9-2.8,.9-.9,1.6-1.6,2.4-2.4Z"/>
  <path class="cls-1" d="M179.8,96.9c-.7-1.3-1.3-2.2-1.9-3.4,1-.6,1.9-1.2,3-1.9,.7,1.2,1.3,2.3,2,3.5-1.1,.6-2,1.1-3.1,1.8Z"/>
  <path class="cls-1" d="M249.2,48.4c.4,1.4,.7,2.5,1,3.6-.5,.3-.9,.5-1.2,.6-.6,.2-1.2,.3-2.1,.5-.4-1.2-.7-2.3-1.2-3.7,1.2-.3,2.1-.6,3.4-1Z"/>
  <path class="cls-1" d="M211,62.1c1.1-.5,2.1-.9,3.1-1.4,.6,1.3,1,2.3,1.6,3.6-1.2,.5-2.1,.9-3.3,1.4-.5-1.3-1-2.4-1.5-3.6Z"/>
  <path class="cls-1" d="M381.9,49c1.2,.5,2.1,.9,3.2,1.5-.5,1.2-1,2.3-1.6,3.6-1.1-.5-2.1-.9-3.4-1.4,.6-1.3,1.1-2.3,1.7-3.7Z"/>
  <path class="cls-1" d="M4.7,274.1c.2,1.3,.3,2.3,.4,3.5-1.3,.2-2.3,.4-3.7,.7-.2-1.2-.4-2.2-.7-3.5,1.4-.2,2.6-.4,3.9-.6Z"/>
  <path class="cls-1" d="M1.8,281.5c1.4-.2,2.6-.4,4-.6,.2,1.2,.4,2.1,.7,3.4-1.4,.2-2.6,.4-3.9,.6-.3-1.2-.5-2.1-.8-3.4Z"/>
  <path class="cls-1" d="M277.8,3.8c-1.2,.2-2.2,.4-3.4,.6-.3-1.3-.5-2.4-.8-3.8,1.3-.2,2.2-.4,3.5-.6,.2,1.3,.4,2.4,.7,3.8Z"/>
  <path class="cls-1" d="M158.4,350.7c-.7,0-1.4,.1-2.4,.2,0-1.1-.1-2-.2-3.1,.9,0,1.7-.1,2.6-.2v3.1Z"/>
  <path class="cls-1" d="M73.2,336.8c.5-1.2,.9-2,1.4-3,.9,.4,1.6,.7,2.5,1.1-.5,1-.9,1.8-1.3,2.9-.8-.3-1.6-.6-2.5-1Z"/>
</svg>