<svg width="190" height="50" viewBox="0 0 190 50" fill="none" xmlns="http://www.w3.org/2000/svg">
<g clip-path="url(#clip0_85_83)">
<path d="M67.2349 37.7747V12.0608H71.8355V33.292H79.0591V37.7747H67.2349Z" fill="black"/>
<path d="M94.1186 37.7747H80.9321V12.0608H93.9155V16.5434H85.5686V22.5088H92.7593V26.9596H85.5686V33.2891H94.1216V37.7747H94.1186Z" fill="black"/>
<path d="M94.3218 12.0608H99.8067L111.222 29.4336V12.0608H115.822V35.7313C115.822 36.4134 115.646 36.951 115.293 37.3469C114.941 37.7429 114.469 37.9394 113.88 37.9394C113.358 37.9394 112.865 37.8411 112.399 37.6417C111.933 37.4452 111.541 37.1041 111.222 36.6186L94.3218 12.0608Z" fill="black"/>
<path d="M131.975 37.7747H118.789V12.0608H131.772V16.5434H123.425V22.5088H130.616V26.9596H123.425V33.2891H131.978V37.7747H131.975Z" fill="black"/>
<path d="M133.917 37.7747V12.0608H138.518V33.292H145.741V37.7747H133.917Z" fill="black"/>
<path d="M168.672 12.0608V26.1706C168.672 29.9076 167.779 32.7747 165.999 34.7747C164.215 36.7747 161.712 37.7747 158.485 37.7747H157.598C154.348 37.7747 151.844 36.7804 150.085 34.792C148.325 32.8036 147.444 29.9307 147.444 26.1706V12.0608H152.077V26.1706C152.077 27.5348 152.179 28.6648 152.385 29.5666C152.588 30.4683 152.914 31.1995 153.356 31.7573C153.798 32.318 154.366 32.714 155.059 32.9452C155.752 33.1764 156.597 33.292 157.598 33.292H158.485C159.462 33.292 160.302 33.1706 161.007 32.9307C161.712 32.688 162.288 32.2949 162.745 31.7429C163.2 31.1937 163.528 30.4625 163.734 29.5492C163.937 28.6388 164.042 27.5117 164.042 26.1706V12.0608H168.672Z" fill="black"/>
<path d="M176.099 30.555V37.7747H171.466V12.0608H180.291C181.811 12.0608 183.177 12.2978 184.38 12.7689C185.584 13.2429 186.606 13.8903 187.449 14.714C188.288 15.5377 188.936 16.5174 189.39 17.6475C189.844 18.7804 190.071 20.003 190.071 21.3238C190.071 22.6417 189.844 23.8671 189.39 25.0001C188.936 26.133 188.282 27.1099 187.431 27.9336C186.579 28.7573 185.552 29.4018 184.348 29.8614C183.144 30.3238 181.793 30.5521 180.294 30.5521H176.099V30.555ZM180.156 26.0724C180.975 26.0724 181.719 25.951 182.388 25.7111C183.057 25.4683 183.631 25.133 184.109 24.7053C184.587 24.2776 184.954 23.7718 185.217 23.188C185.477 22.607 185.608 21.9741 185.608 21.292C185.608 20.6099 185.477 19.9799 185.217 19.3961C184.954 18.8151 184.587 18.3093 184.109 17.8787C183.631 17.451 183.057 17.1215 182.388 16.8903C181.719 16.6591 180.975 16.5434 180.156 16.5434H176.102V26.0695H180.156V26.0724Z" fill="black"/>
<path d="M23.9859 29.1735C23.3585 31.0868 22.7341 33.0001 22.1068 34.9134C21.3121 37.344 20.5145 39.7862 19.7228 42.2111C13.1236 47.3701 6.2615 49.662 5.15914 50.0117C6.07329 48.6215 8.83068 44.0435 8.09279 37.9047C7.12486 29.8614 0.914019 25.4654 -0.119629 24.7631C4.21811 23.8614 9.69405 22.318 15.645 19.5666C20.9865 17.0984 25.3362 14.2949 28.7359 11.7227C26.9076 13.5377 25.0793 15.3556 23.251 17.1706C20.7266 19.6793 18.1992 22.188 15.6749 24.6995C15.0804 25.292 14.8922 26.0926 15.17 26.8412C15.4747 27.662 16.2783 28.2429 17.2612 28.3556L23.8335 29.1013C23.9231 29.1128 23.9739 29.1533 23.9859 29.1735Z" fill="black"/>
<path d="M46.6218 23.8433C41.1548 29.2826 35.6848 34.7161 30.2149 40.1496C27.1767 43.1699 24.1354 46.1901 21.0943 49.2132C20.6671 49.6352 20.0128 49.6092 19.5826 49.3635C19.3765 49.245 19.0509 48.982 19.1943 48.5427C20.6013 44.2248 22.0592 39.7624 23.5051 35.3375C24.1325 33.4184 24.7598 31.5051 25.3872 29.5861C25.5156 29.1901 25.4529 28.7595 25.2169 28.4098C24.954 28.0196 24.5119 27.7624 24.004 27.7046L17.4347 26.9589C16.9238 26.9011 16.643 26.615 16.5534 26.3693C16.4638 26.1294 16.5295 25.8837 16.7326 25.6814C19.26 23.1728 21.7844 20.6641 24.3087 18.1525C26.7465 15.7277 29.1872 13.3057 31.6279 10.8809C33.3994 9.12074 35.171 7.35774 36.9455 5.59762C38.7171 3.8375 40.4886 2.07739 42.2601 0.317273C42.4932 0.0860587 42.7949 -0.012207 43.0936 -0.012207C43.3386 -0.012207 43.5806 0.0542671 43.7748 0.164094C43.9809 0.282591 44.3035 0.545597 44.1601 0.984903C42.1645 7.10629 40.1749 13.1901 37.9672 19.9416C37.8388 20.3375 37.9015 20.7681 38.1375 21.1207C38.4004 21.5109 38.8425 21.7681 39.3504 21.8259L45.9227 22.5745C46.4306 22.6323 46.7084 22.9155 46.801 23.1612C46.8518 23.297 46.8966 23.5716 46.6218 23.8433Z" fill="#FAE200"/>
<path d="M23.6871 12.3092C26.7873 12.3092 29.3005 9.89727 29.3005 6.92195C29.3005 3.94664 26.7873 1.53467 23.6871 1.53467C20.5869 1.53467 18.0737 3.94664 18.0737 6.92195C18.0737 9.89727 20.5869 12.3092 23.6871 12.3092Z" fill="#FAE200"/>
</g>
<defs>
<clipPath id="clip0_85_83">
<rect width="190" height="50" fill="white"/>
</clipPath>
</defs>
</svg>
