<svg width="26" height="28" viewBox="0 0 26 28" fill="none" xmlns="http://www.w3.org/2000/svg">
<path d="M2.88889 10.8679C2.88889 6.7258 6.1224 3.36792 10.1111 3.36792C14.0998 3.36792 17.3334 6.7258 17.3334 10.8679C17.3334 15.01 14.0998 18.3679 10.1111 18.3679C6.1224 18.3679 2.88889 15.01 2.88889 10.8679ZM10.1111 0.36792C4.52691 0.36792 0 5.06894 0 10.8679C0 16.6669 4.52691 21.368 10.1111 21.368C12.3822 21.368 14.4786 20.5903 16.1665 19.2775L23.5342 26.9286C24.0983 27.5144 25.0129 27.5144 25.577 26.9286C26.141 26.3429 26.141 25.3931 25.577 24.8073L18.2093 17.1562C19.4734 15.4033 20.2223 13.2264 20.2223 10.8679C20.2223 5.06894 15.6954 0.36792 10.1111 0.36792Z" fill="#212121"/>
</svg>
