<svg width="25" height="25" viewBox="0 0 25 25" fill="none" xmlns="http://www.w3.org/2000/svg">
<path d="M18.5 3.25C18.5 2.83579 18.1642 2.5 17.75 2.5C17.3358 2.5 17 2.83579 17 3.25V19.9393L14.7803 17.7197C14.4874 17.4268 14.0126 17.4268 13.7197 17.7197C13.4268 18.0126 13.4268 18.4874 13.7197 18.7803L17.2197 22.2803C17.5126 22.5732 17.9874 22.5732 18.2803 22.2803L21.7803 18.7803C22.0732 18.4874 22.0732 18.0126 21.7803 17.7197C21.4874 17.4268 21.0126 17.4268 20.7197 17.7197L18.5 19.9393V3.25ZM3.25 5C2.83579 5 2.5 5.33579 2.5 5.75C2.5 6.16421 2.83579 6.5 3.25 6.5H13.75C14.1642 6.5 14.5 6.16421 14.5 5.75C14.5 5.33579 14.1642 5 13.75 5H3.25ZM6.5 9.75C6.5 9.33579 6.83579 9 7.25 9H13.75C14.1642 9 14.5 9.33579 14.5 9.75C14.5 10.1642 14.1642 10.5 13.75 10.5H7.25C6.83579 10.5 6.5 10.1642 6.5 9.75ZM11.25 13C10.8358 13 10.5 13.3358 10.5 13.75C10.5 14.1642 10.8358 14.5 11.25 14.5H13.75C14.1642 14.5 14.5 14.1642 14.5 13.75C14.5 13.3358 14.1642 13 13.75 13H11.25Z" fill="#3D3700"/>
</svg>
