<svg width="32" height="24" viewBox="0 0 32 24" fill="none" xmlns="http://www.w3.org/2000/svg">
<path d="M1.74984 19.9167H20.7498C21.6243 19.9167 22.3332 20.6256 22.3332 21.5001C22.3332 22.312 21.722 22.9813 20.9345 23.0728L20.7498 23.0834H1.74984C0.875394 23.0834 0.166504 22.3746 0.166504 21.5001C0.166504 20.6881 0.777734 20.0189 1.56519 19.9274L1.74984 19.9167ZM1.74984 10.4167H30.2498C31.1243 10.4167 31.8332 11.1256 31.8332 12.0001C31.8332 12.812 31.222 13.4813 30.4345 13.5728L30.2498 13.5834H1.74984C0.875394 13.5834 0.166504 12.8746 0.166504 12.0001C0.166504 11.1881 0.777734 10.5189 1.56519 10.4274L1.74984 10.4167ZM1.74984 0.916748H25.4998C26.3743 0.916748 27.0832 1.62564 27.0832 2.50008C27.0832 3.31208 26.472 3.98131 25.6845 4.07276L25.4998 4.08341H1.74984C0.875394 4.08341 0.166504 3.37452 0.166504 2.50008C0.166504 1.68808 0.777734 1.01886 1.56519 0.927404L1.74984 0.916748Z" fill="#212121"/>
</svg>
