<svg width="24" height="24" viewBox="0 0 24 24" fill="none" xmlns="http://www.w3.org/2000/svg">
<path fill-rule="evenodd" clip-rule="evenodd" d="M1.29982 1.29989C1.65137 0.948768 2.12794 0.751543 2.62481 0.751543C3.12169 0.751543 3.59824 0.948768 3.94982 1.29989L11.9998 9.34989L20.0498 1.29989C20.2216 1.11567 20.4286 0.967918 20.6586 0.865443C20.8886 0.762968 21.1368 0.707868 21.3886 0.703418C21.6403 0.698968 21.8903 0.745293 22.1238 0.839593C22.3573 0.933893 22.5693 1.07424 22.7473 1.25229C22.9256 1.43034 23.0658 1.64244 23.1601 1.87589C23.2543 2.10937 23.3008 2.35944 23.2963 2.61119C23.2918 2.86297 23.2368 3.11124 23.1343 3.34124C23.0318 3.57124 22.8841 3.77824 22.6998 3.94989L14.6498 11.9999L22.6998 20.0499C22.8841 20.2216 23.0318 20.4286 23.1343 20.6586C23.2368 20.8886 23.2918 21.1369 23.2963 21.3886C23.3008 21.6404 23.2543 21.8904 23.1601 22.1239C23.0658 22.3574 22.9256 22.5694 22.7473 22.7474C22.5693 22.9256 22.3573 23.0659 22.1238 23.1601C21.8903 23.2544 21.6403 23.3009 21.3886 23.2964C21.1368 23.2919 20.8886 23.2369 20.6586 23.1344C20.4286 23.0319 20.2216 22.8841 20.0498 22.6999L11.9998 14.6499L3.94982 22.6999C3.59437 23.0311 3.12424 23.2114 2.63849 23.2029C2.15274 23.1941 1.68929 22.9974 1.34574 22.6539C1.00221 22.3104 0.80544 21.8469 0.796865 21.3611C0.78829 20.8754 0.968615 20.4054 1.29982 20.0499L9.34982 11.9999L1.29982 3.94989C0.94869 3.59834 0.751465 3.12177 0.751465 2.62489C0.751465 2.12802 0.94869 1.65147 1.29982 1.29989Z" fill="#24292E"/>
</svg>
