<svg width="40" height="40" viewBox="0 0 40 40" fill="none" xmlns="http://www.w3.org/2000/svg">
<circle cx="20" cy="20" r="20" fill="#D9D9D9"/>
<path d="M29.2284 22.9437C31.1079 22.9437 32.6314 24.4276 32.6314 26.2584V27.6121C32.6314 28.4573 32.3603 29.2812 31.8558 29.9688C29.5165 33.1572 25.6967 34.7369 20.5212 34.7369C15.3446 34.7369 11.5268 33.1566 9.19318 29.9664C8.69085 29.2797 8.4209 28.4576 8.4209 27.6143V26.2584C8.4209 24.4276 9.94447 22.9437 11.8239 22.9437H29.2284ZM20.5212 5.26318C24.6998 5.26318 28.0873 8.56273 28.0873 12.6329C28.0873 16.7031 24.6998 20.0027 20.5212 20.0027C16.3426 20.0027 12.9551 16.7031 12.9551 12.6329C12.9551 8.56273 16.3426 5.26318 20.5212 5.26318Z" fill="#212121"/>
</svg>
