<svg width="25" height="31" viewBox="0 0 25 31" fill="none" xmlns="http://www.w3.org/2000/svg">
<path d="M21.2303 18.4435C23.1099 18.4435 24.6334 19.9275 24.6334 21.7583V23.112C24.6334 23.9571 24.3622 24.7811 23.8577 25.4687C21.5184 28.6571 17.6987 30.2367 12.5232 30.2367C7.34651 30.2367 3.52874 28.6565 1.19513 25.4663C0.692807 24.7796 0.422852 23.9574 0.422852 23.1142V21.7583C0.422852 19.9275 1.94642 18.4435 3.82586 18.4435H21.2303ZM12.5232 0.763062C16.7018 0.763062 20.0892 4.06261 20.0892 8.1328C20.0892 12.203 16.7018 15.5026 12.5232 15.5026C8.34453 15.5026 4.9571 12.203 4.9571 8.1328C4.9571 4.06261 8.34453 0.763062 12.5232 0.763062Z" fill="#453507"/>
</svg>
