<svg width="190" height="50" viewBox="0 0 190 50" fill="none" xmlns="http://www.w3.org/2000/svg">
<g clip-path="url(#clip0_197_22)">
<path d="M67.2354 37.7747V12.0608H71.836V33.292H79.0596V37.7747H67.2354Z" fill="#FFFFFC"/>
<path d="M94.1191 37.7747H80.9326V12.0608H93.9159V16.5434H85.5691V22.5088H92.7598V26.9596H85.5691V33.2891H94.1221V37.7747H94.1191Z" fill="#FFFFFC"/>
<path d="M94.3223 12.0608H99.8072L111.222 29.4336V12.0608H115.823V35.7313C115.823 36.4134 115.646 36.951 115.294 37.3469C114.941 37.7429 114.469 37.9394 113.881 37.9394C113.358 37.9394 112.865 37.8411 112.399 37.6417C111.933 37.4452 111.542 37.1041 111.222 36.6186L94.3223 12.0608Z" fill="#FFFFFC"/>
<path d="M131.976 37.7747H118.789V12.0608H131.772V16.5434H123.426V22.5088H130.616V26.9596H123.426V33.2891H131.979V37.7747H131.976Z" fill="#FFFFFC"/>
<path d="M133.918 37.7747V12.0608H138.519V33.292H145.742V37.7747H133.918Z" fill="#FFFFFC"/>
<path d="M168.673 12.0608V26.1706C168.673 29.9076 167.78 32.7747 165.999 34.7747C164.216 36.7747 161.712 37.7747 158.486 37.7747H157.599C154.348 37.7747 151.845 36.7804 150.085 34.792C148.326 32.8036 147.444 29.9307 147.444 26.1706V12.0608H152.078V26.1706C152.078 27.5348 152.179 28.6648 152.386 29.5666C152.589 30.4683 152.914 31.1995 153.356 31.7573C153.799 32.318 154.366 32.714 155.059 32.9452C155.752 33.1764 156.598 33.292 157.599 33.292H158.486C159.463 33.292 160.302 33.1706 161.007 32.9307C161.712 32.688 162.289 32.2949 162.746 31.7429C163.2 31.1937 163.529 30.4625 163.735 29.5492C163.938 28.6388 164.042 27.5117 164.042 26.1706V12.0608H168.673Z" fill="#FFFFFC"/>
<path d="M176.1 30.555V37.7747H171.467V12.0608H180.292C181.812 12.0608 183.177 12.2978 184.381 12.7689C185.585 13.2429 186.607 13.8903 187.45 14.714C188.289 15.5377 188.937 16.5174 189.391 17.6475C189.845 18.7804 190.072 20.003 190.072 21.3238C190.072 22.6417 189.845 23.8671 189.391 25.0001C188.937 26.133 188.283 27.1099 187.432 27.9336C186.58 28.7573 185.552 29.4018 184.349 29.8614C183.145 30.3238 181.794 30.5521 180.295 30.5521H176.1V30.555ZM180.157 26.0724C180.976 26.0724 181.72 25.951 182.389 25.7111C183.058 25.4683 183.632 25.133 184.11 24.7053C184.588 24.2776 184.955 23.7718 185.218 23.188C185.478 22.607 185.609 21.9741 185.609 21.292C185.609 20.6099 185.478 19.9799 185.218 19.3961C184.955 18.8151 184.588 18.3093 184.11 17.8787C183.632 17.451 183.058 17.1215 182.389 16.8903C181.72 16.6591 180.976 16.5434 180.157 16.5434H176.103V26.0695H180.157V26.0724Z" fill="#FFFFFC"/>
<path d="M23.9864 29.1733C23.359 31.0866 22.7346 32.9999 22.1073 34.9132C21.3126 37.3438 20.515 39.786 19.7233 42.2109C13.1241 47.3698 6.26199 49.6617 5.15963 50.0114C6.07378 48.6213 8.83117 44.0432 8.09328 37.9045C7.12535 29.8611 0.914507 25.4652 -0.119141 24.7629C4.2186 23.8611 9.69453 22.3178 15.6455 19.5663C20.987 17.0981 25.3367 14.2947 28.7364 11.7224C26.9081 13.5374 25.0798 15.3554 23.2514 17.1704C20.7271 19.6791 18.1997 22.1877 15.6754 24.6993C15.0809 25.2918 14.8926 26.0924 15.1705 26.8409C15.4752 27.6617 16.2788 28.2426 17.2617 28.3554L23.834 29.101C23.9236 29.1126 23.9744 29.153 23.9864 29.1733Z" fill="#FFFFFC"/>
<path d="M43.8208 24.2565C39.3138 28.6472 34.8044 33.0332 30.2949 37.4192C27.7902 39.8572 25.283 42.2952 22.7758 44.7355C22.4237 45.0761 21.8843 45.0551 21.5296 44.8568C21.3597 44.7611 21.0913 44.5488 21.2095 44.1942C22.3695 40.7087 23.5713 37.1066 24.7634 33.5348C25.2806 31.9857 25.7978 30.4412 26.315 28.8921C26.4209 28.5725 26.3691 28.2249 26.1746 27.9426C25.9578 27.6277 25.5933 27.42 25.1747 27.3734L19.7589 26.7715C19.3377 26.7248 19.1062 26.4938 19.0323 26.2955C18.9584 26.1019 19.0126 25.9036 19.1801 25.7403C21.2637 23.7152 23.3448 21.6902 25.4259 19.6628C27.4355 17.7055 29.4477 15.7504 31.4598 13.793C32.9203 12.3722 34.3808 10.9491 35.8437 9.52833C37.3041 8.10754 38.7646 6.68675 40.2251 5.26596C40.4172 5.07932 40.6659 5 40.9122 5C41.1142 5 41.3136 5.05366 41.4737 5.14231C41.6437 5.23797 41.9097 5.45027 41.7914 5.80488C40.1463 10.7462 38.506 15.6571 36.686 21.107C36.5801 21.4266 36.6318 21.7742 36.8264 22.0588C37.0431 22.3738 37.4076 22.5814 37.8263 22.6281L43.2445 23.2323C43.6632 23.279 43.8922 23.5076 43.9686 23.7059C44.0105 23.8156 44.0474 24.0372 43.8208 24.2565Z" fill="#FAE200"/>
<path d="M23.6876 12.3092C26.7878 12.3092 29.3009 9.89727 29.3009 6.92195C29.3009 3.94664 26.7878 1.53467 23.6876 1.53467C20.5874 1.53467 18.0742 3.94664 18.0742 6.92195C18.0742 9.89727 20.5874 12.3092 23.6876 12.3092Z" fill="#FAE200"/>
</g>
<defs>
<clipPath id="clip0_197_22">
<rect width="190" height="50" fill="white"/>
</clipPath>
</defs>
</svg>
