<svg width="41" height="40" viewBox="0 0 41 40" fill="none" xmlns="http://www.w3.org/2000/svg">
<path d="M14.463 29.4955H23.5666C23.1993 31.6775 21.3012 33.3398 19.0148 33.3398C16.7283 33.3398 14.8302 31.6775 14.463 29.4955ZM19.0148 3.33984C25.388 3.33984 30.5547 8.50642 30.5547 14.8797V21.032L32.7369 25.8943C32.8214 26.0825 32.8651 26.2865 32.8651 26.4928C32.8651 27.3002 32.2107 27.9546 31.4034 27.9546H6.632C6.42615 27.9546 6.22263 27.9112 6.03475 27.827C5.29793 27.4971 4.96801 26.6324 5.29787 25.8955L7.47491 21.0326L7.47506 14.8599L7.48186 14.4753C7.69584 8.27344 12.7923 3.33984 19.0148 3.33984Z" fill="#E8FBFF"/>
</svg>
