

<svg width="22" height="26" viewBox="0 0 22 26" fill="none" xmlns="http://www.w3.org/2000/svg">
<path d="M18.7417 15.5754C20.3863 15.5754 21.7194 16.8739 21.7194 18.4758V19.6603C21.7194 20.3998 21.4821 21.1207 21.0407 21.7224C18.9938 24.5123 15.6515 25.8945 11.123 25.8945C6.59336 25.8945 3.25281 24.5118 1.2109 21.7203C0.771367 21.1194 0.535156 20.4001 0.535156 19.6622V18.4758C0.535156 16.8739 1.86828 15.5754 3.51278 15.5754H18.7417ZM11.123 0.10498C14.7792 0.10498 17.7432 2.99209 17.7432 6.5535C17.7432 10.1149 14.7792 13.0021 11.123 13.0021C7.46663 13.0021 4.50262 10.1149 4.50262 6.5535C4.50262 2.99209 7.46663 0.10498 11.123 0.10498Z" fill="#453507"/>
</svg>
