<svg width="30" height="30" viewBox="0 0 30 30" fill="none" xmlns="http://www.w3.org/2000/svg">
<path d="M3.33334 11.6667C3.33334 7.06431 7.06431 3.33334 11.6667 3.33334C16.269 3.33334 20 7.06431 20 11.6667C20 16.269 16.269 20 11.6667 20C7.06431 20 3.33334 16.269 3.33334 11.6667ZM11.6667 0C5.22336 0 0 5.22336 0 11.6667C0 18.11 5.22336 23.3334 11.6667 23.3334C14.2872 23.3334 16.706 22.4694 18.6537 21.0107L27.1549 29.5119C27.8057 30.1627 28.861 30.1627 29.5119 29.5119C30.1627 28.861 30.1627 27.8057 29.5119 27.1549L21.0107 18.6537C22.4694 16.706 23.3334 14.2872 23.3334 11.6667C23.3334 5.22336 18.11 0 11.6667 0Z" fill="#E8FBFF"/>
</svg>
