<svg width="25" height="41" viewBox="0 0 25 41" fill="none" xmlns="http://www.w3.org/2000/svg">
<path d="M24.8208 20.1315C20.3138 24.5222 15.8044 28.9082 11.2949 33.2942C8.7902 35.7322 6.28302 38.1702 3.77585 40.6105C3.42366 40.9511 2.8843 40.9301 2.52965 40.7318C2.35971 40.6361 2.09127 40.4238 2.20948 40.0692C3.36948 36.5837 4.57134 32.9816 5.76336 29.4098C6.28056 27.8607 6.79776 26.3162 7.31495 24.7671C7.42086 24.4475 7.36913 24.0999 7.17457 23.8176C6.95784 23.5027 6.59334 23.295 6.17466 23.2484L0.758866 22.6465C0.337721 22.5998 0.106218 22.3688 0.0323331 22.1705C-0.0415521 21.9769 0.0126319 21.7786 0.180105 21.6153C2.26367 19.5902 4.34476 17.5652 6.42586 15.5378C8.43554 13.5805 10.4477 11.6254 12.4598 9.66804C13.9203 8.24725 15.3808 6.82412 16.8437 5.40333C18.3041 3.98254 19.7646 2.56175 21.2251 1.14096C21.4172 0.954322 21.6659 0.875 21.9122 0.875C22.1142 0.875 22.3136 0.928659 22.4737 1.01731C22.6437 1.11297 22.9097 1.32527 22.7914 1.67988C21.1463 6.62115 19.506 11.5321 17.686 16.982C17.5801 17.3016 17.6318 17.6492 17.8264 17.9338C18.0431 18.2488 18.4076 18.4564 18.8263 18.5031L24.2445 19.1073C24.6632 19.154 24.8922 19.3826 24.9686 19.5809C25.0105 19.6906 25.0474 19.9122 24.8208 20.1315Z" fill="#FAE200"/>
</svg>
